<svg width="150" height="69" viewBox="0 0 150 69" fill="none" xmlns="http://www.w3.org/2000/svg">
<mask id="mask0_764_686136" style="mask-type:alpha" maskUnits="userSpaceOnUse" x="0" y="0" width="150" height="69">
<path d="M-5.46392e-07 62.75C-2.44628e-07 66.2018 2.79822 69 6.25 69L143.75 69C147.202 69 150 66.2018 150 62.75L150 6.25C150 2.79822 147.202 1.0576e-06 143.75 1.35936e-06L6.25 1.338e-05C2.79822 1.36818e-05 -5.78754e-06 2.79823 -5.48578e-06 6.25001L-5.46392e-07 62.75Z" fill="white"/>
</mask>
<g mask="url(#mask0_764_686136)">
<path opacity="0.4" d="M35.3209 42.1222L35.4017 42.0193L35.4249 42.0161L56.71 14.9038C62.7693 7.18566 61.1168 -3.75224 52.9788 -9.53009L43.468 -16.2826L23.2685 9.44689C20.6563 12.7743 15.6912 13.4549 12.2012 10.977L-10.4811 -5.12699L-28.5606 17.9021L10.3932 45.5586C18.2786 51.1571 29.4405 49.6125 35.3209 42.1222Z" stroke="#E5EEF3" stroke-width="0.625"/>
<path opacity="0.4" d="M50.5423 -54.3516C42.6946 -60.0251 31.5352 -58.6101 25.6193 -51.2099L3.97873 -24.1398C-2.04711 -16.6021 -0.466882 -5.79921 7.52638 -0.0203965L17.1621 6.94583L39.2672 -20.7055C40.918 -22.7705 44.0241 -23.1562 46.1978 -21.5847L83.445 5.34353L114.441 -8.1551L50.5423 -54.3516Z" stroke="#E5EEF3" stroke-width="0.625"/>
<path opacity="0.4" d="M64.9706 10.6307L64.9001 10.7418L64.8903 10.7441L57.0164 23.1576C54.8188 26.6221 55.9813 31.1379 59.6459 33.24L63.869 35.6625L71.2841 23.9725C72.3109 22.3536 74.5219 21.8407 76.2086 22.8082L86.4933 28.7079L93.0245 18.4113L75.2515 8.2161C71.7031 6.18061 67.1016 7.27112 64.9706 10.6307Z" stroke="#E5EEF3" stroke-width="0.625"/>
</g>
</svg>
