<svg width="98" height="33" viewBox="0 0 98 33" fill="none" xmlns="http://www.w3.org/2000/svg">
<g clip-path="url(#clip0_1089_43482)">
<path d="M14.9207 11.0977L10.875 13.4448V18.1698L14.9207 20.5169L18.9972 18.1698V13.4448L14.9207 11.0977Z" fill="white"/>
<path d="M15.3516 21.2305L18.6251 23.1452L15.3516 25.0291V21.2305Z" fill="white"/>
<path d="M11.2422 8.9375L14.5158 10.8214L11.2422 12.7361V8.9375Z" fill="white"/>
<path d="M10.875 18.171L14.9207 15.793V20.5181L10.875 18.171Z" fill="white"/>
<path d="M14.9141 11.0977L18.9906 13.4448L14.9141 15.7919V11.0977Z" fill="white"/>
<path d="M7.03906 2.69796L9.50969 1.27734V4.08769L7.03906 2.69796Z" fill="white"/>
<path d="M15.75 5.26046L18.2206 3.83984V6.68107L15.75 5.26046Z" fill="white"/>
<path d="M24.3047 7.30078L26.7444 8.69051L24.3047 10.1111V7.30078Z" fill="white"/>
<path d="M24.3047 12.0273L26.7444 13.448L24.3047 14.8686V12.0273Z" fill="white"/>
<path d="M26.8672 15.7917L29.3069 14.3711V17.2123L26.8672 15.7917Z" fill="white"/>
<path d="M19.8594 23.3581L22.2991 21.9375V24.7787L19.8594 23.3581Z" fill="white"/>
<path d="M7.03906 26.1702L9.50969 24.7188V27.5909L7.03906 26.1702Z" fill="white"/>
<path d="M2.22656 18.1706L4.69719 16.75V19.5912L2.22656 18.1706Z" fill="white"/>
<path d="M19.1172 9.18359L22.3908 11.0675L19.1172 12.9513V9.18359Z" fill="white"/>
<path d="M19.4609 13.446L22.7345 11.5312V15.3298L19.4609 13.446Z" fill="white"/>
<path d="M19.4609 13.9102L22.7345 15.794L19.4609 17.7088V13.9102Z" fill="white"/>
<path d="M19.4609 18.1729L22.7345 16.2891V20.0568L19.4609 18.1729Z" fill="white"/>
<path d="M19.1172 18.6328L22.3908 20.5476L19.1172 22.4314V18.6328Z" fill="white"/>
<path d="M15.3516 20.7667L18.6251 18.8828V22.6505L15.3516 20.7667Z" fill="white"/>
<path d="M11.2422 23.1452L14.5158 21.2305V25.0291L11.2422 23.1452Z" fill="white"/>
<path d="M11.2422 18.8828L14.5158 20.7667L11.2422 22.6505V18.8828Z" fill="white"/>
<path d="M7.47656 20.5476L10.7501 18.6328V22.4314L7.47656 20.5476Z" fill="white"/>
<path d="M10.4064 18.1729L7.13281 20.0568V16.2891L10.4064 18.1729Z" fill="white"/>
<path d="M7.13281 15.794L10.4064 13.9102V17.7088L7.13281 15.794Z" fill="white"/>
<path d="M7.13281 11.5312L10.4064 13.446L7.13281 15.3298V11.5312Z" fill="white"/>
<path d="M7.47656 11.0675L10.7501 9.18359V12.9513L7.47656 11.0675Z" fill="white"/>
<path d="M11.2422 8.47333L14.5158 6.55859V10.3572L11.2422 8.47333Z" fill="white"/>
<path d="M15.3516 6.55859L18.6251 8.47333L15.3516 10.3572V6.55859Z" fill="white"/>
<path d="M15.3516 10.8214L18.6251 8.9375V12.7361L15.3516 10.8214Z" fill="white"/>
<path d="M14.9141 15.793L18.9906 18.171L14.9141 20.5181V15.793Z" fill="white"/>
<path d="M14.9141 15.7924L18.9906 13.4453V18.1704L14.9141 15.7924Z" fill="white"/>
<path d="M10.875 13.4453L14.9207 15.7924L10.875 18.1704V13.4453Z" fill="white"/>
<path d="M10.875 13.4448L14.9207 11.0977V15.7919L10.875 13.4448Z" fill="white"/>
<path d="M14.2675 6.00265L11.7969 7.42326V4.58203L14.2675 6.00265Z" fill="white"/>
<path d="M10.8125 1.46358L13.2831 0.0429688V2.8842L10.8125 1.46358Z" fill="white"/>
<path d="M16.0625 0.476562L18.5022 1.89718L16.0625 3.31779V0.476562Z" fill="white"/>
<path d="M21.4609 2.14453L23.9316 3.56515L21.4609 4.98576V2.14453Z" fill="white"/>
<path d="M19.1172 7.85811L21.5878 6.4375V9.27873L19.1172 7.85811Z" fill="white"/>
<path d="M25.8516 10.8816L28.2913 9.46094V12.3022L25.8516 10.8816Z" fill="white"/>
<path d="M24.1484 19.7475V16.9062L26.5882 18.3269L24.1484 19.7475Z" fill="white"/>
<path d="M24.3047 20.5495L26.7444 19.1289V21.9701L24.3047 20.5495Z" fill="white"/>
<path d="M26.625 24.2852L29.0956 25.7058L26.625 27.1264V24.2852Z" fill="white"/>
<path d="M20.3516 28.0248V25.1836L22.8222 26.6042L20.3516 28.0248Z" fill="white"/>
<path d="M15.75 25.6433L18.2206 24.2227V27.0639L15.75 25.6433Z" fill="white"/>
<path d="M10.2578 30.8034L12.7284 29.3828V32.224L10.2578 30.8034Z" fill="white"/>
<path d="M11.9219 24.3789L14.3616 25.7995L11.9219 27.251V24.3789Z" fill="white"/>
<path d="M7.53906 21.9375L10.0097 23.3581L7.53906 24.7787V21.9375Z" fill="white"/>
<path d="M1.17188 25.3659L3.6425 23.9453V26.7865L1.17188 25.3659Z" fill="white"/>
<path d="M1.57812 14.0039L4.01787 15.4245L1.57812 16.8143V14.0039Z" fill="white"/>
<path d="M3.27344 13.448L5.71318 12.0273V14.8686L3.27344 13.448Z" fill="white"/>
<path d="M0.09375 9.64844L2.56438 11.0691L0.09375 12.4897V9.64844Z" fill="white"/>
<path d="M2.07031 7.88546L4.54094 6.46484V9.30607L2.07031 7.88546Z" fill="white"/>
<path d="M7.53906 6.15625L10.0097 7.57686L7.53906 8.99748V6.15625Z" fill="white"/>
<path d="M0.710938 20.1172L2.84185 21.3525L0.710938 22.5878V20.1172Z" fill="white"/>
<path d="M15.75 31.0483V28.207L18.2206 29.6276L15.75 31.0483Z" fill="white"/>
<path d="M47.8672 4.55036V13.9388H51.3261V2.54297L47.8672 4.55036Z" fill="white"/>
<path d="M59.3548 11.4062C57.6871 11.4062 56.5136 10.1092 56.5136 8.25618C56.5136 6.4032 57.6871 5.10612 59.3857 5.10612C60.5901 5.10612 61.6401 5.93996 61.9181 7.11351L64.7593 5.47671C63.9255 3.50021 61.8254 2.20312 59.2621 2.20312C55.6797 2.20312 53.0547 4.76641 53.0547 8.28706C53.0547 11.8077 55.6797 14.371 59.2621 14.371C62.4122 14.371 64.8519 12.4563 65.099 9.80032L61.8872 9.42973C61.6401 10.5724 60.5592 11.4062 59.3548 11.4062Z" fill="white"/>
<path d="M42.4346 4.39594V9.73869L38.5433 2.54297L34.9609 4.61212V13.9388H38.1728V6.68128L42.064 13.9388H45.6464V2.54297L42.4346 4.39594Z" fill="white"/>
<path d="M37.7682 26.1097L35.8535 23.1758H35.3594V26.7891H35.7917V23.8861H35.8226L37.7065 26.7891H38.2315V23.1758H37.7682V26.1097Z" fill="white"/>
<path d="M40.9817 26.3857C40.9817 26.324 40.9508 26.2313 40.9508 26.1696V24.8416C40.9508 24.7181 40.9199 24.5945 40.8581 24.471C40.7964 24.3783 40.7346 24.2857 40.6419 24.2548C40.5493 24.193 40.4566 24.1622 40.3331 24.1622C40.2096 24.1622 40.0861 24.1313 39.9625 24.1622C39.8081 24.1622 39.6846 24.1622 39.561 24.193C39.4375 24.2239 39.314 24.2857 39.2213 24.3475C39.1287 24.4092 39.036 24.5019 38.9743 24.6254C38.9125 24.7489 38.8816 24.9034 38.8816 25.0269H39.314C39.314 24.8725 39.3757 24.7181 39.4993 24.6254C39.6537 24.5636 39.8081 24.5019 39.9625 24.5328C40.0243 24.5328 40.0861 24.5328 40.1787 24.5328C40.2405 24.5328 40.3022 24.5636 40.364 24.5945C40.4258 24.6254 40.4566 24.6563 40.4875 24.7181C40.5184 24.7798 40.5493 24.8725 40.5493 24.9342C40.5493 24.996 40.5184 25.0578 40.4875 25.1195C40.4258 25.1813 40.364 25.2122 40.3022 25.2122C40.2096 25.2431 40.1169 25.2431 40.0243 25.2739C39.9008 25.2739 39.8081 25.3048 39.6846 25.3357C39.561 25.3666 39.4684 25.3666 39.3449 25.3975C39.2522 25.4284 39.1596 25.4592 39.0669 25.521C38.9743 25.5828 38.9125 25.6445 38.8507 25.7372C38.7581 25.9534 38.7581 26.2004 38.8507 26.4475C38.8816 26.5401 38.9434 26.6019 39.036 26.6637C39.1287 26.7254 39.2213 26.7563 39.314 26.7872C39.4375 26.8181 39.5302 26.8181 39.6537 26.8181C39.839 26.8181 39.9934 26.7872 40.1478 26.7254C40.3022 26.6637 40.4566 26.5401 40.5493 26.4166C40.5493 26.5401 40.5802 26.6328 40.6419 26.7254C40.7037 26.7872 40.7964 26.8181 40.9199 26.8181C41.0125 26.8181 41.1361 26.7872 41.2287 26.7563V26.4166C41.1978 26.4166 41.1361 26.4475 41.1052 26.4475C41.0434 26.4784 41.0125 26.4475 40.9817 26.3857ZM40.5493 25.8916C40.5493 25.9534 40.5184 26.0151 40.5184 26.0769C40.4875 26.1387 40.4258 26.2004 40.364 26.2622C40.3022 26.324 40.2096 26.3857 40.1169 26.4166C39.9934 26.4475 39.8699 26.4784 39.7463 26.4784C39.6846 26.4784 39.6228 26.4784 39.561 26.4475C39.4993 26.4475 39.4375 26.4166 39.4066 26.3857C39.3449 26.3549 39.314 26.324 39.2831 26.2622C39.2522 26.2004 39.2522 26.1387 39.2522 26.0769C39.2522 26.0151 39.2522 25.9225 39.2831 25.8607C39.314 25.799 39.3449 25.7681 39.4066 25.7372C39.4684 25.7063 39.4993 25.6754 39.561 25.6445C39.6228 25.6137 39.6846 25.6137 39.7772 25.5828C39.839 25.5828 39.9316 25.5519 39.9934 25.5519L40.2096 25.521C40.2713 25.521 40.3331 25.4901 40.3949 25.4901C40.4566 25.4901 40.4875 25.4592 40.5493 25.4284V25.8916Z" fill="white"/>
<path d="M42.2475 23.3906H41.8152V24.1627H41.3828V24.5333H41.8152V26.201C41.8152 26.2936 41.8152 26.3863 41.8461 26.4789C41.8769 26.5407 41.9078 26.6024 41.9696 26.6642C42.0314 26.6951 42.0931 26.726 42.1549 26.7569C42.2475 26.7877 42.3402 26.7877 42.4328 26.7877H42.7725V26.4172H42.5872C42.5255 26.4172 42.4637 26.4172 42.4328 26.4172C42.4019 26.4172 42.3711 26.4172 42.3402 26.3863C42.3093 26.3554 42.3093 26.3554 42.2784 26.3245C42.2784 26.2936 42.2784 26.2319 42.2784 26.201V24.5642H42.8034V24.1936H42.2784L42.2475 23.3906Z" fill="white"/>
<path d="M43.698 24.1953H43.2656V26.8204H43.698V24.1953Z" fill="white"/>
<path d="M46.4192 24.5031C46.2956 24.3796 46.1721 24.287 46.0177 24.2252C45.678 24.0708 45.2765 24.0708 44.9368 24.2252C44.7824 24.287 44.6588 24.3796 44.5353 24.5031C44.4118 24.6267 44.35 24.7811 44.2882 24.9355C44.1956 25.2752 44.1956 25.6458 44.2882 26.0164C44.35 26.1708 44.4118 26.3252 44.5353 26.4488C44.6588 26.5723 44.7824 26.6958 44.9368 26.7576C45.2765 26.912 45.678 26.912 46.0177 26.7576C46.1721 26.6958 46.2956 26.5723 46.4192 26.4488C46.5427 26.3252 46.6045 26.1708 46.6662 26.0164C46.7589 25.6767 46.7589 25.3061 46.6662 24.9355C46.6045 24.7811 46.5427 24.6575 46.4192 24.5031ZM46.2339 25.9237C46.203 26.0473 46.1412 26.1399 46.0486 26.2326C45.9868 26.3252 45.8941 26.387 45.8015 26.4179C45.7088 26.4488 45.5853 26.4796 45.4927 26.4796C45.2765 26.4796 45.0603 26.387 44.9059 26.2326C44.8132 26.1399 44.7824 26.0473 44.7206 25.9237C44.6897 25.8002 44.6588 25.6458 44.6588 25.4914C44.6588 25.337 44.6897 25.2134 44.7206 25.059C44.7515 24.9355 44.8132 24.8428 44.9059 24.7502C44.9677 24.6575 45.0603 24.5958 45.153 24.5649C45.2456 24.534 45.3691 24.5031 45.4618 24.5031C45.5544 24.5031 45.678 24.534 45.7706 24.5649C45.8633 24.5958 45.9559 24.6884 46.0177 24.7502C46.1103 24.8428 46.1412 24.9355 46.203 25.059C46.2339 25.1826 46.2647 25.337 46.2647 25.4914C46.2956 25.6458 46.2647 25.7693 46.2339 25.9237Z" fill="white"/>
<path d="M49.2269 24.3799C49.1651 24.2872 49.0416 24.2255 48.9489 24.1946C48.8254 24.1328 48.671 24.1328 48.5166 24.1328C48.3313 24.1328 48.1769 24.1637 48.0224 24.2563C47.868 24.349 47.7445 24.4725 47.6827 24.6269V24.2255H47.2812V26.8505H47.7136V25.3681C47.7136 25.2446 47.7136 25.1519 47.7445 25.0284C47.7754 24.9358 47.8371 24.8431 47.8989 24.7814C47.9607 24.7196 48.0533 24.6578 48.146 24.5961C48.2386 24.5652 48.3621 24.5343 48.4857 24.5343C48.6401 24.5343 48.7636 24.5652 48.8872 24.6887C48.9798 24.7814 49.0416 24.9358 49.0416 25.0593V26.8196H49.4739V25.0902C49.4739 24.9667 49.4739 24.8431 49.4431 24.7196C49.3504 24.5652 49.2886 24.4725 49.2269 24.3799Z" fill="white"/>
<path d="M52.1349 26.3873C52.1349 26.3255 52.104 26.2329 52.104 26.1711V24.8431C52.104 24.7196 52.0731 24.5961 52.0113 24.4725C51.9496 24.3799 51.8878 24.3181 51.7951 24.2563C51.7025 24.1946 51.579 24.1637 51.4863 24.1637C51.3628 24.1328 51.2393 24.1328 51.1466 24.1328C50.9922 24.1328 50.8687 24.1328 50.7142 24.1637C50.5907 24.1946 50.4672 24.2563 50.3745 24.3181C50.2819 24.3799 50.1892 24.4725 50.1275 24.5961C50.0657 24.7196 50.0348 24.874 50.0348 24.9975H50.4672C50.4672 24.8431 50.5289 24.6887 50.6525 24.5961C50.8069 24.5343 50.9613 24.4725 51.1157 24.5034C51.1775 24.5034 51.2392 24.5034 51.3319 24.5034C51.3937 24.5034 51.4554 24.5343 51.5172 24.5652C51.579 24.5961 51.6098 24.6269 51.6407 24.6887C51.6716 24.7505 51.7025 24.8431 51.7025 24.9049C51.7025 24.9667 51.6716 25.0284 51.6407 25.0902C51.579 25.1519 51.5172 25.1828 51.4554 25.1828C51.3628 25.2137 51.2701 25.2137 51.1775 25.2446C51.054 25.2446 50.9613 25.2755 50.8378 25.3064C50.7142 25.3372 50.6216 25.3372 50.4981 25.3681C50.4054 25.399 50.3128 25.4299 50.2201 25.4917C50.1275 25.5534 50.0657 25.6152 50.0348 25.7078C49.9731 25.8314 49.9422 25.9549 49.9731 26.0784C49.9731 26.202 50.0039 26.2946 50.0348 26.4181C50.0657 26.5108 50.1275 26.5726 50.2201 26.6343C50.3128 26.6961 50.4054 26.727 50.4981 26.7579C50.6216 26.7887 50.7142 26.7887 50.8378 26.7887C51.0231 26.7887 51.1775 26.7579 51.3319 26.6961C51.4863 26.6343 51.6407 26.5108 51.7334 26.3873C51.7334 26.5108 51.7643 26.6034 51.826 26.6961C51.8878 26.7579 51.9804 26.7887 52.104 26.7887C52.1966 26.7887 52.3201 26.7579 52.4128 26.727V26.4181C52.3819 26.4181 52.3202 26.449 52.2893 26.449C52.1966 26.4799 52.1349 26.449 52.1349 26.3873ZM51.7025 25.8931C51.7025 25.9549 51.6716 26.0167 51.6716 26.0784C51.6407 26.1402 51.579 26.202 51.5172 26.2637C51.4554 26.3255 51.3628 26.3873 51.2701 26.4181C51.0848 26.4799 50.8995 26.4799 50.7142 26.449C50.6525 26.449 50.5907 26.4181 50.5598 26.3873C50.4981 26.3564 50.4672 26.3255 50.4363 26.2637C50.4054 26.202 50.4054 26.1402 50.4054 26.0784C50.4054 26.0167 50.4054 25.924 50.4363 25.8623C50.4672 25.8005 50.4981 25.7696 50.5598 25.7387C50.6216 25.7078 50.6525 25.677 50.7142 25.6461C50.776 25.6152 50.8378 25.6152 50.8995 25.5843C50.9613 25.5843 51.054 25.5534 51.1157 25.5534L51.3319 25.5225C51.3937 25.5225 51.4554 25.4917 51.5172 25.4917C51.579 25.4917 51.6098 25.4608 51.6716 25.4299L51.7025 25.8931Z" fill="white"/>
<path d="M53.2449 23.1758H52.8125V26.7891H53.2449V23.1758Z" fill="white"/>
<path d="M55.9004 23.1758H55.4062V26.7891H55.9004V23.1758Z" fill="white"/>
<path d="M58.5859 24.3799C58.5241 24.2872 58.4006 24.2255 58.3079 24.1946C58.1844 24.1328 58.03 24.1328 57.8756 24.1328C57.6903 24.1328 57.5359 24.1637 57.3814 24.2563C57.227 24.349 57.1035 24.4725 57.0417 24.6269V24.2255H56.6094V26.8505H57.0417V25.3681C57.0417 25.2446 57.0417 25.1519 57.1035 25.0284C57.1344 24.9358 57.1653 24.8431 57.2579 24.7814C57.3197 24.7196 57.4123 24.6578 57.505 24.5961C57.5976 24.5652 57.7212 24.5343 57.8447 24.5343C57.9991 24.5343 58.1226 24.5652 58.2462 24.6887C58.3388 24.7814 58.4006 24.9358 58.4006 25.0593V26.8196H58.8329V25.0902C58.8329 24.9667 58.8329 24.8431 58.8021 24.7196C58.7094 24.5652 58.6476 24.4725 58.5859 24.3799Z" fill="white"/>
<path d="M60.3145 23.1445C60.1292 23.1445 59.9439 23.1754 59.7895 23.2989C59.666 23.4225 59.6042 23.6078 59.6042 23.7931V24.1945H59.1719V24.5651H59.6042V26.7887H60.0366V24.5651H60.5307V24.1945H60.0057V23.824C60.0057 23.7313 60.0366 23.6387 60.0984 23.5769C60.1601 23.546 60.2528 23.5151 60.3454 23.5151C60.3763 23.5151 60.4381 23.5151 60.469 23.5151C60.4998 23.5151 60.5616 23.5151 60.5925 23.546V23.1754C60.5616 23.1754 60.4998 23.1445 60.469 23.1445H60.3145Z" fill="white"/>
<path d="M63.0047 24.5038C62.8812 24.3803 62.7577 24.2876 62.6032 24.2259C62.4179 24.1641 62.2327 24.1023 62.0474 24.1332C61.8621 24.1332 61.6768 24.1641 61.4915 24.2259C61.3371 24.2876 61.2135 24.3803 61.09 24.5038C60.9665 24.6273 60.9047 24.7818 60.8429 24.9362C60.7503 25.2759 60.7503 25.6465 60.8429 26.0171C60.9047 26.1715 60.9665 26.3259 61.09 26.4494C61.1826 26.573 61.3371 26.6965 61.4915 26.7583C61.6768 26.82 61.8621 26.8509 62.0474 26.8509C62.2327 26.8509 62.4179 26.82 62.6032 26.7583C62.7577 26.6965 62.8812 26.573 63.0047 26.4494C63.1283 26.3259 63.19 26.1715 63.2518 26.0171C63.3753 25.6774 63.3753 25.3068 63.2518 24.9362C63.19 24.7818 63.0974 24.6582 63.0047 24.5038ZM62.7885 25.9244C62.7577 26.048 62.6959 26.1406 62.6032 26.2333C62.3871 26.4803 62.0165 26.5421 61.7076 26.4186C61.615 26.3877 61.5223 26.3259 61.4297 26.2333C61.3371 26.1406 61.3062 26.048 61.2444 25.9244C61.2135 25.8009 61.1826 25.6465 61.1826 25.4921C61.1826 25.3376 61.2135 25.2141 61.2444 25.0597C61.2753 24.9362 61.3371 24.8435 61.4297 24.7509C61.4915 24.6582 61.5841 24.5965 61.7076 24.5656C61.8929 24.4729 62.14 24.4729 62.3253 24.5656C62.418 24.5965 62.5106 24.6891 62.5724 24.7509C62.665 24.8435 62.6959 24.9362 62.7577 25.0597C62.7885 25.1832 62.8194 25.3376 62.8194 25.4921C62.8503 25.6465 62.8194 25.77 62.7885 25.9244Z" fill="white"/>
<path d="M64.2062 24.7196V24.1637H63.8047V26.7887H64.237V25.6152C64.237 25.4608 64.2679 25.3064 64.2988 25.1828C64.3297 25.0593 64.3915 24.9358 64.4532 24.8431C64.5459 24.7505 64.6385 24.6887 64.7621 24.6269C64.9165 24.5652 65.04 24.5652 65.1944 24.5652V24.1328C64.9782 24.1328 64.7929 24.1637 64.6076 24.2872C64.4532 24.3799 64.2988 24.5343 64.2062 24.7196Z" fill="white"/>
<path d="M68.9287 24.2872C68.8361 24.2255 68.7434 24.1637 68.6508 24.1637C68.5273 24.1328 68.4037 24.1328 68.3111 24.1328C68.1567 24.1328 67.9714 24.1637 67.8478 24.2563C67.6934 24.3181 67.5699 24.4416 67.5081 24.5961C67.4772 24.4416 67.3537 24.3181 67.2302 24.2563C67.1066 24.1946 66.9522 24.1637 66.7978 24.1637C66.4581 24.1637 66.1493 24.3181 65.964 24.5961V24.2255H65.5625V26.8505H65.9949V25.2137C65.9949 25.1519 65.9949 25.0902 66.0257 25.0284C66.0566 24.9358 66.0875 24.874 66.1493 24.8122C66.211 24.7505 66.2728 24.6887 66.3655 24.6269C66.4581 24.5652 66.5816 24.5343 66.6743 24.5652C66.7669 24.5652 66.8287 24.5652 66.9213 24.5961C66.9831 24.6269 67.0449 24.6578 67.0758 24.7196C67.1066 24.7814 67.1375 24.8431 67.1375 24.9049C67.1684 24.9667 67.1684 25.0593 67.1684 25.1519V26.8505H67.6008V25.2137C67.6008 25.0284 67.6625 24.874 67.7861 24.7196C67.9096 24.5961 68.0949 24.5343 68.2802 24.5343C68.3728 24.5343 68.4655 24.5343 68.5273 24.5961C68.589 24.6269 68.6508 24.6578 68.6817 24.7196C68.7126 24.7814 68.7434 24.8431 68.7434 24.9049C68.7434 24.9667 68.7743 25.0593 68.7743 25.1211V26.8196H69.2067V24.9049C69.2067 24.7814 69.1758 24.6578 69.1449 24.5652C69.0523 24.4416 68.9905 24.349 68.9287 24.2872Z" fill="white"/>
<path d="M71.8621 26.3873C71.8621 26.3255 71.8313 26.2329 71.8313 26.1711V24.8431C71.8313 24.7196 71.8004 24.5961 71.7386 24.4725C71.6769 24.3799 71.6151 24.3181 71.5224 24.2563C71.4298 24.1946 71.3063 24.1637 71.2136 24.1637C71.0901 24.1328 70.9665 24.1328 70.8739 24.1328C70.7195 24.1328 70.5959 24.1328 70.4724 24.1637C70.3489 24.1946 70.2254 24.2563 70.1327 24.3181C70.0401 24.3799 69.9474 24.4725 69.8856 24.5961C69.8239 24.7196 69.793 24.874 69.793 24.9975H70.2254C70.2254 24.8431 70.2871 24.6887 70.4107 24.5961C70.5651 24.5343 70.7195 24.4725 70.8739 24.5034C70.9357 24.5034 70.9974 24.5034 71.0901 24.5034C71.1518 24.5034 71.2136 24.5343 71.2754 24.5652C71.3371 24.5961 71.368 24.6578 71.3989 24.6887C71.4298 24.7505 71.4607 24.8431 71.4607 24.9049C71.4607 24.9667 71.4298 25.0284 71.3989 25.0902C71.3371 25.1519 71.2754 25.1828 71.2136 25.1828C71.121 25.2137 71.0283 25.2137 70.9357 25.2446C70.843 25.2446 70.7195 25.2755 70.596 25.3064C70.5033 25.3372 70.3798 25.3372 70.2871 25.3681C70.1945 25.399 70.1018 25.4299 70.0092 25.4917C69.9165 25.5534 69.8548 25.6152 69.8239 25.7078C69.7621 25.8314 69.7312 25.9549 69.7621 26.0784C69.7621 26.202 69.793 26.2946 69.8239 26.4181C69.8548 26.5108 69.9165 26.5726 70.0092 26.6343C70.1018 26.6961 70.1945 26.727 70.2871 26.7579C70.5651 26.8196 70.8739 26.8196 71.121 26.6961C71.2754 26.6343 71.4298 26.5108 71.5224 26.3873C71.5224 26.5108 71.5533 26.6034 71.6151 26.6961C71.6769 26.7579 71.7695 26.7887 71.893 26.7887C71.9857 26.7887 72.1092 26.7579 72.2019 26.727V26.4181C72.171 26.4181 72.1092 26.449 72.0783 26.449C71.9239 26.4799 71.893 26.449 71.8621 26.3873ZM71.4298 25.8931C71.4298 25.9549 71.3989 26.0167 71.3989 26.0784C71.368 26.1402 71.3063 26.202 71.2445 26.2637C71.1827 26.3255 71.0901 26.3873 70.9974 26.4181C70.8739 26.449 70.7504 26.4799 70.6268 26.4799C70.5651 26.4799 70.5033 26.4799 70.4415 26.449C70.3798 26.449 70.318 26.4181 70.2871 26.3873C70.2254 26.3564 70.1945 26.3255 70.1636 26.2637C70.1327 26.202 70.1327 26.1402 70.1327 26.0784C70.1327 26.0167 70.1327 25.924 70.1636 25.8623C70.1945 25.8005 70.2254 25.7696 70.2871 25.7387C70.3489 25.7078 70.3798 25.677 70.4415 25.6461C70.5033 25.6152 70.5651 25.6152 70.6268 25.5843C70.6886 25.5843 70.7813 25.5534 70.843 25.5534L71.0592 25.5225C71.121 25.5225 71.1827 25.4917 71.2445 25.4917C71.3063 25.4917 71.3371 25.4608 71.3989 25.4299L71.4298 25.8931Z" fill="white"/>
<path d="M73.1303 23.3906H72.698V24.1627H72.2656V24.5333H72.698V26.201C72.698 26.2936 72.698 26.3863 72.7289 26.4789C72.7598 26.5407 72.7906 26.6024 72.8524 26.6642C72.9142 26.6951 72.9759 26.726 73.0377 26.7569C73.1303 26.7877 73.223 26.7877 73.3156 26.7877H73.6554V26.4172H73.4701C73.4083 26.4172 73.3465 26.4172 73.3156 26.4172C73.2848 26.4172 73.2539 26.4172 73.223 26.3863C73.1921 26.3863 73.1921 26.3554 73.1921 26.3245C73.1921 26.2936 73.1612 26.2319 73.1612 26.201V24.5642H73.6862V24.1936H73.1612L73.1303 23.3906Z" fill="white"/>
<path d="M74.5808 24.1953H74.1484V26.8204H74.5808V24.1953Z" fill="white"/>
<path d="M77.302 24.5034C77.1784 24.3799 77.0549 24.2872 76.9005 24.2255C76.7461 24.1637 76.5608 24.1328 76.3755 24.1328C76.1902 24.1328 76.0049 24.1637 75.8196 24.2255C75.6652 24.2872 75.5416 24.3799 75.4181 24.5034C75.2946 24.6269 75.2328 24.7814 75.171 24.9358C75.0784 25.2755 75.0784 25.6461 75.171 26.0167C75.2328 26.1711 75.2946 26.3255 75.4181 26.449C75.5108 26.5726 75.6652 26.6961 75.8196 26.7579C76.0049 26.8196 76.1902 26.8505 76.3755 26.8505C76.5608 26.8505 76.7461 26.8196 76.9314 26.7579C77.0858 26.6961 77.2093 26.5726 77.3328 26.449C77.4564 26.3255 77.5181 26.1711 77.5799 26.0167C77.7034 25.677 77.7034 25.3064 77.5799 24.9358C77.5181 24.8122 77.4255 24.6578 77.302 24.5034ZM77.1167 25.924C77.0858 26.0476 77.024 26.1402 76.9314 26.2329C76.7152 26.4799 76.3446 26.5417 76.0358 26.4181C75.9431 26.3873 75.8505 26.3255 75.7578 26.2329C75.6652 26.1402 75.6343 26.0476 75.5725 25.924C75.5416 25.8005 75.5108 25.6461 75.5108 25.4917C75.5108 25.3372 75.5416 25.2137 75.5725 25.0593C75.6034 24.9358 75.6652 24.8431 75.7578 24.7505C75.8196 24.6578 75.9122 24.5961 76.0358 24.5652C76.2211 24.4725 76.4681 24.4725 76.6534 24.5652C76.7461 24.5961 76.8387 24.6887 76.9005 24.7505C76.9931 24.8431 77.024 24.9358 77.0858 25.0593C77.1167 25.1828 77.1476 25.3372 77.1476 25.4917C77.1784 25.6461 77.1475 25.7696 77.1167 25.924Z" fill="white"/>
<path d="M80.1097 24.3799C80.0479 24.2872 79.9244 24.2255 79.8317 24.1946C79.7082 24.1328 79.5538 24.1328 79.3994 24.1328C79.2141 24.1328 79.0597 24.1637 78.9052 24.2563C78.7508 24.349 78.6273 24.4725 78.5655 24.6269V24.2255H78.1641V26.8505H78.5964V25.3681C78.5964 25.2446 78.5964 25.1519 78.6582 25.0284C78.6891 24.9358 78.7508 24.8431 78.8126 24.7814C78.8744 24.7196 78.967 24.6578 79.0597 24.5961C79.1832 24.5652 79.2758 24.5343 79.3994 24.5343C79.5538 24.5343 79.6773 24.5652 79.8009 24.6887C79.8935 24.7814 79.9553 24.9358 79.9553 25.0593V26.8196H80.3876V25.0902C80.3876 24.9667 80.3876 24.8431 80.3567 24.7196C80.2332 24.5652 80.1714 24.4725 80.1097 24.3799Z" fill="white"/>
<path d="M84.8974 25.8619C84.8356 25.9854 84.7738 26.109 84.6812 26.2016C84.5886 26.2943 84.4959 26.356 84.3724 26.4178C84.2488 26.4795 84.0944 26.5104 83.94 26.4795C83.7547 26.4795 83.5694 26.4487 83.3841 26.356C83.2297 26.2943 83.1062 26.1707 83.0135 26.0163C82.9209 25.8619 82.8282 25.7075 82.7973 25.5222C82.7356 25.3369 82.7356 25.1207 82.7356 24.9354C82.7356 24.7501 82.7665 24.5648 82.7973 24.3795C82.8282 24.2251 82.9209 24.0398 83.0135 23.9163C83.1062 23.7927 83.2297 23.6692 83.3841 23.5766C83.5694 23.4839 83.7547 23.453 83.94 23.453C84.0635 23.453 84.1871 23.4839 84.2797 23.5148C84.4033 23.5457 84.4959 23.6074 84.5886 23.6692C84.6812 23.731 84.743 23.8236 84.8047 23.9163C84.8665 24.0089 84.8974 24.1324 84.9283 24.256H85.4224C85.3915 24.0707 85.3297 23.9163 85.2371 23.731C85.1444 23.5766 85.0518 23.453 84.8974 23.3604C84.7739 23.2677 84.6194 23.1751 84.4341 23.1442C84.2488 23.0824 84.0635 23.0515 83.9091 23.0824C83.6621 23.0824 83.415 23.1133 83.1679 23.2368C82.9518 23.3295 82.7665 23.4839 82.6429 23.6383C82.4885 23.8236 82.3959 24.0398 82.3032 24.256C82.2106 24.503 82.1797 24.7192 82.1797 24.9663C82.1797 25.2133 82.2106 25.4604 82.2723 25.7075C82.3341 25.9237 82.4268 26.1398 82.5812 26.2943C82.7356 26.4795 82.89 26.6031 83.1062 26.6957C83.3224 26.7884 83.6003 26.8501 83.8474 26.8501C84.2488 26.881 84.6503 26.7266 84.9591 26.4795C85.2371 26.2016 85.4224 25.831 85.4224 25.4295H85.0209C84.99 25.5839 84.9592 25.7075 84.8974 25.8619Z" fill="white"/>
<path d="M88.0521 24.6272C87.9594 24.4727 87.8359 24.3492 87.6815 24.2566C87.4962 24.1639 87.3109 24.1022 87.0947 24.133C86.9403 24.133 86.755 24.1639 86.6006 24.2257C86.4461 24.2874 86.3226 24.3801 86.1991 24.5036C86.0755 24.6272 86.0138 24.7816 85.952 24.936C85.8903 25.1213 85.8594 25.3066 85.8594 25.4919C85.8594 25.6772 85.8903 25.8625 85.952 26.0478C86.0138 26.2022 86.0755 26.3566 86.1991 26.4801C86.2917 26.6037 86.4461 26.6963 86.5697 26.7581C86.755 26.8198 86.9403 26.8816 87.1256 26.8507C87.4035 26.8507 87.6506 26.789 87.8668 26.6345C88.0829 26.4801 88.2065 26.2331 88.2373 25.986H87.805C87.7741 26.1404 87.7123 26.264 87.5579 26.3566C87.4344 26.4493 87.28 26.4801 87.1256 26.4801C87.002 26.4801 86.8785 26.4493 86.755 26.4184C86.5697 26.3257 86.4153 26.1713 86.3535 25.9551C86.3226 25.8625 86.3226 25.7389 86.3226 25.6154H88.2682C88.2682 25.461 88.2682 25.2757 88.2373 25.1213C88.2065 24.9669 88.1447 24.7816 88.0521 24.6272ZM86.3226 25.2448C86.3226 25.1522 86.3535 25.0595 86.3844 24.9669C86.4153 24.8742 86.477 24.8125 86.5388 24.7198C86.6006 24.658 86.6932 24.5963 86.755 24.5654C86.8476 24.5345 86.9712 24.5036 87.0638 24.5036C87.1565 24.5036 87.2491 24.5345 87.3726 24.5654C87.4653 24.5963 87.527 24.658 87.6197 24.7198C87.6815 24.7816 87.7432 24.8742 87.7741 24.9669C87.805 25.0595 87.8359 25.1522 87.8359 25.2448H86.3226Z" fill="white"/>
<path d="M90.7031 24.3799C90.6413 24.2872 90.5178 24.2255 90.4251 24.1946C90.3016 24.1328 90.1472 24.1328 89.9928 24.1328C89.8075 24.1328 89.653 24.1637 89.4986 24.2563C89.3442 24.349 89.2207 24.4725 89.1589 24.6269V24.2255H88.7266V26.8505H89.1589V25.3681C89.1589 25.2446 89.1589 25.1519 89.1898 25.0284C89.2207 24.9358 89.2825 24.8431 89.3442 24.7814C89.406 24.7196 89.4986 24.6578 89.5913 24.5961C89.6839 24.5652 89.8075 24.5343 89.931 24.5343C90.0854 24.5343 90.2089 24.5652 90.3325 24.6887C90.4251 24.7814 90.4869 24.9358 90.4869 25.0593V26.8196H90.9192V25.0902C90.9192 24.9667 90.9192 24.8431 90.8884 24.7196C90.8266 24.5652 90.7648 24.4725 90.7031 24.3799Z" fill="white"/>
<path d="M92.1225 23.3906H91.6902V24.1627H91.2578V24.5333H91.6902V26.201C91.6902 26.2936 91.6902 26.3863 91.7211 26.4789C91.7519 26.5407 91.7828 26.6024 91.8446 26.6642C91.9064 26.6951 91.9681 26.726 92.0299 26.7569C92.1225 26.7877 92.2152 26.7877 92.3078 26.7877H92.6475V26.4172H92.4314C92.3696 26.4172 92.3078 26.4172 92.2769 26.4172C92.2461 26.4172 92.2152 26.4172 92.1843 26.3863C92.1534 26.3554 92.1534 26.3245 92.1534 26.2936C92.1534 26.2627 92.1534 26.201 92.1534 26.1701V24.5642H92.6784V24.1936H92.1225V23.3906Z" fill="white"/>
<path d="M95.1536 24.6266C95.061 24.4722 94.9374 24.3486 94.783 24.256C94.5977 24.1633 94.4124 24.1016 94.1963 24.1016C94.0418 24.1016 93.8565 24.1324 93.7021 24.1942C93.5477 24.256 93.4242 24.3486 93.3006 24.4722C93.1771 24.5957 93.1153 24.7501 93.0536 24.9045C92.9918 25.0898 92.9609 25.2751 92.9609 25.4604C92.9609 25.6457 92.9918 25.831 93.0536 26.0163C93.1153 26.1707 93.1771 26.3251 93.3006 26.4487C93.3933 26.5722 93.5477 26.6648 93.6712 26.7266C93.8565 26.7884 94.0418 26.8501 94.2271 26.8193C94.5051 26.8193 94.7521 26.7575 94.9683 26.6031C95.1845 26.4487 95.308 26.2016 95.3389 25.9545H94.9066C94.8757 26.109 94.8139 26.2325 94.6595 26.3251C94.536 26.4178 94.3815 26.4487 94.2271 26.4487C94.1036 26.4487 93.9801 26.4178 93.8565 26.3869C93.7639 26.356 93.6712 26.2942 93.6095 26.2016C93.5477 26.109 93.4859 26.0163 93.4551 25.9237C93.4242 25.831 93.4242 25.7075 93.4242 25.5839H95.3698C95.3698 25.4295 95.3698 25.2442 95.3389 25.0898C95.308 24.9354 95.2463 24.781 95.1536 24.6266ZM93.4242 25.2442C93.4242 25.1516 93.4551 25.0589 93.4859 24.9663C93.5168 24.8736 93.5786 24.8119 93.6404 24.7192C93.7021 24.6575 93.7948 24.5957 93.8565 24.5648C93.9492 24.5339 94.0727 24.503 94.1654 24.503C94.258 24.503 94.3507 24.5339 94.4433 24.5648C94.536 24.5957 94.5977 24.6575 94.6904 24.7192C94.7521 24.781 94.8139 24.8736 94.8448 24.9663C94.8757 25.0589 94.9066 25.1516 94.9066 25.2442H93.4242Z" fill="white"/>
<path d="M96.2296 24.7196V24.1637H95.8281V26.7887H96.2605V25.6152C96.2605 25.4608 96.2605 25.3064 96.3223 25.1828C96.3531 25.0593 96.4149 24.9358 96.4767 24.8431C96.5693 24.7505 96.662 24.6887 96.7855 24.6269C96.9399 24.5652 97.0634 24.5652 97.2179 24.5652V24.1328C97.0017 24.1328 96.8164 24.1637 96.6311 24.2872C96.4767 24.3799 96.3222 24.5343 96.2296 24.7196Z" fill="white"/>
<path d="M43.698 23.1758H43.2656V23.7008L43.698 23.4537V23.1758Z" fill="white"/>
<path d="M74.5808 23.1758H74.1484V23.7008L74.5808 23.4537V23.1758Z" fill="white"/>
<path d="M39.6246 20.4872C39.779 20.4563 39.8717 20.3328 39.9334 20.2093C39.9643 20.3019 40.0261 20.3946 40.0879 20.4563C40.1805 20.5181 40.304 20.549 40.4276 20.549H44.7821V19.6534C44.8129 19.3445 44.6894 19.0048 44.5041 18.7578C44.2879 18.5416 44.01 18.418 43.7012 18.4489C43.3923 18.4489 43.1144 18.5416 42.8673 18.696C42.6203 18.8813 42.4041 19.0975 42.2497 19.3754V16.7812H41.7864V20.1166H40.4276C40.3349 20.1166 40.2732 20.1166 40.2114 20.0857C40.1496 20.0548 40.1187 20.024 40.057 19.9622C40.0261 19.9004 39.9952 19.8387 39.9952 19.7769C39.9952 19.6842 39.9643 19.6225 39.9643 19.5298V18.5107H39.532V19.7151C39.532 19.7769 39.532 19.8695 39.5011 19.9313C39.4702 19.9931 39.4393 20.024 39.4084 20.0548C39.3776 20.0857 39.3158 20.0857 39.254 20.1166C39.1923 20.1166 39.0996 20.1166 39.0378 20.1166H38.1731C37.7408 20.1166 37.3084 20.024 36.9069 19.8695V20.3019C36.9996 20.3328 37.1231 20.3637 37.2775 20.3946C37.4011 20.4254 37.5246 20.4872 37.6481 20.5181C37.7716 20.549 37.8643 20.6107 37.9569 20.6725C38.0187 20.7343 38.0805 20.796 38.0805 20.8887C38.0805 20.9504 38.0496 21.0431 37.9878 21.074C37.8952 21.1357 37.8025 21.1975 37.7099 21.1975C37.5863 21.2284 37.4319 21.2593 37.2775 21.2902C37.1231 21.321 36.9378 21.321 36.7834 21.321C36.4128 21.3519 36.0731 21.2593 35.7334 21.1049C35.5172 20.9504 35.3937 20.7034 35.4245 20.4254V19.7151H34.9922V20.5181C34.9922 20.6725 35.0231 20.8578 35.0848 21.0122C35.1466 21.1666 35.2392 21.2902 35.3628 21.4137C35.5172 21.5372 35.7025 21.6299 35.9187 21.6916C36.1966 21.7534 36.5054 21.7843 36.7834 21.7843C37.0613 21.7843 37.3393 21.7534 37.5863 21.7225C37.7716 21.6916 37.9569 21.6299 38.1114 21.5372C38.2349 21.4755 38.3584 21.3828 38.4202 21.2593C38.482 21.1666 38.5128 21.074 38.5128 20.9504C38.5128 20.8887 38.5128 20.796 38.482 20.7343C38.4511 20.6725 38.4202 20.6107 38.3893 20.549H39.1923C39.3158 20.549 39.4702 20.5181 39.6246 20.4872ZM42.435 19.6842C42.5276 19.5298 42.6203 19.4063 42.7438 19.2828C42.8673 19.1592 42.9908 19.0666 43.1144 19.0048C43.2379 18.9122 43.4232 18.8813 43.5776 18.8813C43.7012 18.8813 43.8247 18.9122 43.9173 18.9431C44.01 18.9739 44.1026 19.0357 44.1644 19.1284C44.2262 19.221 44.257 19.3136 44.2879 19.4063C44.3188 19.5298 44.3188 19.6225 44.3188 19.746V20.1166H42.1879C42.2805 19.9622 42.3423 19.8387 42.435 19.6842Z" fill="white"/>
<path d="M48.9173 20.549V16.7812H48.4849V20.1166H47.3113V19.8695C47.3113 19.6842 47.2805 19.4989 47.2496 19.3136C47.2187 19.1592 47.1569 19.0048 47.0643 18.8813C46.9716 18.7578 46.879 18.6651 46.7555 18.6033C46.601 18.5416 46.4466 18.5107 46.2922 18.5107C46.1378 18.5107 45.9834 18.5416 45.8598 18.6033C45.7363 18.6651 45.6128 18.7578 45.5201 18.8504C45.4275 18.9431 45.3657 19.0666 45.304 19.221C45.2422 19.3445 45.2422 19.4989 45.2422 19.6534C45.2422 19.8078 45.2731 19.9622 45.304 20.0857C45.3348 20.2093 45.4275 20.3019 45.5201 20.3637C45.6128 20.4254 45.7054 20.4872 45.829 20.5181C45.9525 20.549 46.076 20.5798 46.2304 20.5798H46.8172C46.8172 20.7034 46.7863 20.8269 46.7246 20.9196C46.6628 21.0122 46.5702 21.074 46.4775 21.1357C46.354 21.1975 46.2304 21.2284 46.1378 21.2284C45.9834 21.2593 45.829 21.2593 45.6746 21.2593H45.5201V21.6608H45.7672C45.9834 21.6608 46.1687 21.6608 46.354 21.599C46.5084 21.5681 46.6628 21.5063 46.8172 21.4137C46.9407 21.321 47.0643 21.2284 47.126 21.074C47.2187 20.9196 47.2496 20.7343 47.2496 20.549H48.9173ZM46.8481 20.1166H46.2922C46.1378 20.1166 45.9834 20.0857 45.829 19.9931C45.7054 19.9004 45.6746 19.746 45.6746 19.5916C45.6746 19.4989 45.6745 19.4372 45.7054 19.3445C45.7363 19.2519 45.7672 19.1901 45.829 19.1284C45.9216 18.9739 46.1069 18.9122 46.2613 18.9122C46.4466 18.8813 46.6319 18.9739 46.7246 19.1592C46.8172 19.3445 46.879 19.5607 46.8481 19.7769V20.1166Z" fill="white"/>
<path d="M50.0964 16.7812H49.6641V20.5181H50.0964V16.7812Z" fill="white"/>
<path d="M55.713 20.1176H53.1806C53.0262 20.1176 52.8718 20.1176 52.7792 20.1176C52.6865 20.1176 52.5939 20.0867 52.5321 20.0559C52.4703 20.025 52.4086 19.9632 52.4086 19.9015C52.3777 19.8088 52.3777 19.7162 52.3777 19.6544V18.975H51.9453V19.7779C51.9453 19.9015 51.9453 20.025 52.0071 20.1176C52.038 20.2103 52.0997 20.3029 52.1924 20.3647C52.285 20.4265 52.4086 20.4882 52.5321 20.4882C52.6865 20.5191 52.8718 20.5191 53.0262 20.5191H56.2071V18.5117H55.7748L55.713 20.1176Z" fill="white"/>
<path d="M59.4163 20.2409C59.5707 20.3644 59.756 20.4571 59.9413 20.5188C60.0957 20.5806 60.281 20.6115 60.4354 20.6115C60.6825 20.6423 60.9296 20.5188 61.1149 20.3335C61.2693 20.1173 61.331 19.8703 61.331 19.6232C61.331 19.4688 61.3002 19.3144 61.2693 19.1909C61.2384 19.0673 61.1458 18.9438 61.084 18.8511C60.9913 18.7585 60.8987 18.6967 60.806 18.635C60.6825 18.5732 60.559 18.5423 60.4354 18.5732C60.3428 18.5732 60.2501 18.5732 60.1575 18.6041C60.0648 18.635 59.9413 18.6967 59.8796 18.7585C59.7869 18.8511 59.6943 18.9438 59.6016 19.0673C59.509 19.2526 59.4163 19.407 59.3545 19.6232C59.3237 19.7159 59.2928 19.8085 59.231 19.8703C59.2001 19.932 59.1384 19.9629 59.1075 20.0247C59.0766 20.0556 59.0148 20.0865 58.9839 20.0865C58.9531 20.1173 58.8913 20.1173 58.8604 20.1482H57.7795C57.6251 20.1482 57.5325 20.1173 57.4707 20.0556C57.4089 19.9629 57.4089 19.8394 57.4089 19.7467V16.8438H56.9766V19.8085C56.9766 19.932 56.9766 20.0556 57.0383 20.1482C57.0692 20.2409 57.131 20.3026 57.1927 20.3644C57.2545 20.4262 57.3472 20.4571 57.4398 20.4879C57.5325 20.5188 57.656 20.5188 57.7486 20.5188H58.8604C58.9222 20.5188 58.9839 20.5188 59.0457 20.5188C59.1075 20.5188 59.1692 20.5188 59.2001 20.4879C59.2619 20.4571 59.2928 20.4262 59.3545 20.3953C59.3237 20.3644 59.3545 20.3026 59.4163 20.2409ZM59.9722 19.1909C60.0648 19.0673 60.2193 19.0056 60.3737 19.0056C60.4663 19.0056 60.5281 19.0364 60.5899 19.0673C60.6516 19.0982 60.7134 19.16 60.7443 19.1909C60.7752 19.2526 60.8369 19.3144 60.8369 19.3761C60.8678 19.4379 60.8678 19.5306 60.8678 19.5923C60.8678 19.7467 60.8369 19.9012 60.7443 20.0247C60.6516 20.1173 60.5281 20.1482 60.4046 20.1482C60.281 20.1482 60.1266 20.1173 60.0031 20.0865C59.8796 20.0247 59.7251 19.9629 59.6325 19.8703C59.6943 19.6541 59.8178 19.407 59.9722 19.1909Z" fill="white"/>
<path d="M72.6978 16.7809V20.1162H71.864C71.7404 20.1162 71.6478 20.0854 71.5551 20.0236C71.4934 19.9618 71.4316 19.8692 71.4007 19.7765C71.4007 19.7456 71.4007 19.7456 71.4007 19.7148V19.653C71.4007 19.4986 71.3698 19.375 71.3389 19.2206C71.2772 19.0971 71.2154 19.0045 71.1536 18.9118C71.061 18.8192 70.9683 18.7574 70.8757 18.6956C70.7522 18.6339 70.6286 18.603 70.5051 18.603C70.4125 18.603 70.3198 18.603 70.2272 18.6339C70.1345 18.6647 70.0419 18.7265 69.9492 18.7883C69.8566 18.8809 69.7639 18.9736 69.6713 19.0971C69.5786 19.2824 69.486 19.4368 69.4242 19.653C69.3933 19.7456 69.3624 19.8383 69.3007 19.9001C69.2698 19.9618 69.208 19.9927 69.1771 20.0545C69.1463 20.0854 69.0845 20.1162 69.0536 20.1162C69.0227 20.1162 68.961 20.1162 68.9301 20.1162H68.0036C67.9109 20.1162 67.8183 20.1162 67.7256 20.0854C67.9109 19.9618 68.0654 19.8074 68.158 19.6221C68.2507 19.4677 68.3124 19.2824 68.3124 19.0662C68.3124 18.9736 68.2815 18.9118 68.2507 18.8192C68.2198 18.7265 68.158 18.6647 68.0962 18.603C68.0036 18.5412 67.9109 18.4794 67.8183 18.4486C67.6948 18.4177 67.5404 18.3868 67.4168 18.3868C67.2315 18.3868 67.0771 18.4177 66.8918 18.4794C66.7374 18.5412 66.6139 18.6339 66.4903 18.7574C66.4595 18.7883 66.4595 18.8192 66.4286 18.85C66.3977 18.8809 66.3977 18.9118 66.3668 18.9427C66.3359 18.9736 66.3359 19.0353 66.305 19.0662C66.2742 19.0971 66.2742 19.1589 66.2742 19.1898L66.9227 19.9309C66.6756 19.9927 66.4286 20.0545 66.1506 20.0236H65.8727C65.7491 20.0236 65.6256 19.9618 65.533 19.8692C65.4403 19.7456 65.4094 19.5912 65.4094 19.4368V16.75H64.9771V19.6839C64.9771 19.7456 64.9771 19.8383 64.9462 19.9001C64.9153 19.9309 64.9153 19.9927 64.8535 20.0236C64.8227 20.0545 64.7609 20.0545 64.73 20.0854C64.6682 20.0854 64.6065 20.0854 64.5756 20.0854H63.7726V19.8383C63.7726 19.653 63.7418 19.4677 63.7109 19.2824C63.68 19.128 63.6182 18.9736 63.5256 18.85C63.4638 18.7265 63.3403 18.6339 63.2167 18.5721C63.0623 18.5103 62.9079 18.4794 62.7535 18.4794C62.5991 18.4794 62.4447 18.5103 62.3211 18.5721C62.1976 18.6339 62.105 18.7265 62.0123 18.8192C61.9197 18.9118 61.8579 19.0353 61.7961 19.1898C61.7344 19.3133 61.7344 19.4677 61.7344 19.6221C61.7344 19.7765 61.7653 19.9309 61.7961 20.0545C61.8579 20.1471 61.9197 20.2707 62.0123 20.3324C62.105 20.3942 62.1976 20.4559 62.3211 20.4868C62.4447 20.5177 62.5991 20.5486 62.7226 20.5486H63.3094C63.3094 20.6721 63.2785 20.7957 63.2167 20.8883C63.155 20.981 63.0623 21.0427 62.9697 21.1045C62.8462 21.1663 62.7226 21.1971 62.63 21.1971C62.4756 21.228 62.3211 21.228 62.1667 21.228H62.0123V21.6604H62.2285C62.4447 21.6604 62.63 21.6604 62.8462 21.5986C63.0006 21.5677 63.155 21.506 63.3094 21.4133C63.4329 21.3207 63.5565 21.228 63.6182 21.0736C63.7109 20.9192 63.7418 20.7339 63.7418 20.5486H64.4829C64.6682 20.5486 64.8535 20.5177 65.008 20.4868C65.1624 20.4559 65.255 20.3324 65.3168 20.2089C65.3477 20.3015 65.4094 20.3942 65.4712 20.456C65.5638 20.5177 65.6565 20.5486 65.78 20.5486H66.0889C66.2742 20.5486 66.4595 20.5177 66.6447 20.4868C66.83 20.4559 66.9845 20.3942 67.1698 20.3324C67.2624 20.4251 67.3551 20.456 67.4786 20.5177C67.5712 20.5486 67.6639 20.5486 67.7565 20.5486H68.8374C68.8992 20.5486 68.961 20.5486 69.0227 20.5486C69.0845 20.5486 69.1463 20.5486 69.1771 20.5177C69.2389 20.4868 69.2698 20.456 69.3316 20.4251C69.3933 20.3633 69.4242 20.3324 69.4551 20.2707C69.6095 20.3942 69.7948 20.4868 69.9801 20.5486C70.1345 20.6104 70.3198 20.6412 70.4742 20.6412C70.6286 20.6412 70.8139 20.6104 70.9683 20.5177C71.0919 20.456 71.1845 20.3324 71.2463 20.2089C71.3081 20.3324 71.3698 20.4251 71.4934 20.4868C71.586 20.5486 71.7095 20.5795 71.8331 20.5795H73.0993V16.7809H72.6978ZM63.3712 20.1162H62.8153C62.6609 20.1162 62.5064 20.0854 62.352 19.9927C62.2285 19.9001 62.1976 19.7456 62.1976 19.5912C62.1976 19.4986 62.1976 19.4368 62.2285 19.3442C62.2594 19.2515 62.2903 19.1898 62.3211 19.128C62.3829 19.0662 62.4447 19.0045 62.5064 18.9736C62.5991 18.9427 62.6917 18.9118 62.7844 18.9118C62.9697 18.8809 63.155 18.9736 63.2476 19.1589C63.3403 19.3442 63.402 19.5603 63.3712 19.7765V20.1162ZM67.2933 19.8383L66.6447 19.1589C66.7374 19.0662 66.83 18.9736 66.9536 18.9427C67.0771 18.8809 67.2006 18.85 67.3551 18.85C67.4786 18.85 67.633 18.8809 67.7256 18.9427C67.7874 19.0045 67.8492 19.0662 67.8492 19.1589C67.8492 19.2824 67.7874 19.4368 67.6948 19.5295C67.5712 19.6839 67.4477 19.7765 67.2933 19.8383ZM70.8448 20.0545C70.7522 20.1471 70.6286 20.178 70.5051 20.178C70.3816 20.178 70.2272 20.1471 70.1036 20.1162C69.9801 20.0545 69.8257 19.9927 69.733 19.9001C69.7948 19.653 69.9183 19.4059 70.0727 19.2206C70.1654 19.0971 70.3198 19.0353 70.4742 19.0353C70.5669 19.0353 70.6286 19.0662 70.6904 19.0971C70.7522 19.128 70.8139 19.1898 70.8448 19.2206C70.8757 19.2824 70.9375 19.3442 70.9375 19.4059C70.9683 19.4677 70.9683 19.5603 70.9683 19.6221C70.9992 19.7765 70.9684 19.9309 70.8448 20.0545Z" fill="white"/>
<path d="M74.3074 16.7812H73.875V20.5181H74.3074V16.7812Z" fill="white"/>
<path d="M78.8736 18.0792C78.8427 18.1101 78.8118 18.141 78.8118 18.1718C78.7809 18.2027 78.7809 18.2645 78.75 18.2954C78.7192 18.3263 78.7192 18.388 78.7192 18.4189C78.9045 18.5116 79.0898 18.6042 79.2751 18.7277C79.4295 18.8513 79.6148 18.9748 79.7383 19.0983C79.8618 19.191 79.9854 19.3145 80.078 19.4689C80.1398 19.5616 80.2015 19.6542 80.2015 19.7778C80.2015 19.8704 80.1707 19.9939 80.078 20.0557C79.9854 20.0866 79.8618 20.1175 79.7692 20.1175H77.7309C77.6074 20.1484 77.453 20.0866 77.3603 19.9631C77.2985 19.8395 77.2677 19.6851 77.2677 19.5307V18.7895H76.8353V20.2101C76.8353 20.3954 76.8353 20.5498 76.8353 20.6734C76.8353 20.7969 76.8044 20.8895 76.7427 20.9822C76.6809 21.0748 76.6191 21.1366 76.5265 21.1675C76.4029 21.1984 76.2485 21.2293 76.125 21.2293V21.6616C76.3103 21.6616 76.5265 21.6307 76.7118 21.5999C76.8353 21.569 76.9588 21.4763 77.0515 21.3837C77.1441 21.2601 77.2059 21.1057 77.2368 20.9513C77.2677 20.7351 77.2985 20.5189 77.2985 20.3028C77.3294 20.3645 77.3912 20.4263 77.4838 20.4881C77.5765 20.5498 77.6691 20.5807 77.7618 20.5807H79.7692C79.9236 20.5807 80.078 20.5498 80.2324 20.5189C80.3251 20.4881 80.4177 20.4263 80.5104 20.3337C80.5721 20.2719 80.603 20.1792 80.6339 20.0866C80.6648 19.9939 80.6648 19.9322 80.6648 19.8395C80.6648 19.716 80.6339 19.6233 80.603 19.4998C80.5413 19.3763 80.4795 19.2527 80.356 19.1292C80.2324 18.9748 80.078 18.8513 79.9236 18.7277C79.7383 18.5733 79.5221 18.4189 79.3059 18.2954L80.8501 17.616V17.1836L78.9353 18.0174C78.9353 18.0483 78.9045 18.0792 78.8736 18.0792Z" fill="white"/>
<path d="M85.2402 20.3623C85.3947 20.1461 85.4873 19.899 85.4564 19.652C85.4564 19.4976 85.4255 19.3431 85.3947 19.2196C85.3638 19.0961 85.2711 18.9726 85.2094 18.8799C85.1167 18.7873 85.0241 18.7255 84.9005 18.6637C84.777 18.602 84.6535 18.5711 84.5299 18.602C84.4373 18.602 84.3446 18.602 84.252 18.6328C84.1593 18.6637 84.0358 18.7255 83.974 18.7873C83.8814 18.8799 83.7887 18.9726 83.6961 19.0961C83.6034 19.2814 83.5108 19.4358 83.449 19.652C83.4181 19.7446 83.3873 19.8373 83.3255 19.899C83.2946 19.9608 83.2329 19.9917 83.202 20.0535C83.1711 20.0843 83.1093 20.1152 83.0476 20.1152C83.0167 20.1152 82.9549 20.1152 82.924 20.1152H82.7078C82.5843 20.1152 82.4608 20.0535 82.3681 19.9608C82.3064 19.8373 82.2755 19.6829 82.2755 19.5284V18.8181H81.8431V20.2388C81.8431 20.4241 81.8431 20.5785 81.8431 20.702C81.8431 20.7946 81.8122 20.9182 81.7505 21.0108C81.6887 21.1035 81.6269 21.1652 81.5343 21.1961C81.4108 21.227 81.2563 21.2579 81.1328 21.2579V21.6903C81.3181 21.6903 81.5034 21.6594 81.7196 21.6285C81.8431 21.5976 81.9666 21.505 82.0593 21.4123C82.1519 21.2888 82.2137 21.1344 82.2137 20.9799C82.2446 20.7638 82.2755 20.5476 82.2446 20.3314C82.2755 20.3932 82.3372 20.4549 82.4299 20.5167C82.5225 20.5785 82.5843 20.6093 82.677 20.6093H82.924C82.9858 20.6093 83.0475 20.6093 83.1093 20.6093C83.1711 20.6093 83.2328 20.6093 83.2637 20.5785C83.3255 20.5476 83.3564 20.5167 83.4181 20.4858C83.4799 20.4241 83.5108 20.3932 83.5726 20.3314C83.727 20.4549 83.9123 20.5476 84.0976 20.6093C84.252 20.6711 84.4373 20.702 84.5917 20.702C84.8388 20.6402 85.0858 20.5476 85.2402 20.3623ZM84.9005 20.0535C84.8079 20.1461 84.6843 20.177 84.5608 20.177C84.4373 20.177 84.2829 20.1461 84.1593 20.1152C84.0358 20.0535 83.8814 19.9917 83.7887 19.899C83.8505 19.652 83.974 19.4049 84.1285 19.2196C84.2211 19.0961 84.3755 19.0343 84.5299 19.0343C84.5917 19.0343 84.6843 19.0652 84.7461 19.0961C84.8079 19.127 84.8696 19.1579 84.9005 19.2196C84.9314 19.2814 84.9932 19.3431 84.9932 19.4049C85.0241 19.4667 85.0241 19.5593 85.0241 19.6211C85.0549 19.7755 84.9932 19.9299 84.9005 20.0535Z" fill="white"/>
<path d="M77.2995 17.5234H76.8672V18.0484L77.2995 17.8014V17.5234Z" fill="white"/>
<path d="M39.9636 17.3672H39.5312V17.8922L39.9636 17.6451V17.3672Z" fill="white"/>
<path d="M54.6042 17.6758H54.1719V18.2008L54.6042 17.9537V17.6758Z" fill="white"/>
<path d="M53.9558 17.6758H53.5234V18.2008L53.9558 17.9537V17.6758Z" fill="white"/>
<path d="M37.2136 22.0938H36.7812V22.6188L37.2136 22.3717V22.0938Z" fill="white"/>
<path d="M36.5652 22.0938H36.1328V22.6188L36.5652 22.3717V22.0938Z" fill="white"/>
</g>
<defs>
<clipPath id="clip0_1089_43482">
<rect width="97.0957" height="32.18" fill="white" transform="translate(0.09375 0.0429688)"/>
</clipPath>
</defs>
</svg>
