<svg width="44" height="33" viewBox="0 0 44 33" fill="none" xmlns="http://www.w3.org/2000/svg">
<path d="M40.6281 5.11253C41.7811 5.20454 42.8709 5.31731 43.8793 5.40442C42.9267 4.54298 41.5291 3.81466 39.9812 3.34856C39.5855 3.49713 39.1833 3.65834 38.777 3.83055C39.4508 4.20589 40.07 4.63784 40.6281 5.11253Z" fill="white"/>
<path d="M32.7638 3.34871C31.2159 3.81525 29.8196 4.54357 28.8653 5.40543C29.8656 5.3183 30.9428 5.22386 32.0831 5.14282C32.651 4.65714 33.2808 4.21422 33.968 3.83112C33.5613 3.65851 33.1615 3.49773 32.7638 3.34871Z" fill="white"/>
<path d="M34.5229 2.38416C33.0528 2.17858 31.667 2.27303 30.528 2.61136C31.2559 2.81164 32.0033 3.05878 32.7679 3.34738C33.4644 3.13815 34.1907 2.98263 34.9219 2.89062C34.7883 2.7184 34.6556 2.54863 34.5229 2.38416Z" fill="white"/>
<path d="M39.522 6.07549C39.7129 6.40077 39.8839 6.72971 40.0382 7.06191C41.4973 8.041 42.8098 9.09094 44.0018 10.136C43.5406 8.46766 42.3754 6.59456 40.6289 5.11066C40.0366 5.06383 39.4284 5.02188 38.8047 4.99219C39.0599 5.33538 39.2993 5.69646 39.522 6.07549Z" fill="white"/>
<path d="M39.9814 3.34848C40.7463 3.06025 41.4938 2.81274 42.2205 2.61245C41.0818 2.27414 39.6968 2.17887 38.2263 2.38528C38.092 2.54974 37.9593 2.71908 37.8273 2.89131C38.5573 2.98374 39.2852 3.13841 39.9814 3.34848Z" fill="white"/>
<path d="M33.919 5.03125C33.2933 5.06342 32.6827 5.10169 32.0895 5.14361C30.3617 6.62343 29.208 8.48189 28.75 10.1376C29.9412 9.09418 31.2553 8.04384 32.7136 7.06475C32.8683 6.73254 33.0389 6.40279 33.2306 6.07833C33.4435 5.71273 33.6748 5.36427 33.919 5.03125Z" fill="white"/>
<path d="M37.5687 5.56515C37.5271 5.54315 37.4864 5.52279 37.4453 5.5C37.4787 5.90832 37.5048 6.32276 37.521 6.74492C38.7949 8.79962 40.4941 12.3032 41.0482 14.3697C41.3621 12.3407 41.2253 9.61871 40.039 7.06287C39.259 6.53977 38.437 6.03493 37.5687 5.56515Z" fill="white"/>
<path d="M35.7806 2.19578C35.7831 2.18316 35.7888 2.15713 35.7945 2.1278V2.12862L35.7953 2.1278C34.8512 1.49149 33.8892 1.03591 33.0078 0.785156C33.5106 1.22076 34.0183 1.77117 34.517 2.38428C34.9053 2.43842 35.2978 2.51414 35.6956 2.61186C35.7232 2.47181 35.7505 2.33339 35.7806 2.19578Z" fill="white"/>
<path d="M36.9453 2.12782C36.9526 2.15429 36.9588 2.17872 36.9624 2.19458C36.9921 2.33178 37.0202 2.47142 37.0463 2.61146C37.444 2.51335 37.8365 2.43803 38.2244 2.38349C38.7231 1.77079 39.2304 1.22037 39.7348 0.785156C38.8534 1.03553 37.8906 1.49027 36.9469 2.12458V2.12739L36.9461 2.12782H36.9453Z" fill="white"/>
<path d="M35.1788 5.56599C34.3112 6.03577 33.4885 6.54061 32.7064 7.06371C31.5221 9.61955 31.3853 12.3415 31.7 14.3705C32.2533 12.3028 33.955 8.7976 35.2289 6.74211C35.2456 6.32156 35.2712 5.90836 35.3038 5.5C35.2622 5.522 35.2211 5.54399 35.1788 5.56599Z" fill="white"/>
<path d="M36.945 2.1248C36.783 1.38059 36.5913 0.680373 36.3714 0.0379425C36.1516 0.680365 35.9586 1.38102 35.797 2.12559C35.9884 2.25547 36.1801 2.39183 36.3694 2.53555C36.5616 2.39145 36.7521 2.25424 36.945 2.1248Z" fill="white"/>
<path d="M36.3715 4.94922C35.9726 5.555 35.5915 6.15996 35.2377 6.72953C35.2341 6.73316 35.232 6.73806 35.2296 6.74172V6.74254C35.2129 7.14272 35.2031 7.55267 35.2031 7.96385C35.2031 10.9822 35.6424 13.7456 36.3736 15.8903C37.1039 13.7456 37.5436 10.9822 37.5436 7.96385C37.5436 7.5539 37.5346 7.14924 37.5196 6.74905C37.5196 6.74905 37.5179 6.74701 37.5167 6.7454C37.5143 6.73967 37.5102 6.73439 37.5061 6.72953C37.1528 6.15996 36.7713 5.555 36.3715 4.94922Z" fill="white"/>
<path d="M34.1254 3.73985C34.4747 3.55179 34.8252 3.38406 35.1777 3.23302C35.0922 3.11782 35.0051 3.00424 34.9188 2.89062C34.188 2.98308 33.4622 3.13816 32.7656 3.34784C33.1634 3.49724 33.5631 3.65764 33.9698 3.82983C34.022 3.80094 34.0728 3.76877 34.1254 3.73985Z" fill="white"/>
<path d="M38.099 4.1281C38.344 4.40209 38.5802 4.69194 38.8053 4.99485C39.4277 5.02496 40.0368 5.06649 40.6275 5.11411C40.0702 4.63941 39.451 4.20626 38.778 3.83129C38.5529 3.92657 38.3265 4.02631 38.099 4.1281Z" fill="white"/>
<path d="M37.5703 3.23341C37.9229 3.38281 38.2742 3.55138 38.6219 3.73944C38.6744 3.76755 38.7261 3.79969 38.7794 3.8294C39.1841 3.6572 39.5872 3.4964 39.9832 3.347C39.2871 3.13775 38.56 2.9814 37.83 2.89062C37.7433 3.00301 37.6566 3.11739 37.5703 3.23341Z" fill="white"/>
<path d="M34.6499 4.12759C34.4228 4.0258 34.196 3.92525 33.9709 3.8308C33.2837 4.2143 32.6539 4.65764 32.0859 5.14332C32.6799 5.10181 33.2898 5.06315 33.9155 5.03017C34.1496 4.71463 34.3947 4.41297 34.6499 4.12759Z" fill="white"/>
<path d="M35.324 3.43222C35.2748 3.36503 35.2255 3.2995 35.177 3.23438C34.8237 3.38417 34.4727 3.55192 34.1243 3.73959C34.0718 3.7689 34.0209 3.80106 33.9688 3.8308C34.1939 3.92523 34.4198 4.02497 34.6478 4.12635C34.866 3.88208 35.092 3.65245 35.324 3.43222Z" fill="white"/>
<path d="M38.0977 4.12678C38.3252 4.02499 38.5516 3.92525 38.7767 3.82998C38.7234 3.8015 38.6717 3.76933 38.6192 3.74044C38.2719 3.55194 37.9206 3.38421 37.5676 3.23438C37.5179 3.29993 37.4711 3.36669 37.4219 3.43265C37.6531 3.6525 37.8794 3.88292 38.0977 4.12678Z" fill="white"/>
<path d="M35.6573 2.8205C35.6695 2.75126 35.6833 2.68127 35.6971 2.61247C35.2994 2.51474 34.9057 2.43905 34.5186 2.38408C34.6513 2.54855 34.7852 2.71873 34.9171 2.89054C35.1634 2.85917 35.4102 2.83678 35.6573 2.8205Z" fill="white"/>
<path d="M38.8013 4.99398C38.3384 4.97198 37.8686 4.95532 37.3906 4.94922C37.4081 5.13199 37.4256 5.31602 37.4407 5.50206C37.4818 5.52322 37.5217 5.54521 37.5641 5.56721C38.4324 6.0374 39.2535 6.5406 40.0344 7.06537C39.8801 6.73316 39.7091 6.403 39.5186 6.07731C39.2967 5.69827 39.0565 5.3384 38.8013 4.99398Z" fill="white"/>
<path d="M37.3892 4.94904C37.8679 4.95556 38.3382 4.97104 38.7998 4.99386C38.5747 4.69177 38.3394 4.40149 38.0935 4.1271C37.8415 4.23946 37.5911 4.3555 37.3367 4.47561C37.355 4.63235 37.3733 4.78907 37.3892 4.94904Z" fill="white"/>
<path d="M35.6582 2.82132C35.4111 2.8376 35.1644 2.85996 34.9181 2.89135C35.0044 3.00491 35.0919 3.11811 35.177 3.23373C35.3236 3.1718 35.4697 3.11607 35.6155 3.05946C35.6297 2.98051 35.6432 2.90029 35.6582 2.82132Z" fill="white"/>
<path d="M35.5931 3.18127C35.6013 3.13974 35.609 3.09984 35.6156 3.05831C35.4698 3.11408 35.3237 3.17109 35.1775 3.23217C35.2267 3.29851 35.2756 3.36448 35.3244 3.43125C35.4128 3.34615 35.5032 3.2635 35.5931 3.18127Z" fill="white"/>
<path d="M37.4226 3.43138C37.36 3.51807 37.2985 3.60481 37.2358 3.69194C37.274 3.94883 37.309 4.20978 37.3408 4.47482C37.5944 4.3539 37.8464 4.23706 38.0985 4.12552C37.879 3.88206 37.6539 3.6516 37.4226 3.43138Z" fill="white"/>
<path d="M35.3083 5.49842C35.3217 5.32052 35.3384 5.14465 35.3567 4.96875C34.8686 4.98546 34.3882 5.00459 33.9168 5.0282C33.6725 5.3612 33.4421 5.70889 33.2292 6.0753C33.0374 6.40015 32.8665 6.72952 32.7109 7.06213C33.493 6.53898 34.3158 6.03498 35.1833 5.56436C35.2256 5.54198 35.2667 5.52041 35.3083 5.49842Z" fill="white"/>
<path d="M37.091 2.82096C37.336 2.83643 37.5823 2.85924 37.8282 2.89015C37.9601 2.71876 38.0929 2.54777 38.2272 2.38414C37.8392 2.43867 37.4472 2.51359 37.0502 2.61169C37.0649 2.6805 37.0775 2.75051 37.091 2.82096Z" fill="white"/>
<path d="M34.6535 4.12879C34.3983 4.41419 34.1532 4.71585 33.9191 5.03137C34.3905 5.00855 34.8709 4.98904 35.3574 4.9727C35.3749 4.80745 35.3932 4.64215 35.4132 4.4781C35.1579 4.3576 34.9051 4.24157 34.6535 4.12879Z" fill="white"/>
<path d="M37.5683 3.23219C37.6546 3.11618 37.7413 3.0018 37.828 2.88941C37.5813 2.85805 37.335 2.83528 37.09 2.81979C37.1042 2.89798 37.1181 2.9794 37.1323 3.05755C37.2776 3.11332 37.4226 3.17072 37.5683 3.23219Z" fill="white"/>
<path d="M37.1556 3.18355C37.2452 3.26543 37.3347 3.34803 37.4231 3.43148C37.4715 3.36553 37.5196 3.29875 37.5688 3.23362C37.4239 3.17097 37.2777 3.11478 37.1328 3.05859C37.1401 3.10135 37.1479 3.14164 37.1556 3.18355Z" fill="white"/>
<path d="M35.5132 3.69436C35.4509 3.60643 35.3882 3.51928 35.3255 3.43215C35.0943 3.65242 34.8676 3.88283 34.6493 4.12628C34.901 4.23865 35.1533 4.35549 35.409 4.47517C35.44 4.21136 35.475 3.95124 35.5132 3.69436Z" fill="white"/>
<path d="M37.4237 3.43152C37.3354 3.34685 37.2458 3.2654 37.1562 3.18359C37.1844 3.35132 37.2116 3.52025 37.2369 3.69206C37.2996 3.60494 37.361 3.5182 37.4237 3.43152Z" fill="white"/>
<path d="M35.3281 3.43356C35.3908 3.52068 35.4535 3.6078 35.5158 3.69574C35.541 3.52313 35.5679 3.35252 35.5968 3.18359C35.506 3.26581 35.4165 3.34889 35.3281 3.43356Z" fill="white"/>
<path d="M35.8021 2.13013C35.7951 2.15946 35.7898 2.1855 35.7874 2.19812C35.7573 2.33534 35.73 2.47455 35.7031 2.6142C35.846 2.64961 35.9893 2.68829 36.1338 2.7294C36.2152 2.66466 36.2951 2.60076 36.3765 2.53888C36.1855 2.39435 35.995 2.25836 35.8021 2.12891V2.13056V2.13013Z" fill="white"/>
<path d="M36.3783 4.94922H36.377L36.375 4.95126C36.7744 5.55706 37.1575 6.16118 37.5096 6.73114C37.5137 6.73643 37.5177 6.74213 37.5202 6.74701C37.5039 6.32525 37.4774 5.91002 37.4445 5.50208C37.0858 5.31116 36.7312 5.12673 36.3783 4.94922Z" fill="white"/>
<path d="M36.1295 2.72556C35.9854 2.68485 35.8425 2.64615 35.6976 2.61076C35.685 2.68077 35.6711 2.75042 35.659 2.81921C35.7843 2.81226 35.9101 2.80659 36.0359 2.80209C36.0677 2.77643 36.0978 2.7508 36.1295 2.72556Z" fill="white"/>
<path d="M36.375 4.94959C36.728 5.1271 37.0826 5.31153 37.4412 5.50245C37.4258 5.31638 37.4094 5.13279 37.3911 4.94959C37.0565 4.94389 36.717 4.94389 36.375 4.94959Z" fill="white"/>
<path d="M35.8177 2.98391C35.8893 2.92242 35.9618 2.86502 36.0355 2.80475C35.9101 2.80846 35.7843 2.81536 35.6585 2.8227C35.6426 2.90084 35.63 2.98025 35.6157 3.06004C35.6825 3.03438 35.7509 3.00832 35.8177 2.98391Z" fill="white"/>
<path d="M37.3924 4.9461C37.3765 4.78611 37.3582 4.6294 37.3398 4.47266C37.0207 4.62367 36.7007 4.7796 36.3779 4.94326C36.3766 4.94448 36.3766 4.9453 36.375 4.9461H36.3766C36.7182 4.9404 37.0577 4.9404 37.3924 4.9461Z" fill="white"/>
<path d="M35.6154 3.06078C35.608 3.10203 35.6003 3.14249 35.5938 3.18415C35.6681 3.11798 35.7424 3.04893 35.818 2.98438C35.751 3.0085 35.6824 3.03504 35.6154 3.06078Z" fill="white"/>
<path d="M36.375 4.94448C36.697 4.78084 37.0178 4.62448 37.3362 4.47385C37.3052 4.20925 37.271 3.9487 37.2331 3.69141C36.938 4.10176 36.6518 4.52311 36.375 4.94448Z" fill="white"/>
<path d="M36.3763 4.95126C36.3763 4.95126 36.3763 4.94965 36.3755 4.94922H36.3747C36.0225 5.12634 35.6675 5.31034 35.3101 5.50168C35.2775 5.90958 35.2511 6.32321 35.2344 6.74376C35.2368 6.74011 35.2389 6.7352 35.2425 6.73157C35.5963 6.162 35.9773 5.55704 36.3763 4.95126Z" fill="white"/>
<path d="M36.6185 2.72633C36.763 2.68477 36.9067 2.64611 37.0504 2.61152C37.0239 2.47146 36.9963 2.33102 36.9661 2.1938C36.9628 2.17957 36.9572 2.15433 36.949 2.12827V2.12625L36.9507 2.125C36.7581 2.2545 36.5659 2.39126 36.375 2.53538C36.4573 2.59767 36.5383 2.662 36.6185 2.72633Z" fill="white"/>
<path d="M35.3047 5.50086C35.6621 5.31032 36.0172 5.1255 36.3693 4.94922C36.0269 4.95328 35.6869 4.96145 35.3531 4.97119C35.3348 5.14709 35.3181 5.32296 35.3047 5.50086Z" fill="white"/>
<path d="M37.0892 2.81928C37.0758 2.74882 37.0632 2.67881 37.0485 2.61001C36.9048 2.64545 36.7607 2.68369 36.6162 2.72522C36.6487 2.7505 36.6789 2.77614 36.7098 2.80176C36.8364 2.80583 36.9622 2.81156 37.0892 2.81928Z" fill="white"/>
<path d="M36.9279 2.98382C36.9955 3.00945 37.0639 3.0351 37.1315 3.05996C37.1172 2.98222 37.1038 2.90076 37.0891 2.8226C36.9621 2.81528 36.8355 2.80839 36.7109 2.80469C36.7822 2.86495 36.8551 2.92235 36.9279 2.98382Z" fill="white"/>
<path d="M36.3669 4.94206C36.0437 4.7788 35.7236 4.62247 35.4065 4.47266C35.3866 4.63673 35.3683 4.8008 35.3516 4.9673C35.6862 4.95751 36.0245 4.94939 36.3677 4.94492L36.3685 4.9441L36.3669 4.94206Z" fill="white"/>
<path d="M35.4062 4.47612C35.7234 4.62676 36.0434 4.78268 36.3666 4.94634C36.0894 4.52497 35.8032 4.10524 35.5113 3.69531C35.4722 3.95098 35.4372 4.21231 35.4062 4.47612Z" fill="white"/>
<path d="M37.134 3.06075C37.0653 3.03545 36.9983 3.00889 36.9297 2.98438C37.0057 3.04891 37.0805 3.11916 37.1569 3.18577C37.1483 3.14451 37.1405 3.10324 37.134 3.06075Z" fill="white"/>
<path d="M36.3689 2.79406H36.382C36.4613 2.77005 36.5383 2.74808 36.6181 2.72608C36.5374 2.66052 36.4565 2.59663 36.3746 2.53516C36.294 2.59663 36.2138 2.66052 36.1328 2.72608C36.2122 2.74808 36.2903 2.77005 36.3689 2.79406Z" fill="white"/>
<path d="M36.3684 2.79536C36.289 2.77051 36.2113 2.74935 36.1315 2.72656C36.1013 2.7518 36.0696 2.77784 36.0391 2.80308C36.1478 2.7994 36.2581 2.79536 36.3684 2.79536Z" fill="white"/>
<path d="M36.3693 2.79527C36.259 2.79527 36.1487 2.79931 36.0399 2.803C35.9654 2.86325 35.893 2.92148 35.8213 2.98295C36.0066 2.91538 36.1906 2.85349 36.375 2.79688L36.3693 2.79527Z" fill="white"/>
<path d="M36.7134 2.8027C36.6816 2.77702 36.6507 2.7518 36.6189 2.72656C36.54 2.74856 36.4622 2.77012 36.3828 2.79455C36.4927 2.79455 36.6031 2.79984 36.7134 2.8027Z" fill="white"/>
<path d="M36.931 2.98435C36.8582 2.92287 36.7853 2.86547 36.714 2.80521C36.6033 2.80237 36.4934 2.79705 36.3839 2.79705C36.3806 2.79748 36.3782 2.79871 36.377 2.79908C36.5614 2.85694 36.7466 2.91718 36.931 2.98435Z" fill="white"/>
<path d="M37.1554 3.18565C37.0793 3.11889 37.0048 3.04927 36.9283 2.98494C36.7447 2.91736 36.5595 2.85467 36.3742 2.79688C36.1906 2.85467 36.0062 2.91736 35.821 2.98494C35.7453 3.04927 35.6707 3.11725 35.5966 3.18363C35.5682 3.35296 35.5409 3.52316 35.5156 3.69615C35.8079 4.10613 36.0937 4.52586 36.3718 4.94721L36.3742 4.94843L36.3791 4.94639C36.6555 4.52586 36.9421 4.1049 37.2361 3.69413C37.2108 3.52232 37.1835 3.35378 37.1554 3.18565Z" fill="white"/>
<path d="M40.6281 5.11253C41.7811 5.20454 42.8709 5.31731 43.8793 5.40442C42.9267 4.54298 41.5291 3.81466 39.9812 3.34856C39.5855 3.49713 39.1833 3.65834 38.777 3.83055C39.4508 4.20589 40.07 4.63784 40.6281 5.11253Z" fill="white"/>
<path d="M32.7638 3.34871C31.2159 3.81525 29.8196 4.54357 28.8653 5.40543C29.8656 5.3183 30.9428 5.22386 32.0831 5.14282C32.651 4.65714 33.2808 4.21422 33.968 3.83112C33.5613 3.65851 33.1615 3.49773 32.7638 3.34871Z" fill="white"/>
<path d="M34.5229 2.38416C33.0528 2.17858 31.667 2.27303 30.528 2.61136C31.2559 2.81164 32.0033 3.05878 32.7679 3.34738C33.4644 3.13815 34.1907 2.98263 34.9219 2.89062C34.7883 2.7184 34.6556 2.54863 34.5229 2.38416Z" fill="white"/>
<path d="M39.522 6.07549C39.7129 6.40077 39.8839 6.72971 40.0382 7.06191C41.4973 8.041 42.8098 9.09094 44.0018 10.136C43.5406 8.46766 42.3754 6.59456 40.6289 5.11066C40.0366 5.06383 39.4284 5.02188 38.8047 4.99219C39.0599 5.33538 39.2993 5.69646 39.522 6.07549Z" fill="white"/>
<path d="M39.9814 3.34848C40.7463 3.06025 41.4938 2.81274 42.2205 2.61245C41.0818 2.27414 39.6968 2.17887 38.2263 2.38528C38.092 2.54974 37.9593 2.71908 37.8273 2.89131C38.5573 2.98374 39.2852 3.13841 39.9814 3.34848Z" fill="white"/>
<path d="M33.919 5.03125C33.2933 5.06342 32.6827 5.10169 32.0895 5.14361C30.3617 6.62343 29.208 8.48189 28.75 10.1376C29.9412 9.09418 31.2553 8.04384 32.7136 7.06475C32.8683 6.73254 33.0389 6.40279 33.2306 6.07833C33.4435 5.71273 33.6748 5.36427 33.919 5.03125Z" fill="white"/>
<path d="M37.5687 5.56515C37.5271 5.54315 37.4864 5.52279 37.4453 5.5C37.4787 5.90832 37.5048 6.32276 37.521 6.74492C38.7949 8.79962 40.4941 12.3032 41.0482 14.3697C41.3621 12.3407 41.2253 9.61871 40.039 7.06287C39.259 6.53977 38.437 6.03493 37.5687 5.56515Z" fill="white"/>
<path d="M35.7806 2.19578C35.7831 2.18316 35.7888 2.15713 35.7945 2.1278V2.12862L35.7953 2.1278C34.8512 1.49149 33.8892 1.03591 33.0078 0.785156C33.5106 1.22076 34.0183 1.77117 34.517 2.38428C34.9053 2.43842 35.2978 2.51414 35.6956 2.61186C35.7232 2.47181 35.7505 2.33339 35.7806 2.19578Z" fill="white"/>
<path d="M36.9453 2.12782C36.9526 2.15429 36.9588 2.17872 36.9624 2.19458C36.9921 2.33178 37.0202 2.47142 37.0463 2.61146C37.444 2.51335 37.8365 2.43803 38.2244 2.38349C38.7231 1.77079 39.2304 1.22037 39.7348 0.785156C38.8534 1.03553 37.8906 1.49027 36.9469 2.12458V2.12739L36.9461 2.12782H36.9453Z" fill="white"/>
<path d="M35.1788 5.56599C34.3112 6.03577 33.4885 6.54061 32.7064 7.06371C31.5221 9.61955 31.3853 12.3415 31.7 14.3705C32.2533 12.3028 33.955 8.7976 35.2289 6.74211C35.2456 6.32156 35.2712 5.90836 35.3038 5.5C35.2622 5.522 35.2211 5.54399 35.1788 5.56599Z" fill="white"/>
<path d="M36.945 2.1248C36.783 1.38059 36.5913 0.680373 36.3714 0.0379425C36.1516 0.680365 35.9586 1.38102 35.797 2.12559C35.9884 2.25547 36.1801 2.39183 36.3694 2.53555C36.5616 2.39145 36.7521 2.25424 36.945 2.1248Z" fill="white"/>
<path d="M36.3715 4.94922C35.9726 5.555 35.5915 6.15996 35.2377 6.72953C35.2341 6.73316 35.232 6.73806 35.2296 6.74172V6.74254C35.2129 7.14272 35.2031 7.55267 35.2031 7.96385C35.2031 10.9822 35.6424 13.7456 36.3736 15.8903C37.1039 13.7456 37.5436 10.9822 37.5436 7.96385C37.5436 7.5539 37.5346 7.14924 37.5196 6.74905C37.5196 6.74905 37.5179 6.74701 37.5167 6.7454C37.5143 6.73967 37.5102 6.73439 37.5061 6.72953C37.1528 6.15996 36.7713 5.555 36.3715 4.94922Z" fill="white"/>
<path d="M34.1254 3.73985C34.4747 3.55179 34.8252 3.38406 35.1777 3.23302C35.0922 3.11782 35.0051 3.00424 34.9188 2.89062C34.188 2.98308 33.4622 3.13816 32.7656 3.34784C33.1634 3.49724 33.5631 3.65764 33.9698 3.82983C34.022 3.80094 34.0728 3.76877 34.1254 3.73985Z" fill="white"/>
<path d="M38.099 4.1281C38.344 4.40209 38.5802 4.69194 38.8053 4.99485C39.4277 5.02496 40.0368 5.06649 40.6275 5.11411C40.0702 4.63941 39.451 4.20626 38.778 3.83129C38.5529 3.92657 38.3265 4.02631 38.099 4.1281Z" fill="white"/>
<path d="M37.5703 3.23341C37.9229 3.38281 38.2742 3.55138 38.6219 3.73944C38.6744 3.76755 38.7261 3.79969 38.7794 3.8294C39.1841 3.6572 39.5872 3.4964 39.9832 3.347C39.2871 3.13775 38.56 2.9814 37.83 2.89062C37.7433 3.00301 37.6566 3.11739 37.5703 3.23341Z" fill="white"/>
<path d="M34.6499 4.12759C34.4228 4.0258 34.196 3.92525 33.9709 3.8308C33.2837 4.2143 32.6539 4.65764 32.0859 5.14332C32.6799 5.10181 33.2898 5.06315 33.9155 5.03017C34.1496 4.71463 34.3947 4.41297 34.6499 4.12759Z" fill="white"/>
<path d="M35.324 3.43222C35.2748 3.36503 35.2255 3.2995 35.177 3.23438C34.8237 3.38417 34.4727 3.55192 34.1243 3.73959C34.0718 3.7689 34.0209 3.80106 33.9688 3.8308C34.1939 3.92523 34.4198 4.02497 34.6478 4.12635C34.866 3.88208 35.092 3.65245 35.324 3.43222Z" fill="white"/>
<path d="M38.0977 4.12678C38.3252 4.02499 38.5516 3.92525 38.7767 3.82998C38.7234 3.8015 38.6717 3.76933 38.6192 3.74044C38.2719 3.55194 37.9206 3.38421 37.5676 3.23438C37.5179 3.29993 37.4711 3.36669 37.4219 3.43265C37.6531 3.6525 37.8794 3.88292 38.0977 4.12678Z" fill="white"/>
<path d="M35.6573 2.8205C35.6695 2.75126 35.6833 2.68127 35.6971 2.61247C35.2994 2.51474 34.9057 2.43905 34.5186 2.38408C34.6513 2.54855 34.7852 2.71873 34.9171 2.89054C35.1634 2.85917 35.4102 2.83678 35.6573 2.8205Z" fill="white"/>
<path d="M38.8013 4.99398C38.3384 4.97198 37.8686 4.95532 37.3906 4.94922C37.4081 5.13199 37.4256 5.31602 37.4407 5.50206C37.4818 5.52322 37.5217 5.54521 37.5641 5.56721C38.4324 6.0374 39.2535 6.5406 40.0344 7.06537C39.8801 6.73316 39.7091 6.403 39.5186 6.07731C39.2967 5.69827 39.0565 5.3384 38.8013 4.99398Z" fill="white"/>
<path d="M37.3892 4.94904C37.8679 4.95556 38.3382 4.97104 38.7998 4.99386C38.5747 4.69177 38.3394 4.40149 38.0935 4.1271C37.8415 4.23946 37.5911 4.3555 37.3367 4.47561C37.355 4.63235 37.3733 4.78907 37.3892 4.94904Z" fill="white"/>
<path d="M35.6582 2.82132C35.4111 2.8376 35.1644 2.85996 34.9181 2.89135C35.0044 3.00491 35.0919 3.11811 35.177 3.23373C35.3236 3.1718 35.4697 3.11607 35.6155 3.05946C35.6297 2.98051 35.6432 2.90029 35.6582 2.82132Z" fill="white"/>
<path d="M35.5931 3.18127C35.6013 3.13974 35.609 3.09984 35.6156 3.05831C35.4698 3.11408 35.3237 3.17109 35.1775 3.23217C35.2267 3.29851 35.2756 3.36448 35.3244 3.43125C35.4128 3.34615 35.5032 3.2635 35.5931 3.18127Z" fill="white"/>
<path d="M37.4226 3.43138C37.36 3.51807 37.2985 3.60481 37.2358 3.69194C37.274 3.94883 37.309 4.20978 37.3408 4.47482C37.5944 4.3539 37.8464 4.23706 38.0985 4.12552C37.879 3.88206 37.6539 3.6516 37.4226 3.43138Z" fill="white"/>
<path d="M35.3083 5.49842C35.3217 5.32052 35.3384 5.14465 35.3567 4.96875C34.8686 4.98546 34.3882 5.00459 33.9168 5.0282C33.6725 5.3612 33.4421 5.70889 33.2292 6.0753C33.0374 6.40015 32.8665 6.72952 32.7109 7.06213C33.493 6.53898 34.3158 6.03498 35.1833 5.56436C35.2256 5.54198 35.2667 5.52041 35.3083 5.49842Z" fill="white"/>
<path d="M37.091 2.82096C37.336 2.83643 37.5823 2.85924 37.8282 2.89015C37.9601 2.71876 38.0929 2.54777 38.2272 2.38414C37.8392 2.43867 37.4472 2.51359 37.0502 2.61169C37.0649 2.6805 37.0775 2.75051 37.091 2.82096Z" fill="white"/>
<path d="M34.6535 4.12879C34.3983 4.41419 34.1532 4.71585 33.9191 5.03137C34.3905 5.00855 34.8709 4.98904 35.3574 4.9727C35.3749 4.80745 35.3932 4.64215 35.4132 4.4781C35.1579 4.3576 34.9051 4.24157 34.6535 4.12879Z" fill="white"/>
<path d="M37.5683 3.23219C37.6546 3.11618 37.7413 3.0018 37.828 2.88941C37.5813 2.85805 37.335 2.83528 37.09 2.81979C37.1042 2.89798 37.1181 2.9794 37.1323 3.05755C37.2776 3.11332 37.4226 3.17072 37.5683 3.23219Z" fill="white"/>
<path d="M37.1556 3.18355C37.2452 3.26543 37.3347 3.34803 37.4231 3.43148C37.4715 3.36553 37.5196 3.29875 37.5688 3.23362C37.4239 3.17097 37.2777 3.11478 37.1328 3.05859C37.1401 3.10135 37.1479 3.14164 37.1556 3.18355Z" fill="white"/>
<path d="M35.5132 3.69436C35.4509 3.60643 35.3882 3.51928 35.3255 3.43215C35.0943 3.65242 34.8676 3.88283 34.6493 4.12628C34.901 4.23865 35.1533 4.35549 35.409 4.47517C35.44 4.21136 35.475 3.95124 35.5132 3.69436Z" fill="white"/>
<path d="M37.4237 3.43152C37.3354 3.34685 37.2458 3.2654 37.1562 3.18359C37.1844 3.35132 37.2116 3.52025 37.2369 3.69206C37.2996 3.60494 37.361 3.5182 37.4237 3.43152Z" fill="white"/>
<path d="M35.3281 3.43356C35.3908 3.52068 35.4535 3.6078 35.5158 3.69574C35.541 3.52313 35.5679 3.35252 35.5968 3.18359C35.506 3.26581 35.4165 3.34889 35.3281 3.43356Z" fill="white"/>
<path d="M35.8021 2.13013C35.7951 2.15946 35.7898 2.1855 35.7874 2.19812C35.7573 2.33534 35.73 2.47455 35.7031 2.6142C35.846 2.64961 35.9893 2.68829 36.1338 2.7294C36.2152 2.66466 36.2951 2.60076 36.3765 2.53888C36.1855 2.39435 35.995 2.25836 35.8021 2.12891V2.13056V2.13013Z" fill="white"/>
<path d="M36.3783 4.94922H36.377L36.375 4.95126C36.7744 5.55706 37.1575 6.16118 37.5096 6.73114C37.5137 6.73643 37.5177 6.74213 37.5202 6.74701C37.5039 6.32525 37.4774 5.91002 37.4445 5.50208C37.0858 5.31116 36.7312 5.12673 36.3783 4.94922Z" fill="white"/>
<path d="M36.1295 2.72556C35.9854 2.68485 35.8425 2.64615 35.6976 2.61076C35.685 2.68077 35.6711 2.75042 35.659 2.81921C35.7843 2.81226 35.9101 2.80659 36.0359 2.80209C36.0677 2.77643 36.0978 2.7508 36.1295 2.72556Z" fill="white"/>
<path d="M36.375 4.94959C36.728 5.1271 37.0826 5.31153 37.4412 5.50245C37.4258 5.31638 37.4094 5.13279 37.3911 4.94959C37.0565 4.94389 36.717 4.94389 36.375 4.94959Z" fill="white"/>
<path d="M35.8177 2.98391C35.8893 2.92242 35.9618 2.86502 36.0355 2.80475C35.9101 2.80846 35.7843 2.81536 35.6585 2.8227C35.6426 2.90084 35.63 2.98025 35.6157 3.06004C35.6825 3.03438 35.7509 3.00832 35.8177 2.98391Z" fill="white"/>
<path d="M37.3924 4.9461C37.3765 4.78611 37.3582 4.6294 37.3398 4.47266C37.0207 4.62367 36.7007 4.7796 36.3779 4.94326C36.3766 4.94448 36.3766 4.9453 36.375 4.9461H36.3766C36.7182 4.9404 37.0577 4.9404 37.3924 4.9461Z" fill="white"/>
<path d="M35.6154 3.06078C35.608 3.10203 35.6003 3.14249 35.5938 3.18415C35.6681 3.11798 35.7424 3.04893 35.818 2.98438C35.751 3.0085 35.6824 3.03504 35.6154 3.06078Z" fill="white"/>
<path d="M36.375 4.94448C36.697 4.78084 37.0178 4.62448 37.3362 4.47385C37.3052 4.20925 37.271 3.9487 37.2331 3.69141C36.938 4.10176 36.6518 4.52311 36.375 4.94448Z" fill="white"/>
<path d="M36.3763 4.95126C36.3763 4.95126 36.3763 4.94965 36.3755 4.94922H36.3747C36.0225 5.12634 35.6675 5.31034 35.3101 5.50168C35.2775 5.90958 35.2511 6.32321 35.2344 6.74376C35.2368 6.74011 35.2389 6.7352 35.2425 6.73157C35.5963 6.162 35.9773 5.55704 36.3763 4.95126Z" fill="white"/>
<path d="M36.6185 2.72633C36.763 2.68477 36.9067 2.64611 37.0504 2.61152C37.0239 2.47146 36.9963 2.33102 36.9661 2.1938C36.9628 2.17957 36.9572 2.15433 36.949 2.12827V2.12625L36.9507 2.125C36.7581 2.2545 36.5659 2.39126 36.375 2.53538C36.4573 2.59767 36.5383 2.662 36.6185 2.72633Z" fill="white"/>
<path d="M35.3047 5.50086C35.6621 5.31032 36.0172 5.1255 36.3693 4.94922C36.0269 4.95328 35.6869 4.96145 35.3531 4.97119C35.3348 5.14709 35.3181 5.32296 35.3047 5.50086Z" fill="white"/>
<path d="M37.0892 2.81928C37.0758 2.74882 37.0632 2.67881 37.0485 2.61001C36.9048 2.64545 36.7607 2.68369 36.6162 2.72522C36.6487 2.7505 36.6789 2.77614 36.7098 2.80176C36.8364 2.80583 36.9622 2.81156 37.0892 2.81928Z" fill="white"/>
<path d="M36.9279 2.98382C36.9955 3.00945 37.0639 3.0351 37.1315 3.05996C37.1172 2.98222 37.1038 2.90076 37.0891 2.8226C36.9621 2.81528 36.8355 2.80839 36.7109 2.80469C36.7822 2.86495 36.8551 2.92235 36.9279 2.98382Z" fill="white"/>
<path d="M36.3669 4.94206C36.0437 4.7788 35.7236 4.62247 35.4065 4.47266C35.3866 4.63673 35.3683 4.8008 35.3516 4.9673C35.6862 4.95751 36.0245 4.94939 36.3677 4.94492L36.3685 4.9441L36.3669 4.94206Z" fill="white"/>
<path d="M35.4062 4.47612C35.7234 4.62676 36.0434 4.78268 36.3666 4.94634C36.0894 4.52497 35.8032 4.10524 35.5113 3.69531C35.4722 3.95098 35.4372 4.21231 35.4062 4.47612Z" fill="white"/>
<path d="M37.134 3.06075C37.0653 3.03545 36.9983 3.00889 36.9297 2.98438C37.0057 3.04891 37.0805 3.11916 37.1569 3.18577C37.1483 3.14451 37.1405 3.10324 37.134 3.06075Z" fill="white"/>
<path d="M36.3689 2.79406H36.382C36.4613 2.77005 36.5383 2.74808 36.6181 2.72608C36.5374 2.66052 36.4565 2.59663 36.3746 2.53516C36.294 2.59663 36.2138 2.66052 36.1328 2.72608C36.2122 2.74808 36.2903 2.77005 36.3689 2.79406Z" fill="white"/>
<path d="M36.3684 2.79536C36.289 2.77051 36.2113 2.74935 36.1315 2.72656C36.1013 2.7518 36.0696 2.77784 36.0391 2.80308C36.1478 2.7994 36.2581 2.79536 36.3684 2.79536Z" fill="white"/>
<path d="M36.3693 2.79527C36.259 2.79527 36.1487 2.79931 36.0399 2.803C35.9654 2.86325 35.893 2.92148 35.8213 2.98295C36.0066 2.91538 36.1906 2.85349 36.375 2.79688L36.3693 2.79527Z" fill="white"/>
<path d="M36.7134 2.8027C36.6816 2.77702 36.6507 2.7518 36.6189 2.72656C36.54 2.74856 36.4622 2.77012 36.3828 2.79455C36.4927 2.79455 36.6031 2.79984 36.7134 2.8027Z" fill="white"/>
<path d="M36.931 2.98435C36.8582 2.92287 36.7853 2.86547 36.714 2.80521C36.6033 2.80237 36.4934 2.79705 36.3839 2.79705C36.3806 2.79748 36.3782 2.79871 36.377 2.79908C36.5614 2.85694 36.7466 2.91718 36.931 2.98435Z" fill="white"/>
<path d="M37.1554 3.18565C37.0793 3.11889 37.0048 3.04927 36.9283 2.98494C36.7447 2.91736 36.5595 2.85467 36.3742 2.79688C36.1906 2.85467 36.0062 2.91736 35.821 2.98494C35.7453 3.04927 35.6707 3.11725 35.5966 3.18363C35.5682 3.35296 35.5409 3.52316 35.5156 3.69615C35.8079 4.10613 36.0937 4.52586 36.3718 4.94721L36.3742 4.94843L36.3791 4.94639C36.6555 4.52586 36.9421 4.1049 37.2361 3.69413C37.2108 3.52232 37.1835 3.35378 37.1554 3.18565Z" fill="white"/>
<path d="M17.0525 31.9727L17.0391 31.9865V32.2096L17.0525 32.2226H17.2752L17.2882 32.2096V31.9865L17.2752 31.9727H17.0525Z" fill="white"/>
<path d="M1.47356 31.9727L1.46094 31.9865V32.2096L1.47356 32.2226H1.69706L1.71009 32.2096V31.9865L1.69706 31.9727H1.47356Z" fill="white"/>
<path d="M16.6454 31.9727L16.6328 31.9865V32.2096L16.6454 32.2226H16.8689L16.8815 32.2096V31.9865L16.8689 31.9727H16.6454Z" fill="white"/>
<path d="M1.88803 31.9727L1.875 31.9865V32.2096L1.88803 32.2226H2.10989L2.12374 32.2096V31.9865L2.10989 31.9727H1.88803Z" fill="white"/>
<path d="M18.6393 31.9727L18.625 31.9865V32.2096L18.6393 32.2226H18.8611L18.8745 32.2096V31.9865L18.8611 31.9727H18.6393Z" fill="white"/>
<path d="M23.2375 29.5899L23.2237 29.5781L23.0466 29.6253L23.036 29.6294L23.023 29.6412V31.3918L23.0462 31.4724H21.4686C21.4312 31.4475 21.3986 31.4064 21.3986 31.3657V30.8084C21.3986 30.6012 21.5142 30.4908 21.6803 30.4908H21.9234C22.0891 30.4908 22.197 30.5458 22.2295 30.5645L22.2442 30.5568L22.2519 30.5222C22.2519 30.5222 22.1933 30.2987 21.8941 30.2987H21.6714C21.395 30.2987 21.1849 30.4619 21.1849 30.762V31.2383C21.1849 31.3225 21.2081 31.4227 21.285 31.4724H20.1618V30.3463L20.148 30.3337L19.9721 30.3821L19.9477 30.3887V31.6878C19.9477 31.8888 19.8394 32.0435 19.6367 32.0435C19.5597 32.0435 19.4099 32.0322 19.3419 31.9234L19.3272 31.9194L19.2869 31.9397L19.2812 31.9548C19.3594 32.1311 19.554 32.2084 19.6949 32.2084C19.9343 32.2084 20.1394 32.1038 20.1598 31.6869H23.1101L23.2921 31.6429L23.3047 31.6271L23.2383 31.3918L23.2375 29.5899Z" fill="white"/>
<path d="M23.6873 29.6257L23.6767 29.6298L23.6641 29.6416V31.6869C23.8631 31.5754 23.8778 31.3409 23.8778 31.3409V29.5903L23.8599 29.5781L23.6873 29.6257Z" fill="white"/>
<path d="M14.7868 31.3259C14.7469 31.3493 14.6937 31.389 14.5175 31.389C14.3578 31.389 14.1849 31.3059 14.1849 31.0765V30.7042C14.1849 30.498 14.3412 30.3882 14.5075 30.3882C14.6871 30.3882 14.7868 30.4847 14.7868 30.6709V31.3259ZM19.1652 31.3924V30.345L19.1553 30.3317L18.9757 30.3781L18.9657 30.3815L18.9524 30.3948V31.3924L18.9723 31.4722H17.8717C17.7121 31.4722 17.5791 31.409 17.5791 31.1796V30.345L17.5657 30.3317L17.3895 30.3781L17.3762 30.3815L17.3662 30.3948V31.1796C17.3662 31.409 17.2365 31.4722 17.0769 31.4722H15.2889C15.1326 31.4722 14.9996 31.409 14.9996 31.1796V30.2419L14.9863 30.2286L14.81 30.2784C14.81 30.2784 14.6571 30.1953 14.5008 30.1953C14.2248 30.1953 13.9721 30.3583 13.9688 30.6576V31.113C13.9721 31.4257 14.1883 31.5819 14.4244 31.5819C14.697 31.5819 14.7835 31.4223 14.8034 31.3725C14.8533 31.5819 15.0063 31.685 15.1958 31.685H17.1667C17.2897 31.685 17.3962 31.6419 17.4726 31.552C17.5458 31.6419 17.6555 31.685 17.7819 31.685H19.0388L19.2184 31.6419L19.2317 31.6251L19.1652 31.3924Z" fill="white"/>
<path d="M14.8759 29.9492L14.8898 29.9357V29.7131L14.8759 29.6992H14.6541L14.6406 29.7131V29.9357L14.6541 29.9492H14.8759Z" fill="white"/>
<path d="M14.4627 29.9492L14.4753 29.9357V29.7131L14.4627 29.6992H14.2392L14.2266 29.7131V29.9357L14.2392 29.9492H14.4627Z" fill="white"/>
<path d="M0.658787 29.9488L0.671408 29.9345V29.7127L0.658787 29.6992H0.434448L0.421875 29.7127V29.9345L0.434448 29.9488H0.658787Z" fill="white"/>
<path d="M1.06465 29.9488L1.07689 29.9345V29.7127L1.06465 29.6992H0.840746L0.828125 29.7127V29.9345L0.840746 29.9488H1.06465Z" fill="white"/>
<path d="M5.37718 31.4337C5.34064 31.4536 5.28739 31.4934 5.11123 31.4934C4.95161 31.4934 4.77869 31.4103 4.77869 31.1809V30.8084C4.77869 30.6024 4.93497 30.4926 5.10123 30.4926C5.28074 30.4926 5.37718 30.589 5.37718 30.7753V31.4337ZM12.3538 31.3937V29.5915L12.3372 29.5781L12.1609 29.6247L12.1509 29.6312L12.1376 29.6413V31.3937L12.1609 31.4734H11.579C11.4327 31.4734 11.2863 31.4436 11.2232 31.4204C11.2431 31.3637 11.2531 31.2973 11.2531 31.2241V30.5059H11.2465L11.2265 30.4926L11.0569 30.5392L11.0436 30.5425L11.037 30.5491V31.1809C11.037 31.4103 10.9073 31.4934 10.7543 31.4934C10.6945 31.4934 10.5382 31.4502 10.475 31.4337C10.4916 31.377 10.505 31.3173 10.505 31.244V30.5025L10.4883 30.4892L10.3154 30.5358L10.3021 30.5392L10.2922 30.5525H10.2888V31.1809C10.2888 31.4103 10.1824 31.4934 10.0295 31.4934C9.97289 31.4934 9.80994 31.4468 9.75677 31.4337V30.5025L9.74013 30.4892L9.56719 30.5358L9.55721 30.5392L9.54399 30.5525V31.377L9.51736 31.4734H7.60968C7.57307 31.4468 7.53987 31.407 7.53987 31.3671V30.8084C7.53987 30.6024 7.65295 30.4926 7.82248 30.4926H8.06521C8.22822 30.4926 8.33789 30.5457 8.37119 30.5657L8.38451 30.5557L8.39109 30.5225C8.39109 30.5225 8.33123 30.2997 8.03533 30.2997H7.81258C7.53655 30.2997 7.327 30.4626 7.327 30.762V31.2374C7.327 31.3239 7.35032 31.4236 7.42679 31.4734H5.74965C5.65321 31.4734 5.61667 31.4601 5.59337 31.4337V30.3463L5.58005 30.333L5.40379 30.3828C5.40379 30.3828 5.25085 30.2997 5.0946 30.2997C4.81855 30.2997 4.5625 30.4626 4.5625 30.762V31.2176C4.5625 31.53 4.78193 31.6863 5.02144 31.6863C5.28739 31.6863 5.37052 31.5267 5.3905 31.4769L5.37718 31.5965V31.6863C5.37718 31.8891 5.27083 32.0455 5.06462 32.0455C4.99149 32.0455 4.83852 32.0322 4.77203 31.9258L4.75871 31.9191L4.71546 31.9391L4.71212 31.9557C4.78859 32.132 4.98483 32.2083 5.12445 32.2083C5.37052 32.2083 5.5834 32.0987 5.59337 31.653C5.64321 31.673 5.70638 31.6863 5.77954 31.6863H9.65366L9.66698 31.6764L9.74345 31.4702C9.75343 31.5067 9.83324 31.6863 10.1193 31.6863C10.2722 31.6863 10.3885 31.6199 10.4518 31.4902C10.4816 31.5433 10.5848 31.6863 10.8441 31.6863C10.9971 31.6863 11.1235 31.6199 11.1933 31.4868C11.2365 31.56 11.3396 31.6863 11.5657 31.6863H12.2241L12.407 31.6431L12.4203 31.6264L12.3538 31.3937Z" fill="white"/>
<path d="M0.971005 31.3293C0.934392 31.3493 0.877875 31.389 0.70164 31.389C0.545357 31.389 0.369098 31.3059 0.369098 31.0765V30.7042C0.369098 30.498 0.528722 30.3882 0.694981 30.3882C0.874558 30.3882 0.971005 30.4847 0.971005 30.6709V31.3293ZM2.42966 31.3924L2.43298 30.345L2.41635 30.3317L2.24343 30.3782L2.23011 30.3815L2.21679 30.3949V31.3924L2.24011 31.4722H1.47312C1.31684 31.4722 1.1838 31.409 1.1838 31.1796V30.2419L1.17046 30.2286L0.994227 30.2784C0.994227 30.2784 0.844604 30.1953 0.685004 30.1953C0.409052 30.1953 0.15625 30.3583 0.15625 30.6576V31.113C0.15625 31.4257 0.375781 31.5819 0.611851 31.5819C0.881217 31.5819 0.967688 31.4223 0.990982 31.3725C1.04082 31.5787 1.19044 31.685 1.38333 31.685H2.30324L2.48616 31.6419L2.49613 31.6251L2.42966 31.3924Z" fill="white"/>
<path d="M4.08279 30.7614C4.08279 30.4605 3.87068 30.2969 3.59468 30.2969H3.37239C3.07439 30.2969 3.01535 30.5208 3.01535 30.5208L3.0235 30.5554L3.03735 30.5627C3.0691 30.5444 3.17779 30.4906 3.34267 30.4906H3.58651C3.75222 30.4906 3.86744 30.6002 3.86744 30.8062V31.3908L3.89064 31.471H3.18757C3.00845 31.471 2.83743 31.4286 2.79959 31.4091L2.78125 31.4506C2.80243 31.4986 2.90054 31.6806 3.16353 31.6855V31.6859H3.95333L4.13611 31.642L4.14954 31.6265L4.08279 31.3908V30.7614Z" fill="white"/>
<path d="M12.7983 29.6245L12.7865 29.6286L12.7734 29.6404V31.6857C12.9725 31.5742 12.9892 31.3397 12.9892 31.3397V29.5891L12.9701 29.5781L12.7983 29.6245Z" fill="white"/>
<path d="M25.3611 29.9488L25.3737 29.9353V29.7131L25.3611 29.6992H25.1392L25.125 29.7131V29.9353L25.1392 29.9488H25.3611Z" fill="white"/>
<path d="M25.7674 29.9488L25.7812 29.9353V29.7131L25.7674 29.6992H25.5451L25.5312 29.7131V29.9353L25.5451 29.9488H25.7674Z" fill="white"/>
<path d="M36.3599 29.5781L36.1885 29.6245L36.1767 29.6282L36.1641 29.64V31.6861C36.3636 31.575 36.3794 31.3397 36.3794 31.3397V29.5891L36.3599 29.5781Z" fill="white"/>
<path d="M34.5168 31.4536C34.5168 31.6597 34.4037 31.7694 34.2176 31.7694C34.0247 31.7694 33.9149 31.6597 33.9149 31.4536V31.1576C33.9149 30.948 34.0247 30.8417 34.2176 30.8417C34.4037 30.8417 34.5168 30.948 34.5168 31.1576V31.4536ZM32.6679 31.4536C32.6679 31.6597 32.555 31.7694 32.3687 31.7694C32.1758 31.7694 32.0661 31.6597 32.0661 31.4536V31.1576C32.0661 30.948 32.1758 30.8417 32.3687 30.8417C32.555 30.8417 32.6679 30.948 32.6679 31.1576V31.4536ZM25.6741 31.3306C25.6375 31.3506 25.5843 31.3903 25.4048 31.3903C25.2484 31.3903 25.0755 31.3072 25.0755 31.0777V30.7055C25.0755 30.4993 25.2319 30.3895 25.3981 30.3895C25.5777 30.3895 25.6741 30.4859 25.6741 30.6722V31.3306ZM35.7438 31.3937V29.5915L35.7305 29.5781L35.5543 29.6247L35.5443 29.628L35.531 29.6413V31.3937L35.5543 31.4734H34.7296V31.1143C34.7296 30.8118 34.5102 30.6488 34.2176 30.6488C33.9216 30.6488 33.7021 30.8118 33.7021 31.1143V31.4734H32.8841V31.1143C32.8841 30.8118 32.6646 30.6488 32.3687 30.6488C32.0727 30.6488 31.8566 30.8118 31.8566 31.1143V31.4734H30.8328C30.6766 31.4734 30.5435 31.4103 30.5435 31.1809V29.5915L30.5335 29.5781L30.3539 29.6247L30.344 29.628L30.3307 29.6413V31.1809C30.3307 31.4103 30.1976 31.4734 30.0414 31.4734H29.2766C29.3531 31.4236 29.3797 31.3239 29.3797 31.2374V30.9415C29.3797 30.6421 29.1669 30.4793 28.8908 30.4793H27.8966C27.7237 30.4793 27.6472 30.3994 27.6472 30.2132V30.0969C27.6505 29.9206 27.727 29.8508 27.8966 29.8508L28.0429 29.8475C28.2058 29.8475 28.3156 29.904 28.3455 29.9206L28.3622 29.9139L28.3687 29.8806C28.3687 29.8806 28.3089 29.6546 28.013 29.6546H27.8966C27.6306 29.6546 27.4344 29.8043 27.4344 30.0735V30.2531C27.4344 30.5225 27.6306 30.6722 27.8966 30.6722H28.8842C29.0504 30.6722 29.1635 30.7818 29.1635 30.988V31.3671C29.1635 31.407 29.1303 31.4468 29.0937 31.4734H26.1795C26.0199 31.4734 25.8902 31.4103 25.8902 31.1809V30.8084H25.8869V30.2432L25.8736 30.2299L25.6974 30.2797C25.6974 30.2797 25.5477 30.1966 25.3882 30.1966C25.1121 30.1966 24.8594 30.3596 24.8594 30.6589V31.1143C24.8594 31.427 25.0789 31.5832 25.315 31.5832C25.5843 31.5832 25.6707 31.4236 25.6907 31.3738L25.694 31.377C25.744 31.58 25.8969 31.6863 26.0864 31.6863H30.1311C30.2576 31.6863 30.3639 31.6431 30.4371 31.5566C30.5103 31.6431 30.6199 31.6863 30.7431 31.6863H31.8899C31.963 31.8659 32.1425 31.9623 32.3687 31.9623C32.5948 31.9623 32.7744 31.8659 32.8475 31.6863H33.7354C33.8118 31.8659 33.9914 31.9623 34.2176 31.9623C34.4403 31.9623 34.6233 31.8659 34.6964 31.6863H35.6175L35.8003 31.6431L35.8136 31.6264L35.7438 31.3937Z" fill="white"/>
<path d="M33.4759 17.3086L33.4531 17.3305V17.7124L33.4759 17.7352H33.8574L33.8806 17.7124V17.3305L33.8574 17.3086H33.4759Z" fill="white"/>
<path d="M33.5223 18.2002L33.4807 18.2112V20.4414C33.4807 20.7866 33.2939 21.052 32.9458 21.052C32.8155 21.052 32.557 21.0349 32.4377 20.8472L32.4145 20.8391L32.3469 20.8729L32.3359 20.8989C32.4703 21.2022 32.7129 21.3345 32.9544 21.3345C33.3814 21.3345 33.8483 21.1412 33.8483 20.3481V18.1408L33.8252 18.1172L33.5223 18.2002Z" fill="white"/>
<path d="M29.1328 17.7361L29.1544 17.7133V17.331L29.1328 17.3086H28.7506L28.7266 17.331V17.7133L28.7506 17.7361H29.1328Z" fill="white"/>
<path d="M28.4273 17.7361L28.4513 17.7133V17.331L28.4273 17.3086H28.0458L28.0234 17.331V17.7133L28.0458 17.7361H28.4273Z" fill="white"/>
<path d="M28.0723 18.9298C28.0723 18.5773 28.2551 18.3911 28.5876 18.3911C28.9101 18.3911 29.1031 18.5773 29.1031 18.9298V19.5683C29.1031 19.924 28.9101 20.1103 28.5876 20.1103C28.2551 20.1103 28.0723 19.924 28.0723 19.5683V18.9298ZM28.5876 20.4428C29.0931 20.4428 29.4689 20.1635 29.4689 19.6481V18.8566C29.4689 18.3413 29.0931 18.0586 28.5876 18.0586C28.0822 18.0586 27.7031 18.3413 27.7031 18.8566V19.6481C27.7031 20.1635 28.0822 20.4428 28.5876 20.4428Z" fill="white"/>
<path d="M32.2356 19.849V16.8454L32.2047 16.8242L31.9087 16.9056L31.8888 16.9105L31.8672 16.9329V20.4438C32.2083 20.2512 32.2356 19.849 32.2356 19.849Z" fill="white"/>
<path d="M29.4453 20.8994C29.5796 21.2027 29.8231 21.3358 30.0637 21.3358C30.4908 21.3358 30.9569 21.1412 30.9569 20.3486V18.1404L30.9345 18.1172L30.6308 18.2003L30.5909 18.2116V20.441C30.5909 20.787 30.4024 21.0528 30.0552 21.0528C29.9241 21.0528 29.6668 21.035 29.5475 20.8477L29.5243 20.8391L29.4555 20.8733L29.4453 20.8994Z" fill="white"/>
<path d="M19.0716 16.8454L19.0406 16.8242L18.7447 16.9056L18.7247 16.9105L18.7031 16.9329V20.4438C19.0443 20.2513 19.0716 19.849 19.0716 19.849V16.8454Z" fill="white"/>
<path d="M16.3834 20.8477L16.3602 20.8391L16.2914 20.8733L16.2812 20.8994C16.4156 21.2027 16.659 21.3358 16.8996 21.3358C17.3267 21.3358 17.7928 21.1412 17.7928 20.3486V18.1404L17.7704 18.1172L17.4667 18.2003L17.4268 18.2117V20.441C17.4268 20.787 17.2383 21.0528 16.8911 21.0528C16.76 21.0528 16.5027 21.035 16.3834 20.8477Z" fill="white"/>
<path d="M36.0171 20.0072C35.9539 20.0405 35.8608 20.1103 35.5582 20.1103C35.2856 20.1103 34.9896 19.9706 34.9896 19.5749V18.9331C34.9896 18.5808 35.259 18.3911 35.5416 18.3911C35.8542 18.3911 36.0171 18.5574 36.0171 18.88V20.0072ZM36.363 18.1217L36.057 18.2049C36.057 18.2049 35.8009 18.0586 35.5283 18.0586C35.0561 18.0586 34.6205 18.3413 34.6172 18.8566V19.6381C34.6205 20.1734 34.9962 20.4428 35.4019 20.4428C35.8642 20.4428 36.0038 20.1668 36.0404 20.0836L36.0171 20.2866V20.4428C36.0171 20.7886 35.8309 21.0546 35.4817 21.0546C35.3521 21.0546 35.096 21.038 34.9762 20.8518L34.953 20.8419L34.8832 20.8752L34.8732 20.9016C35.0062 21.2043 35.249 21.3373 35.4917 21.3373C35.9206 21.3373 36.3862 21.1446 36.3862 20.353V18.145L36.363 18.1217Z" fill="white"/>
<path d="M21.1812 20.0065C21.118 20.0398 21.0249 20.1096 20.7222 20.1096C20.4496 20.1096 20.1536 19.9699 20.1536 19.5742V18.9324C20.1536 18.5801 20.423 18.3904 20.7057 18.3904C21.0182 18.3904 21.1812 18.5567 21.1812 18.8793V20.0065ZM22.6694 19.5233C22.6694 19.1676 22.8523 18.9846 23.1849 18.9846C23.5074 18.9846 23.7002 19.1676 23.7002 19.5233V20.032C23.7002 20.3845 23.5074 20.574 23.1849 20.574C22.8523 20.574 22.6694 20.3845 22.6694 20.032V19.5233ZM21.5482 20.4378H22.3635C22.4899 20.7437 22.7991 20.9065 23.1849 20.9065C23.5672 20.9065 23.8765 20.7437 24.0062 20.4378L24.0874 20.4383L24.0873 20.4392L24.3793 20.4402L24.6774 20.4421L24.6778 20.4412L24.9428 20.4421L25.2554 20.369L25.2787 20.3424L25.1656 19.9366L25.1623 16.8442L25.139 16.8242L24.8364 16.9041L24.8165 16.9106L24.7965 16.9306V19.9366L24.833 20.0763L24.0694 20.072V19.4501C24.0694 18.9313 23.6903 18.6521 23.1849 18.6521C22.6794 18.6521 22.3003 18.9313 22.3003 19.4501V20.072H21.5503V18.1443L21.527 18.121L21.221 18.2042C21.221 18.2042 20.965 18.0579 20.6924 18.0579C20.2202 18.0579 19.7846 18.3406 19.7812 18.8559V19.6374C19.7846 20.1727 20.1603 20.4421 20.566 20.4421C21.0282 20.4421 21.1679 20.1661 21.2045 20.0829L21.1812 20.2859V20.4421C21.1812 20.7879 20.9949 21.0539 20.6458 21.0539C20.5161 21.0539 20.2601 21.0373 20.1403 20.8511L20.1171 20.8412L20.0473 20.8745L20.0373 20.9009C20.1703 21.2036 20.413 21.3366 20.6558 21.3366C21.0688 21.3366 21.5156 21.1576 21.5482 20.4378Z" fill="white"/>
<path d="M26.2512 19.849V16.8454L26.2191 16.8242L25.9243 16.9056L25.9052 16.9105L25.8828 16.9329V20.4438C26.2231 20.2512 26.2512 19.849 26.2512 19.849Z" fill="white"/>
<path d="M36.0171 26.4531C35.9539 26.4897 35.8608 26.5597 35.5582 26.5597C35.2856 26.5597 34.9896 26.4166 34.9896 26.0209V25.3825C34.9896 25.0266 35.259 24.8403 35.5416 24.8403C35.8542 24.8403 36.0171 25.0066 36.0171 25.3258V26.4531ZM36.057 24.6508C36.057 24.6508 35.8009 24.5078 35.5283 24.5078C35.0561 24.5078 34.6205 24.7873 34.6172 25.3026V26.0873C34.6205 26.6194 34.9962 26.8922 35.4019 26.8922C35.8642 26.8922 36.0038 26.6128 36.0404 26.533L36.0171 26.7358V26.8922C36.0171 27.2379 35.8309 27.504 35.4817 27.504C35.3521 27.504 35.096 27.4873 34.9762 27.2978L34.953 27.2877L34.8832 27.3244L34.8732 27.351C35.0062 27.6535 35.249 27.7865 35.4917 27.7865C35.9206 27.7865 36.3862 27.5904 36.3862 26.799V24.5909L36.363 24.5677L36.057 24.6508Z" fill="white"/>
<path d="M1.10938 23.5423V23.9213L1.13216 23.9437H1.5112L1.53399 23.9213V23.5423L1.5112 23.5195H1.13216L1.10938 23.5423Z" fill="white"/>
<path d="M0.483727 23.5195L0.460938 23.5423V23.9213L0.483727 23.9437H0.862353L0.885143 23.9213V23.5423L0.862353 23.5195H0.483727Z" fill="white"/>
<path d="M2.5625 20.8158V21.1948L2.58529 21.2172H2.96432L2.98711 21.1948V20.8158L2.96432 20.793H2.58529L2.5625 20.8158Z" fill="white"/>
<path d="M1.91406 20.8158V21.1948L1.93685 21.2172H2.31545L2.33827 21.1948V20.8158L2.31545 20.793H1.93685L1.91406 20.8158Z" fill="white"/>
<path d="M1.47312 26.3271C1.44983 26.3337 1.41988 26.3436 1.37999 26.3537C1.33675 26.367 1.29355 26.3769 1.25027 26.3902C1.20376 26.4001 1.15724 26.4102 1.11729 26.4201C1.07411 26.4267 1.04082 26.4334 1.01752 26.4334C0.947711 26.4334 0.884558 26.4235 0.824699 26.4035C0.768134 26.3868 0.714958 26.3569 0.668345 26.3137C0.625169 26.2705 0.588557 26.2173 0.561993 26.1475C0.535381 26.0777 0.522063 25.9945 0.522063 25.8981V25.2629C0.522063 25.0867 0.565238 24.9538 0.655027 24.864C0.744839 24.7708 0.86124 24.7242 1.0042 24.7242C1.31684 24.7242 1.47312 24.8872 1.47312 25.2097V26.3271ZM6.85858 26.3137C6.80872 26.3303 6.75547 26.3436 6.70561 26.3569C6.65244 26.3702 6.61251 26.3769 6.58263 26.3769H6.06053C5.89761 26.3769 5.77121 26.3303 5.68142 26.2405C5.59495 26.1507 5.55175 26.0145 5.55175 25.8382V25.2597C5.55175 25.0833 5.59495 24.9503 5.68142 24.8606C5.77121 24.7708 5.89761 24.7242 6.06053 24.7242C6.22016 24.7242 6.34314 24.7675 6.43293 24.8573C6.5194 24.9404 6.56599 25.07 6.57255 25.2363L6.59253 25.2597H6.91514L6.93837 25.2363V25.1864C6.93837 25.0601 6.91514 24.9437 6.8719 24.8472C6.8286 24.7475 6.76879 24.6644 6.68898 24.6013C6.61251 24.5347 6.5194 24.4848 6.40971 24.4483C6.30329 24.415 6.18686 24.3984 6.06053 24.3984C5.93747 24.3984 5.82112 24.415 5.71138 24.4483C5.60495 24.4848 5.51182 24.5347 5.43535 24.6013C5.35554 24.6644 5.29571 24.7475 5.25253 24.8472C5.20592 24.9437 5.18594 25.0601 5.18594 25.1864V25.918C5.18594 26.0976 5.23255 26.2538 5.32234 26.3769H4.12853V24.4483L4.10523 24.4283L3.78601 24.4748L3.7594 24.5014V26.3769H1.83884V24.4782L1.81564 24.455L1.51298 24.5381C1.45981 24.5147 1.40987 24.4915 1.35338 24.4715C1.30352 24.4515 1.25027 24.435 1.18378 24.4183C1.12063 24.405 1.05413 24.3984 0.987568 24.3984C0.871216 24.3984 0.761451 24.415 0.65844 24.4483C0.558675 24.4848 0.472204 24.5347 0.398979 24.6013C0.322509 24.6644 0.266015 24.7475 0.222816 24.8472C0.179545 24.9437 0.15625 25.0601 0.15625 25.1864V25.9612C0.15625 26.2274 0.226134 26.4267 0.359121 26.5599C0.492181 26.6929 0.65844 26.7593 0.86124 26.7593C0.974323 26.7593 1.07411 26.746 1.15058 26.7161C1.22705 26.6894 1.29023 26.6562 1.33675 26.613C1.38665 26.5764 1.41988 26.5365 1.44649 26.4966C1.46978 26.4566 1.48635 26.4267 1.493 26.4035L1.47312 26.6462V26.7494H6.44957C6.54936 26.7494 6.6358 26.7361 6.70561 26.7128C6.77877 26.6862 6.8386 26.6562 6.88853 26.6196C6.93837 26.5831 6.97498 26.5432 7.00154 26.5C7.02816 26.4534 7.05147 26.3702 7.06479 26.3271L7.04813 26.2506C6.98166 26.2738 6.91841 26.2972 6.85858 26.3137Z" fill="white"/>
<path d="M11.8583 23.5195L11.8359 23.5419V23.9205L11.8583 23.9437H12.2374L12.2598 23.9205V23.5419L12.2374 23.5195H11.8583Z" fill="white"/>
<path d="M12.894 23.9437L12.9172 23.9205V23.5419L12.894 23.5195H12.5154L12.4922 23.5419V23.9205L12.5154 23.9437H12.894Z" fill="white"/>
<path d="M7.63579 17.932L7.65817 17.9088V17.5302L7.63579 17.5078H7.25676L7.23438 17.5302V17.9088L7.25676 17.932H7.63579Z" fill="white"/>
<path d="M7.88281 17.5302V17.9088L7.90601 17.932H8.28461L8.30784 17.9088V17.5302L8.28461 17.5078H7.90601L7.88281 17.5302Z" fill="white"/>
<path d="M7.95649 17.2484L7.97969 17.2252V16.8466L7.95649 16.8242H7.57789L7.55469 16.8466V17.2252L7.57789 17.2484H7.95649Z" fill="white"/>
<path d="M14.2576 27.332L14.2344 27.3548V27.7331L14.2576 27.7562H14.637L14.6594 27.7331V27.3548L14.637 27.332H14.2576Z" fill="white"/>
<path d="M10.2073 26.3451C10.2073 26.6976 10.0111 26.8871 9.69192 26.8871C9.35938 26.8871 9.17649 26.6976 9.17649 26.3451V25.8364C9.17649 25.4807 9.35938 25.2977 9.69192 25.2977C10.0111 25.2977 10.2073 25.4807 10.2073 25.8364V26.3451ZM15.4248 25.1913C15.4248 25.065 15.4048 24.9518 15.3616 24.8521C15.315 24.7557 15.2552 24.6726 15.1787 24.606C15.0989 24.5396 15.0058 24.4895 14.8993 24.4565C14.7896 24.4197 14.6732 24.4032 14.5502 24.4032H14.2144C14.1113 24.4032 14.0215 24.4165 13.9484 24.4397C13.8752 24.4629 13.8154 24.4962 13.7654 24.5295C13.7156 24.5662 13.6723 24.606 13.6424 24.6526C13.6125 24.6958 13.5925 24.739 13.5792 24.7823L13.5992 24.8588C13.6657 24.8354 13.7256 24.8156 13.7854 24.7954C13.8353 24.7823 13.8885 24.7656 13.9384 24.7523C13.9883 24.739 14.0315 24.7325 14.0648 24.7325H14.5502C14.7132 24.7325 14.8395 24.7757 14.9293 24.8654C15.0157 24.9552 15.0624 25.0882 15.0624 25.2678V26.3651L15.0656 26.385H12.5551V24.453L12.5351 24.4365L12.2159 24.4796L12.1926 24.5095V26.385H10.5731V25.7632C10.5731 25.2444 10.1974 24.9651 9.69192 24.9651C9.18315 24.9651 8.80743 25.2444 8.80743 25.7632V26.385H8.22882C8.07588 26.3818 8.00265 26.3352 7.91286 26.2454C7.82307 26.1556 7.77988 26.0226 7.77988 25.8463V23.153L7.75658 23.1328L7.43736 23.1794L7.41406 23.2061V25.9627C7.41406 26.0891 7.43404 26.2022 7.48063 26.3019C7.52383 26.4016 7.58366 26.4847 7.66347 26.548C7.73995 26.6145 7.83305 26.6643 7.9395 26.701C8.04924 26.7341 8.11239 26.7508 8.23872 26.7508H8.87058C8.99689 27.0567 9.30621 27.2196 9.69192 27.2196C10.0743 27.2196 10.3836 27.0567 10.5099 26.7508H15.2418L15.5179 26.7109L15.5412 26.6843L15.4248 26.2819V25.1913Z" fill="white"/>
<path d="M17.825 23.1784L17.8026 23.2057V25.8405C17.8026 26.0172 17.7578 26.1511 17.6678 26.2423C17.5779 26.3335 17.452 26.3787 17.2913 26.3787H17.1369L17.095 26.2374V23.1511L17.0718 23.1328L16.7531 23.1784L16.7303 23.2057V26.3603L16.7388 26.3787H16.3899C16.3565 26.3787 16.315 26.3722 16.2641 26.3583C16.214 26.3449 16.1632 26.3302 16.1118 26.3152C16.0536 26.2964 15.9914 26.2757 15.9242 26.2512L15.9062 26.3282C15.9181 26.3714 15.9388 26.4556 15.9682 26.498C15.997 26.5407 16.0357 26.5798 16.0846 26.6168C16.133 26.6531 16.1924 26.6836 16.2641 26.708C16.3357 26.732 16.42 26.7463 16.5177 26.7492H17.2913C17.4162 26.7492 17.5326 26.7317 17.6405 26.6967C17.7484 26.6616 17.8416 26.6116 17.9186 26.5456C17.9967 26.4804 18.057 26.3982 18.1018 26.2993C18.1453 26.2008 18.1677 26.0868 18.1677 25.9594V23.1511L18.1445 23.1328L17.825 23.1784Z" fill="white"/>
<path d="M18.913 23.1784L18.8906 23.2057V26.6848L18.9089 26.7072H19.233L19.2558 26.6848V23.1511L19.233 23.1328L18.913 23.1784Z" fill="white"/>
<path d="M21 23.5423V23.9213L21.0232 23.9437H21.4018L21.4242 23.9213V23.5423L21.4018 23.5195H21.0232L21 23.5423Z" fill="white"/>
<path d="M21.6562 23.5423V23.9213L21.6794 23.9437H22.0576L22.0809 23.9213V23.5423L22.0576 23.5195H21.6794L21.6562 23.5423Z" fill="white"/>
<path d="M24.1005 27.332L24.0781 27.3548V27.7331L24.1005 27.7562H24.4791L24.5027 27.7331V27.3548L24.4791 27.332H24.1005Z" fill="white"/>
<path d="M24.7576 27.332L24.7344 27.3548V27.7331L24.7576 27.7562H25.137L25.159 27.7331V27.3548L25.137 27.332H24.7576Z" fill="white"/>
<path d="M3.42906 27.332L3.40625 27.3548V27.7331L3.42906 27.7562H3.80767L3.83048 27.7331V27.3548L3.80767 27.332H3.42906Z" fill="white"/>
<path d="M4.07709 27.332L4.05469 27.3548V27.7331L4.07709 27.7562H4.45569L4.47851 27.7331V27.3548L4.45569 27.332H4.07709Z" fill="white"/>
<path d="M29.4766 23.5423V23.9213L29.4998 23.9437H29.8796L29.9012 23.9213V23.5423L29.8796 23.5195H29.4998L29.4766 23.5423Z" fill="white"/>
<path d="M30.5938 23.5419V23.9205L30.6157 23.9437H30.9943L31.0175 23.9205V23.5419L30.9943 23.5195H30.6157L30.5938 23.5419Z" fill="white"/>
<path d="M31.6436 23.9437L31.6668 23.9205V23.5419L31.6436 23.5195H31.265L31.2422 23.5419V23.9205L31.265 23.9437H31.6436Z" fill="white"/>
<path d="M33.5177 23.2138L33.4985 23.2187L33.4766 23.2411V26.752C33.8177 26.5591 33.845 26.1576 33.845 26.1576V23.1536L33.8124 23.1328L33.5177 23.2138Z" fill="white"/>
<path d="M27.2728 26.3451C27.2728 26.6976 27.08 26.8871 26.7575 26.8871C26.4249 26.8871 26.2421 26.6976 26.2421 26.3451V25.8364C26.2421 25.4807 26.4249 25.2977 26.7575 25.2977C27.08 25.2977 27.2728 25.4807 27.2728 25.8364V26.3451ZM22.0199 26.3285C21.9966 26.3352 21.9668 26.3451 21.9235 26.3552C21.8836 26.3685 21.8403 26.3784 21.7938 26.3917C21.7472 26.4016 21.704 26.4117 21.6608 26.4216C21.6176 26.4282 21.5843 26.4349 21.561 26.4349C21.4945 26.4349 21.4313 26.425 21.3715 26.405C21.3116 26.3883 21.2584 26.3584 21.2151 26.3152C21.1686 26.272 21.132 26.2188 21.1055 26.149C21.0822 26.0791 21.0689 25.996 21.0689 25.8995V25.2644C21.0689 25.0882 21.1121 24.9552 21.2019 24.8654C21.2884 24.7723 21.4047 24.7256 21.5477 24.7256C21.8603 24.7256 22.0199 24.8887 22.0199 25.2111V26.3285ZM32.7541 23.153L32.7308 23.1328L32.4282 23.2127L32.4083 23.2194L32.3884 23.2426V26.2454L32.4282 26.385H31.3143V24.453L31.2944 24.4331L30.9717 24.4796L30.9519 24.5063V26.385H29.8745V24.453L29.8512 24.4331L29.532 24.4796L29.5087 24.5063V26.385H27.642V25.7632C27.642 25.2444 27.2629 24.9651 26.7575 24.9651C26.252 24.9651 25.8729 25.2444 25.8729 25.7632V26.385H24.8055V24.453L24.7823 24.4365L24.463 24.4796L24.4398 24.5095V26.385H22.3824V24.4863L22.3591 24.4629L22.0598 24.5428C22.0066 24.5196 21.9534 24.4962 21.9002 24.4762C21.8503 24.4565 21.7938 24.4397 21.7306 24.4264C21.6674 24.4098 21.6009 24.4032 21.5344 24.4032C21.4147 24.4032 21.3049 24.4197 21.2052 24.4565C21.1055 24.4895 21.019 24.5396 20.9425 24.606C20.8661 24.6726 20.8096 24.7523 20.7663 24.8521C20.723 24.9518 20.7031 25.065 20.7031 25.1913V25.9694C20.7031 26.2321 20.7696 26.4316 20.9026 26.5646C21.039 26.701 21.2052 26.7674 21.408 26.7674C21.5211 26.7674 21.6176 26.7541 21.6974 26.7242C21.7739 26.6943 21.837 26.6611 21.8836 26.6211C21.9301 26.5812 21.9668 26.5412 21.99 26.5015C22.0133 26.4649 22.0299 26.4349 22.0399 26.4149L22.0166 26.6112V26.7508H25.9361C26.0624 27.0567 26.3717 27.2196 26.7575 27.2196C27.1398 27.2196 27.4492 27.0567 27.5788 26.7508H32.5347L32.8473 26.6776L32.8706 26.651L32.7574 26.2454L32.7541 23.153Z" fill="white"/>
<path d="M15.0129 20.4344V20.4351H16.3308L16.6359 20.3618L16.6583 20.3359L16.5469 19.9426V18.8923C16.5469 18.3903 16.1929 18.1172 15.7324 18.1172H15.3614C14.8642 18.1172 14.7656 18.4908 14.7656 18.4908L14.7792 18.5486L14.8023 18.5608C14.8553 18.5302 15.0367 18.4406 15.3119 18.4406H15.7188C15.9953 18.4406 16.1875 18.6233 16.1875 18.9671V19.9426L16.2263 20.0764H15.053C14.7541 20.0764 14.4688 20.0058 14.4056 19.9732L14.375 20.0425C14.4103 20.1226 14.5741 20.4263 15.0129 20.4344Z" fill="white"/>
<path d="M10.2812 20.9286V21.3073L10.304 21.3305H10.6826L10.7059 21.3073V20.9286L10.6826 20.9062H10.304L10.2812 20.9286Z" fill="white"/>
<path d="M13.259 19.849V16.845L13.2265 16.8242L12.9317 16.9052L12.9126 16.9101L12.8906 16.9325V20.4434C13.2318 20.2504 13.259 19.849 13.259 19.849Z" fill="white"/>
<path d="M7.8756 20.1149C7.92484 20.2024 8.0948 20.4382 8.5223 20.4382C8.7744 20.4382 8.98275 20.3287 9.09783 20.1093C9.16901 20.23 9.33895 20.4382 9.71162 20.4382H9.71188L9.71162 20.4422H11.9501L12.2627 20.369L12.286 20.3424L12.1729 19.9368L12.1696 16.8443L12.1462 16.8242L11.8437 16.9041L11.8237 16.9108L11.8038 16.934V19.9368L11.8437 20.0764H10.7298V18.1444L10.7098 18.1245L10.3872 18.171L10.3673 18.1977V20.0764L9.73356 20.0873C9.49245 20.0873 9.25118 20.0381 9.14707 19.9998C9.18 19.9064 9.19644 19.7969 9.19644 19.6763V18.4926H9.18548L9.15257 18.4707L8.87304 18.5474L8.85109 18.5528L8.84013 18.5638V19.6051C8.84013 19.9832 8.62641 20.1203 8.37431 20.1203C8.2757 20.1203 8.01797 20.0491 7.91388 20.0218C7.94131 19.9284 7.96325 19.8299 7.96325 19.7092V18.487L7.93582 18.465L7.65081 18.5418L7.62886 18.5474L7.61254 18.5694H7.60691V19.6051C7.60691 19.9832 7.43161 20.1203 7.17951 20.1203C7.08626 20.1203 6.81771 20.0434 6.73006 20.0218V18.487L6.70263 18.465L6.41762 18.5418L6.40115 18.5474L6.37935 18.5694V19.9284L6.33545 20.0873H4.80845V18.142L4.78606 18.1188L4.48237 18.2019L4.44246 18.2133V20.4426C4.44246 20.7886 4.25397 21.0544 3.90672 21.0544C3.77563 21.0544 3.51833 21.0366 3.39904 20.8493L3.37585 20.8407L3.30704 20.8749L3.29688 20.901C3.43121 21.2043 3.67466 21.3374 3.91527 21.3374C4.32599 21.3374 4.77263 21.1571 4.80621 20.4382H6.5601L6.58205 20.4219L6.70811 20.082C6.72458 20.1422 6.8561 20.4382 7.32752 20.4382C7.5796 20.4382 7.77137 20.3287 7.8756 20.1149Z" fill="white"/>
<path d="M1.43305 17.6273L1.45584 17.6049V17.2259L1.43305 17.2031H1.05402L1.03125 17.2259V17.6049L1.05402 17.6273H1.43305Z" fill="white"/>
<path d="M0.784204 17.6273L0.807018 17.6049V17.2259L0.784204 17.2031H0.405602L0.382812 17.2259V17.6049L0.405602 17.6273H0.784204Z" fill="white"/>
<path d="M0.522063 18.9465C0.522063 18.7703 0.565238 18.6373 0.655027 18.5475C0.744839 18.4543 0.86124 18.4077 1.0042 18.4077C1.31684 18.4077 1.47312 18.5707 1.47312 18.8932V20.0106C1.44983 20.0173 1.41988 20.0272 1.37999 20.0372C1.33675 20.0506 1.29355 20.0605 1.25027 20.0738C1.20376 20.0837 1.15724 20.0937 1.11729 20.1037C1.07411 20.1103 1.04082 20.1169 1.01752 20.1169C0.947711 20.1169 0.884534 20.107 0.824699 20.0871C0.768134 20.0704 0.714958 20.0405 0.668345 19.9973C0.625169 19.9541 0.588557 19.9009 0.561993 19.831C0.535381 19.7612 0.522063 19.6781 0.522063 19.5817V18.9465ZM0.86124 20.4428C0.974323 20.4428 1.07411 20.4295 1.15058 20.3997C1.22705 20.373 1.29023 20.3397 1.33675 20.2965C1.38665 20.26 1.41988 20.2201 1.44649 20.1801C1.46978 20.1402 1.48635 20.1103 1.493 20.0871L1.47312 20.3298V20.4329H3.25613L3.25745 20.4374L3.57023 20.3635L3.5873 20.335L3.47361 19.9371L3.47929 18.146L3.45085 18.1232L3.15514 18.2026L3.13237 18.2085L3.10961 18.2312V19.9371L3.14566 20.0605H1.83884V18.1617L1.81564 18.1385L1.51298 18.2217C1.45981 18.1983 1.40987 18.1751 1.35338 18.1551C1.30352 18.1351 1.25027 18.1186 1.18378 18.1018C1.12063 18.0885 1.05413 18.082 0.987569 18.082C0.871216 18.082 0.761451 18.0986 0.65844 18.1319C0.558675 18.1684 0.472204 18.2182 0.398979 18.2848C0.322509 18.348 0.266015 18.4311 0.222816 18.5308C0.179545 18.6273 0.15625 18.7437 0.15625 18.87V19.6448C0.15625 19.9109 0.226134 20.1103 0.359121 20.2434C0.492181 20.3764 0.65844 20.4428 0.86124 20.4428Z" fill="white"/>
</svg>
