<svg width="46" height="33" viewBox="0 0 46 33" fill="none" xmlns="http://www.w3.org/2000/svg">
<path d="M27.4247 0.894531H26.8281V1.53818H27.4247V0.894531Z" fill="white"/>
<path d="M28.3309 0.894531H27.7344V1.53818H28.3309V0.894531Z" fill="white"/>
<path d="M37.9012 7.35547H37.3047V7.99912H37.9012V7.35547Z" fill="white"/>
<path d="M36.7059 7.35547H36.1094V7.99912H36.7059V7.35547Z" fill="white"/>
<path d="M43.2069 6.75189C43.3262 6.69397 43.4336 6.59742 43.5052 6.48156C43.5828 6.35283 43.6424 6.20479 43.6663 6.05031C43.7021 5.86365 43.714 5.67056 43.714 5.47746V1.69922H43.2069V5.47746C43.2069 5.60619 43.201 5.73492 43.1831 5.86365C43.1711 5.95376 43.1473 6.03744 43.1055 6.12111C43.0697 6.18548 43.022 6.23054 42.9623 6.26272C42.8848 6.2949 42.8072 6.30777 42.7237 6.30777C42.6819 6.30777 42.6461 6.30777 42.6044 6.30134C42.5567 6.2949 42.5089 6.28203 42.4672 6.26915L42.3359 6.79051C42.4672 6.82913 42.6044 6.84844 42.7476 6.84844C42.9086 6.85488 43.0637 6.8227 43.2069 6.75189Z" fill="white"/>
<path d="M41.4786 0.0390625H40.375V1.15902H41.4786V0.0390625Z" fill="white"/>
<path d="M41.4784 0.74241H40.7864V0.620115C40.7804 0.562187 40.7983 0.510694 40.8282 0.459202C40.8699 0.420583 40.9296 0.401274 40.9833 0.414147H41.3293V0.0408277H40.9713C40.8103 0.0279546 40.6492 0.0858834 40.5239 0.201741C40.4106 0.343345 40.3569 0.530004 40.3688 0.7231V1.16722H41.4725V0.74241H41.4784Z" fill="white"/>
<path d="M40.064 6.85426C39.9149 6.85426 39.7598 6.83495 39.6166 6.79634C39.4436 6.75128 39.2706 6.69335 39.1035 6.62255L39.2587 6.10119C39.3959 6.17199 39.539 6.22348 39.6822 6.2621C39.8194 6.29429 39.9626 6.3136 40.0998 6.30716C40.3265 6.32003 40.5472 6.25567 40.7381 6.12694C40.8992 5.9789 40.9827 5.74718 40.9648 5.5219V4.98767L40.7978 5.36742H40.6606C40.3921 5.36742 40.1237 5.33524 39.8612 5.26444C39.6226 5.20008 39.3959 5.09065 39.199 4.94261C39.0081 4.79457 38.853 4.60792 38.7456 4.38264C38.6263 4.12518 38.5726 3.8484 38.5786 3.5652C38.5786 3.30774 38.6263 3.05671 38.7277 2.825C38.8291 2.59972 38.9723 2.40019 39.1572 2.23927C39.3541 2.06549 39.5748 1.93675 39.8135 1.85308C40.0879 1.75653 40.3742 1.70504 40.6665 1.71148H41.4719V5.47685C41.4898 5.85017 41.3705 6.21061 41.1378 6.48738C40.8395 6.75772 40.4577 6.89288 40.064 6.85426ZM40.4398 2.25214C40.2728 2.25214 40.1058 2.28433 39.9447 2.34869C39.7836 2.40662 39.6345 2.49673 39.5092 2.61259C39.3839 2.72845 39.2765 2.87005 39.199 3.03096C39.1214 3.19831 39.0797 3.37854 39.0797 3.5652C39.0737 3.75186 39.1155 3.93852 39.1871 4.10587C39.2587 4.26034 39.3601 4.39551 39.4853 4.50493C39.6166 4.61435 39.7657 4.69803 39.9208 4.74952C40.0938 4.80745 40.2728 4.83319 40.4518 4.83319H40.9648V2.40662L41.2512 2.25214H40.4398Z" fill="white"/>
<path d="M37.7556 6.79485H28.5685C28.4134 6.80129 28.2583 6.7691 28.1092 6.6983C27.9899 6.64037 27.8825 6.54382 27.8109 6.42797C27.8049 6.41509 27.793 6.40222 27.787 6.38291L27.7811 6.37004V6.77554H26.7311C26.0988 6.78841 25.4843 6.51164 25.0428 6.02247C24.6252 5.54616 24.3926 4.90895 24.3985 4.25242V4.23955C24.3926 3.57658 24.6252 2.94581 25.0488 2.46307C25.4903 1.96745 26.1047 1.69068 26.743 1.70355H28.1032V5.43031C28.1032 5.55904 28.1092 5.68777 28.1271 5.8165C28.139 5.90661 28.1629 5.99028 28.2046 6.07396C28.2404 6.13832 28.2881 6.18338 28.3478 6.21556C28.4253 6.24775 28.5029 6.26062 28.5864 6.26062H37.2545V1.70355H37.7615L37.7556 6.79485ZM26.7311 2.21848C25.7408 2.21848 24.9414 3.07454 24.9355 4.143V4.23955C24.9056 5.32732 25.6991 6.23487 26.7013 6.26705H27.7214C27.6856 6.18338 27.6617 6.09327 27.6438 5.99672C27.6081 5.81006 27.5961 5.61697 27.5961 5.42387V2.37939L27.9063 2.21204L26.7311 2.21848Z" fill="white"/>
<path d="M21.8824 5.43884L22.1031 6.06319L18.8995 1.69922H18.3984V6.7712H18.9174V2.94791L18.6192 2.2077L21.9718 6.76477H22.3954V1.69922H21.8764V5.43884H21.8824Z" fill="white"/>
<path d="M29.0614 14.865L31.9666 11.8917V9.85156H24.2054V12.1749H28.1844L29.6639 11.158L25.9772 15.1288L26.3709 16.8536H27.4208C28.8347 16.8536 29.6699 17.4135 29.6699 18.4175V18.4497C29.6699 19.3635 28.9958 19.9427 28.0472 19.9427C26.8839 19.9427 26.0607 19.415 25.2732 18.469L23.5312 20.2452C24.5156 21.4938 25.9473 22.3754 28.0114 22.3754C30.5707 22.3754 32.1516 20.67 32.1516 18.3467V18.3145C32.1516 16.0234 30.6244 15.1481 29.0614 14.865Z" fill="white"/>
<path d="M15.1074 6.85304C14.4512 6.86591 13.8188 6.5827 13.3654 6.07422C12.9359 5.5786 12.6973 4.92208 12.7032 4.24624V4.23337C12.6973 3.5511 12.9359 2.89457 13.3714 2.39896C13.8307 1.89047 14.4631 1.60083 15.1193 1.6137C15.7755 1.60083 16.4079 1.88404 16.8613 2.39252C17.2908 2.88813 17.5294 3.53822 17.5235 4.2205V4.23337C17.5294 4.91564 17.2908 5.57217 16.8553 6.06778C16.4019 6.57627 15.7696 6.86591 15.1074 6.85304ZM15.1074 2.1415C14.0873 2.13506 13.258 3.02974 13.2521 4.13038V4.23337C13.2222 5.35333 14.0395 6.29306 15.0776 6.32524H15.1193C16.1394 6.32524 16.9687 5.437 16.9746 4.33635V4.23337C17.0044 3.11341 16.1872 2.17368 15.1491 2.1415H15.1074Z" fill="white"/>
<path d="M38.8958 22.3737C37.2671 22.3994 35.6982 21.7366 34.523 20.5202C33.4133 19.3425 32.7929 17.7271 32.8049 16.041V16.0024C32.7929 14.3162 33.4193 12.6944 34.5349 11.5102C35.7101 10.2874 37.291 9.6117 38.9256 9.63744C40.5542 9.6117 42.1232 10.2746 43.2984 11.4909C44.408 12.6687 45.0284 14.284 45.0165 15.9637V15.9959C45.0284 17.6821 44.402 19.3039 43.2865 20.488C42.1112 21.7237 40.5303 22.3994 38.8958 22.3737ZM38.8958 12.1409C36.9331 12.1409 35.4476 13.7885 35.4476 15.9766V16.0088C35.3999 18.094 36.9211 19.8252 38.854 19.8766H38.9256C40.8883 19.8766 42.3737 18.2291 42.3737 16.041V16.0024C42.4214 13.9172 40.9002 12.186 38.9673 12.1345C38.9435 12.1409 38.9196 12.1409 38.8958 12.1409Z" fill="white"/>
<path d="M11.7869 1.69922H11.25V6.7712H11.7869V1.69922Z" fill="white"/>
<path d="M2.66707 20.7555L3.15626 20.3501L5.66778 18.2714C7.70206 16.5852 8.68639 15.5619 8.68639 13.5089V13.4768C8.68639 11.1728 7.11146 9.67969 4.73118 9.67969C2.679 9.67969 1.58133 10.5743 0.447863 12.2282L2.21965 13.7599C3.07274 12.6337 3.68123 12.1059 4.57011 12.1059C5.47092 12.1059 6.1152 12.6659 6.1152 13.7084C6.1152 14.7253 5.55443 15.3946 4.12865 16.6624L0.304688 20.0219V22.165H8.79973V19.8288H4.415L2.66707 20.7555Z" fill="white"/>
<path d="M2.69903 6.80339L4.7333 1.69922H4.1606L2.54989 5.85722L2.60358 6.41719L2.47233 6.06962L1.07638 2.45229L0.784062 1.69922H0.1875L2.22178 6.80339H2.69903Z" fill="white"/>
<path d="M5.99784 1.69922H5.46094V6.7712H5.99784V1.69922Z" fill="white"/>
<path d="M8.82291 3.95617C7.77893 3.71802 7.54031 3.44768 7.54031 2.97138V2.95851C7.54031 2.50151 7.93404 2.14107 8.5485 2.14107C9.04961 2.14107 9.53282 2.33416 9.91462 2.68817L10.2248 2.25049C9.75952 1.83212 9.16892 1.60684 8.56043 1.62615C7.65962 1.62615 7.0034 2.21187 7.0034 3.01V3.02287C7.0034 3.85319 7.50451 4.23294 8.59026 4.48397C9.58651 4.70924 9.81917 4.97958 9.81917 5.44945V5.46232C9.81917 5.96437 9.40158 6.32481 8.76326 6.32481C8.15476 6.33125 7.57013 6.07379 7.14061 5.61036L6.8125 6.02873C7.33747 6.55653 8.02949 6.84617 8.74536 6.83974C9.68793 6.83974 10.362 6.27332 10.362 5.40439V5.39152C10.362 4.61913 9.87883 4.20076 8.82291 3.95617Z" fill="white"/>
<path d="M2.82172 28.3086H2.52344V28.624H2.82172V28.3086Z" fill="white"/>
<path d="M22.4648 27.9403H19.1956C19.0405 27.9403 18.8914 27.921 18.7422 27.876C18.605 27.8374 18.4797 27.773 18.3664 27.6893C18.259 27.6056 18.1695 27.4962 18.1039 27.3675C18.0383 27.2195 18.0025 27.0585 18.0085 26.8976C18.0085 26.756 18.0383 26.608 18.092 26.4793C18.1457 26.3505 18.2292 26.2347 18.3306 26.1446C18.4439 26.048 18.5692 25.9708 18.7064 25.9257C18.8675 25.8742 19.0286 25.842 19.1956 25.8485H19.649V27.6378H20.7944V25.8485H21.0808V27.6378H22.1725V25.8485H22.4588L22.4648 27.9403ZM19.0763 26.151C18.9809 26.151 18.8794 26.1703 18.79 26.2025C18.7005 26.2347 18.611 26.2862 18.5394 26.3505C18.4678 26.4149 18.4082 26.4986 18.3604 26.5887C18.3127 26.6852 18.2948 26.7882 18.2948 26.8912C18.2948 27.0006 18.3127 27.1036 18.3545 27.2001C18.3962 27.2903 18.4499 27.3675 18.5215 27.4319C18.5931 27.4962 18.6826 27.5477 18.7721 27.5799C18.8735 27.6121 18.9749 27.6314 19.0763 27.6314H19.3627V26.151H19.0763Z" fill="white"/>
<path d="M16.5832 25.168H16.2969V27.9421H16.5832V25.168Z" fill="white"/>
<path d="M19.6498 25.1719H19.3516V25.4873H19.6498V25.1719Z" fill="white"/>
<path d="M22.4702 28.3086H22.1719V28.624H22.4702V28.3086Z" fill="white"/>
<path d="M3.32953 28.3086H3.03125V28.624H3.32953V28.3086Z" fill="white"/>
<path d="M6.62716 28.7892C6.53768 28.7892 6.45416 28.7763 6.37064 28.757C6.26923 28.7313 6.17378 28.6991 6.07833 28.6605L6.16781 28.3644C6.24537 28.403 6.32888 28.4352 6.4124 28.4545C6.48996 28.4738 6.57347 28.4802 6.65103 28.4802C6.78227 28.4867 6.90755 28.4545 7.01493 28.3773C7.11038 28.2936 7.15811 28.1584 7.14617 28.0297V27.9396H6.97317C6.81806 27.9396 6.66296 27.9203 6.51382 27.8817C6.37661 27.843 6.25133 27.7851 6.13202 27.695C6.02464 27.6113 5.93515 27.5019 5.86953 27.3732C5.80391 27.2251 5.76812 27.0642 5.77408 26.9033C5.77408 26.7553 5.80391 26.6137 5.86357 26.4785C5.92322 26.3498 6.00077 26.2339 6.10816 26.1438C6.2215 26.0472 6.34678 25.97 6.48399 25.9185C6.6391 25.8606 6.80613 25.8348 6.97317 25.8348H7.43849V27.6242H8.43475L7.92767 26.3305C8.00522 26.2596 8.08278 26.1888 8.1663 26.1245C8.24981 26.0601 8.3393 26.0022 8.43475 25.9571C8.52423 25.9121 8.61968 25.8735 8.71513 25.8477C8.90007 25.7962 9.09097 25.7962 9.2759 25.8477C9.37135 25.8735 9.4668 25.9121 9.55629 25.9571C9.64577 26.0086 9.73525 26.0601 9.82474 26.1245C9.90826 26.1888 9.99178 26.2532 10.0693 26.3305L9.56225 27.6242H11.0775V26.0279H11.3639V27.6242H11.9246C11.9843 27.6242 12.0499 27.6178 12.1096 27.592C12.1692 27.5727 12.217 27.5405 12.2647 27.5019C12.3124 27.4568 12.3482 27.3989 12.3721 27.341C12.4019 27.2637 12.4138 27.1801 12.4138 27.0964V26.0279H12.7002V27.1221C12.7002 27.1929 12.7181 27.2702 12.7479 27.3345C12.7777 27.3989 12.8195 27.4568 12.8672 27.5083C12.9209 27.5598 12.9806 27.5984 13.0462 27.6242C13.1178 27.6499 13.1953 27.6692 13.2788 27.6692C13.428 27.6821 13.5771 27.6242 13.6845 27.5083C13.7799 27.386 13.8277 27.238 13.8157 27.0835V26.0408H14.1021V27.0385C14.1021 27.135 14.0961 27.2316 14.0782 27.3281C14.1319 27.4311 14.2095 27.5083 14.3049 27.5598C14.4302 27.6178 14.5674 27.6435 14.7046 27.6371H15.1759V25.1719H15.4623V27.946H14.6271V27.9396C14.5555 27.9396 14.4899 27.9267 14.4183 27.9138C14.3467 27.8945 14.2811 27.8688 14.2154 27.8302C14.1677 27.798 14.12 27.7594 14.0782 27.7143C14.0424 27.6757 14.0126 27.6306 13.9887 27.5856C13.9291 27.7143 13.8277 27.8173 13.7084 27.8817C13.5711 27.9525 13.416 27.9846 13.2669 27.9782C13.1178 27.9846 12.9686 27.946 12.8374 27.8752C12.7181 27.8109 12.6226 27.7079 12.551 27.5856C12.4854 27.695 12.39 27.7851 12.2885 27.843C12.1752 27.9074 12.044 27.9396 11.9127 27.9396H7.43252V27.9975C7.44446 28.2099 7.37287 28.4159 7.24162 28.5768C7.07459 28.7377 6.85386 28.815 6.62716 28.7892ZM8.98955 26.1567C8.86427 26.1567 8.739 26.1824 8.62565 26.2275C8.50037 26.279 8.38702 26.3562 8.28561 26.4463L8.739 27.6306H9.25204L9.70543 26.4463C9.60998 26.3562 9.49663 26.2918 9.38328 26.2403C9.25204 26.1824 9.12676 26.1567 8.98955 26.1567ZM6.85386 26.1567C6.75244 26.1567 6.65699 26.176 6.56154 26.2082C6.47206 26.2403 6.38854 26.2918 6.31099 26.3626C6.2394 26.427 6.17974 26.5107 6.13202 26.6008C6.09026 26.6973 6.0664 26.8003 6.0664 26.9033C6.0664 27.0127 6.08429 27.1157 6.12605 27.2123C6.16781 27.3024 6.2215 27.3796 6.29309 27.4375C6.37064 27.5019 6.45416 27.547 6.54365 27.5791C6.64506 27.6113 6.74648 27.6306 6.84789 27.6242H7.14021V26.1567H6.85386Z" fill="white"/>
<path d="M1.83734 25.1719H1.53906V25.4873H1.83734V25.1719Z" fill="white"/>
<path d="M31.017 25.1719H30.7188V25.4873H31.017V25.1719Z" fill="white"/>
<path d="M28.4504 25.168H28.1641V27.9421H28.4504V25.168Z" fill="white"/>
<path d="M19.1498 25.1719H18.8516V25.4873H19.1498V25.1719Z" fill="white"/>
<path d="M5.32023 26.7265C5.32023 26.6107 5.3083 26.4948 5.27251 26.3854C5.24268 26.2824 5.20092 26.1923 5.1353 26.1151C5.06371 26.0314 4.97423 25.9606 4.87878 25.9091C4.76543 25.864 4.65208 25.8383 4.53277 25.8447H4.31801V26.1537H4.56857C4.64015 26.1537 4.70577 26.173 4.76543 26.1987C4.82509 26.2309 4.87878 26.2695 4.92054 26.3275C4.9623 26.379 4.99212 26.4369 5.00406 26.5077C5.02195 26.5849 5.02792 26.6622 5.02792 26.7394V27.6341H3.67969V27.943H5.32023V26.7265Z" fill="white"/>
<path d="M43.716 25.168H43.4297V27.9421H43.716V25.168Z" fill="white"/>
<path d="M31.5248 25.1719H31.2266V25.4873H31.5248V25.1719Z" fill="white"/>
<path d="M40.3393 28.2973C40.1962 28.2973 40.053 28.2651 39.9218 28.2007C39.7965 28.1364 39.6831 28.0527 39.5877 27.9433H38.317C38.2215 28.0527 38.1022 28.1428 37.971 28.2007C37.8338 28.2651 37.6906 28.2973 37.5415 28.2908C37.3983 28.2908 37.2551 28.2587 37.1239 28.1943C36.9986 28.1299 36.8853 28.0463 36.7898 27.9368H31.0628C30.9077 27.9368 30.7586 27.9175 30.6094 27.8725C30.4722 27.8338 30.3469 27.7695 30.2336 27.6858C30.1262 27.6021 30.0367 27.4927 29.9711 27.364C29.9055 27.2159 29.8697 27.055 29.8756 26.8941C29.8756 26.7525 29.9055 26.6109 29.9592 26.4757C30.0129 26.347 30.0964 26.2312 30.1978 26.141C30.3111 26.0445 30.4364 25.9673 30.5736 25.9222C30.7347 25.8707 30.8958 25.8385 31.0628 25.845H31.5162V27.6343H34.1828V27.1644C34.1828 27.0872 34.1769 27.0164 34.159 26.9392C34.147 26.8748 34.1172 26.8104 34.0754 26.7589C34.0337 26.7075 33.974 26.6624 33.9144 26.6367C33.8368 26.6045 33.7593 26.5916 33.6757 26.5916H32.2142C32.1784 26.553 32.1485 26.5015 32.1306 26.45C32.1068 26.3921 32.0949 26.3341 32.0829 26.2762L32.6377 25.1691H32.9539L32.411 26.2826H33.6877C33.807 26.2762 33.9323 26.302 34.0456 26.347C34.1411 26.3921 34.2305 26.4629 34.2962 26.5465C34.3618 26.6238 34.4095 26.7203 34.4334 26.8169C34.4632 26.9263 34.4751 27.0422 34.4751 27.158V27.6343H35.3938V25.1691H35.6802V27.6343H36.5989C36.575 27.5635 36.5512 27.4927 36.5333 27.4155C36.5154 27.3382 36.5094 27.261 36.5094 27.1773C36.5035 26.7268 36.748 26.3148 37.1358 26.141C37.2611 26.0831 37.3983 26.0509 37.5415 26.0509C37.6846 26.0509 37.8278 26.0767 37.9591 26.1346C38.0843 26.1925 38.1977 26.2698 38.2931 26.3728C38.3886 26.4757 38.4661 26.598 38.5139 26.7268C38.5676 26.8684 38.5974 27.0228 38.5974 27.1709C38.5974 27.3254 38.5676 27.4863 38.5079 27.6279H39.4027C39.3789 27.5571 39.355 27.4863 39.3371 27.409C39.3192 27.3318 39.3133 27.2546 39.3133 27.1709C39.3073 26.7203 39.5519 26.3084 39.9396 26.1346C40.0649 26.0767 40.2021 26.0445 40.3453 26.0445C40.4885 26.0445 40.6317 26.0702 40.7629 26.1282C40.8882 26.1861 41.0015 26.2633 41.097 26.3663C41.1924 26.4693 41.27 26.5916 41.3177 26.7203C41.3714 26.8619 41.4012 27.0164 41.4012 27.1644C41.4012 27.3189 41.3714 27.4798 41.3117 27.6214H42.2961V25.1562H42.5824V27.9304H41.1149C41.0194 28.0398 40.9001 28.1299 40.7689 28.1879C40.6376 28.2651 40.4885 28.2973 40.3393 28.2973ZM40.3393 26.3599C40.2379 26.3599 40.1365 26.3792 40.0411 26.4242C39.9516 26.4629 39.874 26.5272 39.8084 26.598C39.7428 26.6753 39.6891 26.7589 39.6533 26.8555C39.6175 26.9585 39.5996 27.0615 39.5996 27.1709C39.5996 27.3833 39.6712 27.5893 39.8084 27.7437C39.874 27.8145 39.9575 27.8789 40.0411 27.9175C40.1365 27.9626 40.232 27.9819 40.3334 27.9819C40.4348 27.9819 40.5362 27.9626 40.6317 27.924C40.8166 27.8467 40.9598 27.6922 41.0373 27.4991C41.0791 27.3962 41.097 27.2867 41.097 27.1773C41.097 27.0679 41.0791 26.952 41.0373 26.8491C41.0015 26.7525 40.9478 26.6624 40.8763 26.5916C40.8047 26.5208 40.7271 26.4629 40.6376 26.4242C40.5481 26.3792 40.4467 26.3599 40.3393 26.3599ZM37.5415 26.3599C37.3386 26.3599 37.1477 26.4436 37.0105 26.598C36.9449 26.6753 36.8912 26.7589 36.8554 26.8555C36.8196 26.9585 36.8017 27.0615 36.8017 27.1709C36.8017 27.2803 36.8196 27.3833 36.8554 27.4863C36.8912 27.5828 36.9449 27.6729 37.0105 27.7437C37.0762 27.8145 37.1597 27.8789 37.2432 27.9175C37.3386 27.9626 37.4341 27.9819 37.5355 27.9819C37.6369 27.9819 37.7383 27.9626 37.8397 27.924C38.1201 27.8017 38.3051 27.5056 38.3051 27.1773C38.3051 27.0679 38.2872 26.952 38.2454 26.8491C38.2096 26.7525 38.1559 26.6624 38.0843 26.5916C38.0128 26.5208 37.9352 26.4629 37.8457 26.4242C37.7503 26.3792 37.6488 26.3599 37.5415 26.3599ZM30.9435 26.1539C30.848 26.1539 30.7466 26.1732 30.6571 26.2054C30.5677 26.2376 30.4782 26.2891 30.4066 26.3534C30.335 26.4178 30.2753 26.5015 30.2276 26.5916C30.1799 26.6881 30.162 26.7911 30.162 26.8941C30.162 27.0035 30.1799 27.1065 30.2217 27.2031C30.2634 27.2932 30.3171 27.3704 30.3887 27.4348C30.4603 27.4991 30.5498 27.5506 30.6392 27.5828C30.7407 27.615 30.8421 27.6343 30.9435 27.6343H31.2298V26.1539H30.9435Z" fill="white"/>
<path d="M3.27422 27.9403H1.38311C1.22801 27.9403 1.07887 27.921 0.929728 27.876C0.792518 27.8374 0.66724 27.773 0.553893 27.6893C0.446512 27.6056 0.357028 27.4962 0.291406 27.3675C0.225784 27.2195 0.18999 27.0585 0.195956 26.8976C0.195956 26.756 0.225784 26.608 0.279475 26.4793C0.333165 26.3505 0.416684 26.2347 0.5181 26.1446C0.631446 26.048 0.756725 25.9708 0.893934 25.9257C1.05501 25.8742 1.21608 25.842 1.38311 25.8485H1.8365V27.6378H2.98787V25.8485H3.27422V27.9403ZM1.26977 26.151C1.17432 26.151 1.0729 26.1703 0.983418 26.2025C0.893934 26.2347 0.80445 26.2862 0.732862 26.3505C0.661275 26.4149 0.601618 26.4986 0.553893 26.5887C0.506168 26.6852 0.488271 26.7882 0.488271 26.8912C0.488271 27.0006 0.506168 27.1036 0.547928 27.2001C0.589687 27.2903 0.643378 27.3675 0.714965 27.4319C0.786553 27.4962 0.876037 27.5477 0.965521 27.5799C1.06694 27.6121 1.16835 27.6314 1.26977 27.6314H1.55612V26.151H1.26977Z" fill="white"/>
<path d="M21.4155 28.3086H21.1172V28.624H21.4155V28.3086Z" fill="white"/>
<path d="M20.9077 28.3086H20.6094V28.624H20.9077V28.3086Z" fill="white"/>
<path d="M23.0608 28.7917C22.9832 28.7917 22.9057 28.7789 22.8281 28.7596L22.9057 28.4635C22.9295 28.4699 22.9594 28.4763 22.9832 28.4828C23.0071 28.4828 23.031 28.4892 23.0489 28.4892C23.0966 28.4892 23.1383 28.4828 23.1861 28.4635C23.2219 28.4442 23.2517 28.4184 23.2696 28.3798C23.2934 28.3347 23.3054 28.2832 23.3113 28.2318C23.3233 28.161 23.3233 28.0837 23.3233 28.0065V25.8438H23.6096V27.6332H24.6834L24.1764 26.3394C24.2539 26.2686 24.3315 26.1978 24.415 26.1334C24.4985 26.0691 24.588 26.0112 24.6834 25.9661C24.7729 25.921 24.8684 25.8824 24.9638 25.8567C25.0533 25.8309 25.1488 25.8181 25.2442 25.8181C25.3397 25.8181 25.4291 25.8309 25.5246 25.8567C25.62 25.8824 25.7155 25.921 25.805 25.9661C25.9004 26.0176 25.9839 26.0691 26.0734 26.1334C26.1569 26.1978 26.2405 26.2622 26.318 26.3394L25.8109 27.6332H27.0399V25.168H27.3262V27.9421H23.6156V28.0065C23.6156 28.1159 23.6096 28.2253 23.5858 28.3347C23.5679 28.4249 23.538 28.5085 23.4963 28.5793C23.4545 28.6501 23.3949 28.7016 23.3233 28.7338C23.2398 28.7789 23.1503 28.7982 23.0608 28.7917ZM25.2502 26.1592C25.1249 26.1592 24.9996 26.1849 24.8863 26.23C24.761 26.2815 24.6476 26.3587 24.5462 26.4488L24.9996 27.6332H25.5127L25.966 26.4488C25.8706 26.3587 25.7572 26.2944 25.6439 26.2429C25.5127 26.1849 25.3814 26.1592 25.2502 26.1592Z" fill="white"/>
<path d="M1.32953 25.1719H1.03125V25.4873H1.32953V25.1719Z" fill="white"/>
<path d="M2.26625 29.9766H1.81883L0.840465 31.0836V29.9766H0.476562V32.1843H0.840465V31.5471L1.16261 31.1931L1.86655 32.1843H2.30801L1.41316 30.9227L2.26625 29.9766Z" fill="white"/>
<path d="M2.99672 29.9766H2.63281V32.1843H2.99672V29.9766Z" fill="white"/>
<path d="M4.9924 31.502L3.88876 29.9766H3.55469V32.1843H3.91262V30.6138L5.05206 32.1843H5.35631V29.9766H4.99837V31.502H4.9924Z" fill="white"/>
<path d="M6.84736 31.2838H7.37233V31.6957C7.22916 31.8051 7.05019 31.863 6.87719 31.863C6.50135 31.8759 6.18517 31.5477 6.17324 31.1422V31.0713C6.15534 30.6594 6.45363 30.3118 6.83543 30.2925H6.84139C7.05615 30.2861 7.26495 30.3698 7.42006 30.5307L7.65272 30.241C7.43199 30.0351 7.1516 29.9256 6.85929 29.9385C6.28062 29.9321 5.80337 30.4277 5.79741 31.052V31.0842C5.77951 31.6893 6.215 32.1977 6.77577 32.2235H6.86525C7.18143 32.2235 7.48568 32.1012 7.7243 31.8759V30.9491H6.84736V31.2838Z" fill="white"/>
<path d="M9.06175 32.1834H8.22656V29.9757H8.99613C9.56286 29.9306 10.052 30.3941 10.0878 30.9991V31.0763C10.0878 31.6878 9.62848 32.1834 9.06175 32.1834ZM8.59047 30.3297V31.8294H8.99613C9.366 31.8551 9.68814 31.5526 9.712 31.1536V31.0828C9.72393 30.6837 9.43162 30.3426 9.06175 30.3297H8.59047Z" fill="white"/>
<path d="M11.4957 32.2166C10.923 32.2359 10.4398 31.7532 10.4219 31.1353V31.0773C10.4219 30.7748 10.5293 30.4852 10.7261 30.2728C10.9349 30.0539 11.2153 29.9316 11.5017 29.9381C12.0744 29.9188 12.5576 30.4015 12.5755 31.0258V31.0838C12.5755 31.3863 12.4681 31.6759 12.2712 31.8883C12.0684 32.1007 11.788 32.223 11.4957 32.2166ZM11.4957 30.2921C11.1139 30.2921 10.8037 30.6268 10.8037 31.0387V31.0773C10.7917 31.4957 11.102 31.8497 11.4897 31.8626H11.5017C11.8835 31.8626 12.1937 31.5279 12.1996 31.1159V31.0773C12.2175 30.659 11.9192 30.3114 11.5315 30.2921H11.4957Z" fill="white"/>
<path d="M14.0454 31.0193L13.419 29.9766H13.0312V32.1843H13.3892V30.6073L14.0335 31.6436H14.0454L14.6957 30.6009V32.1843H15.0596V29.9766H14.6718L14.0454 31.0193Z" fill="white"/>
<path d="M17.4488 32.2166C16.8761 32.2359 16.3929 31.7532 16.375 31.1353V31.0773C16.375 30.7748 16.4824 30.4852 16.6792 30.2728C16.888 30.0539 17.1684 29.9316 17.4548 29.9381C18.0275 29.9188 18.5107 30.4015 18.5286 31.0258V31.0838C18.5286 31.3863 18.4212 31.6759 18.2243 31.8883C18.0215 32.1007 17.7411 32.223 17.4488 32.2166ZM17.4488 30.2921C17.067 30.2921 16.7568 30.6268 16.7568 31.0387V31.0773C16.7449 31.4957 17.0551 31.8497 17.4428 31.8626H17.4548C17.8366 31.8626 18.1468 31.5279 18.1528 31.1159V31.0773C18.1707 30.659 17.8724 30.3114 17.4846 30.2921H17.4488Z" fill="white"/>
<path d="M18.9844 32.1829H19.3483V31.2818H20.3863V30.9278H19.3483V30.3228H20.5175V29.9688H18.9844V32.1829Z" fill="white"/>
<path d="M22.5947 30.9055C22.201 30.8025 22.1055 30.7317 22.1055 30.5579V30.5514C22.1055 30.4034 22.2308 30.2875 22.4396 30.2875C22.6424 30.294 22.8393 30.3777 23.0004 30.5128L23.1972 30.2232C22.9884 30.0365 22.72 29.94 22.4515 29.9464C22.1055 29.9014 21.7953 30.1653 21.7535 30.5386C21.7535 30.5514 21.7476 30.5708 21.7476 30.5901V30.5965C21.7476 31.002 21.9922 31.1436 22.4336 31.253C22.8154 31.3496 22.8989 31.4333 22.8989 31.5877V31.5942C22.8989 31.7615 22.7558 31.8709 22.535 31.8709C22.2905 31.8709 22.0578 31.768 21.8848 31.5813L21.6641 31.8581C21.9027 32.0898 22.2069 32.2121 22.5231 32.2121C22.9586 32.2121 23.2569 31.9675 23.2569 31.5555V31.5491C23.2569 31.1822 23.0302 31.0149 22.5947 30.9055Z" fill="white"/>
<path d="M23.8308 32.1815H23.4609L24.3677 29.9609H24.7018L25.6086 32.1815H25.2268L25.018 31.6473H24.0456L23.8308 32.1815ZM24.5288 30.4179L24.1768 31.2997H24.8867L24.5288 30.4179Z" fill="white"/>
<path d="M27.2204 31.2418C27.2204 31.6473 27.0235 31.8533 26.7014 31.8533C26.3792 31.8533 26.1823 31.6344 26.1823 31.2225V29.9674H25.8184V31.2418C25.7647 31.7181 26.0809 32.1558 26.5284 32.2073C26.582 32.2137 26.6417 32.2137 26.7014 32.2073C27.1547 32.2523 27.5485 31.8919 27.5902 31.4027C27.5962 31.3384 27.5962 31.2804 27.5843 31.2161V29.9609H27.2204V31.2418Z" fill="white"/>
<path d="M28.9446 32.1834H28.1094V29.9757H28.8789C29.4457 29.9306 29.9289 30.3941 29.9706 30.9991V31.0763C29.9706 31.6878 29.5113 32.1834 28.9446 32.1834ZM28.4733 30.3297V31.8294H28.8789C29.2488 31.8551 29.571 31.5526 29.5948 31.1536V31.0828C29.6067 30.6837 29.3144 30.3426 28.9446 30.3297H28.4733Z" fill="white"/>
<path d="M30.7936 29.9766H30.4297V32.1843H30.7936V29.9766Z" fill="white"/>
<path d="M32.4246 32.1815H32.0547L32.9615 29.9609H33.2955L34.2023 32.1815H33.8205L33.6117 31.6473H32.6393L32.4246 32.1815ZM33.1225 30.4179L32.7706 31.2997H33.4805L33.1225 30.4179Z" fill="white"/>
<path d="M34.9167 32.1818H34.5469V29.974H35.4656C35.6803 29.9612 35.8951 30.0384 36.0621 30.1929C36.1755 30.3216 36.2351 30.489 36.2351 30.6692V30.6756C36.2411 30.9975 36.0383 31.2807 35.746 31.345L36.3008 32.1818H35.8772L35.3701 31.4094H34.9167V32.1818ZM34.9108 30.328V31.0683H35.4417C35.6982 31.0683 35.8653 30.9266 35.8653 30.7014V30.6949C35.8653 30.4632 35.7102 30.328 35.4358 30.328H34.9108Z" fill="white"/>
<path d="M36.9324 32.1841H36.5625L37.4693 29.957H37.8033L38.7101 32.1776H38.3283L38.1195 31.6434H37.1471L36.9324 32.1841ZM37.6303 30.4205L37.2784 31.3023H37.9883L37.6303 30.4205Z" fill="white"/>
<path d="M40.0092 32.1819H39.0547V29.9742H39.9794C40.1762 29.9613 40.3671 30.0321 40.5163 30.1672C40.6057 30.2638 40.6594 30.3925 40.6535 30.5341V30.5406C40.6594 30.753 40.5401 30.9461 40.3612 31.0297C40.5998 31.0748 40.7728 31.3065 40.7728 31.564V31.5704C40.7668 31.9502 40.4864 32.1819 40.0092 32.1819ZM39.4067 31.2293V31.8343H40.0092C40.2597 31.8343 40.4089 31.7249 40.4089 31.5318V31.5254C40.4089 31.3323 40.2597 31.2293 39.9853 31.2293H39.4067ZM39.4067 30.3153V30.901H39.9018C40.1464 30.901 40.2896 30.7916 40.2896 30.5985C40.2896 30.4247 40.1524 30.3153 39.9257 30.3153H39.4067Z" fill="white"/>
<path d="M41.5748 29.9766H41.2109V32.1843H41.5748V29.9766Z" fill="white"/>
<path d="M42.2917 32.1815H41.9219L42.8287 29.9609H43.1627L44.0695 32.1815H43.6877L43.4789 31.6473H42.5065L42.2917 32.1815ZM42.9897 30.4179L42.6377 31.2997H43.3477L42.9897 30.4179Z" fill="white"/>
<path d="M15.678 8.83203L16.2626 9.43063L15.7018 10.055L15.1172 9.45637L15.678 8.83203Z" fill="white"/>
<path d="M17.0078 9.45637L17.5924 10.055L18.1532 9.43063L17.5686 8.83203L17.0078 9.45637Z" fill="white"/>
<path d="M16.1797 10.2445L16.6331 10.7079L17.0686 10.2251L16.6152 9.76172L16.1797 10.2445Z" fill="white"/>
<path d="M17.8438 10.5101L18.2971 10.98L18.7326 10.4972L18.2792 10.0273L17.8438 10.5101Z" fill="white"/>
<path d="M15.4453 10.9827L15.8987 11.4526L16.3342 10.9699L15.8808 10.5L15.4453 10.9827Z" fill="white"/>
<path d="M16.9609 11.0452L17.4143 11.5151L17.8498 11.0324L17.3964 10.5625L16.9609 11.0452Z" fill="white"/>
<path d="M16.3672 11.6029L16.6834 11.9311L16.9876 11.59L16.6714 11.2617L16.3672 11.6029Z" fill="white"/>
<path d="M17.5703 11.8607L17.8865 12.1889L18.1907 11.8478L17.8746 11.5195L17.5703 11.8607Z" fill="white"/>
<path d="M20.1953 9.26341L20.3743 10.3254L21.3646 10.1323L21.1856 9.07031L20.1953 9.26341Z" fill="white"/>
<path d="M18.9062 9.70526L19.0494 10.5549L19.8429 10.4004L19.6997 9.55078L18.9062 9.70526Z" fill="white"/>
<path d="M20.4375 10.8889L20.5807 11.7385L21.3741 11.584L21.2309 10.7344L20.4375 10.8889Z" fill="white"/>
<path d="M19.3516 11.0129L19.4649 11.6759L20.0853 11.5536L19.972 10.8906L19.3516 11.0129Z" fill="white"/>
<path d="M20.5469 12.2707L20.6602 12.9337L21.2806 12.8114L21.1673 12.1484L20.5469 12.2707Z" fill="white"/>
<path d="M18.4219 11.2825L18.5352 11.9454L19.1556 11.8231L19.0423 11.1602L18.4219 11.2825Z" fill="white"/>
<path d="M19.5391 12.1496L19.6524 12.8126L20.2728 12.6903L20.1595 12.0273L19.5391 12.1496Z" fill="white"/>
<path d="M18.75 12.2282L18.8276 12.6916L19.263 12.608L19.1855 12.1445L18.75 12.2282Z" fill="white"/>
<path d="M19.5859 13.193L19.6635 13.6565L20.099 13.5728L20.0214 13.1094L19.5859 13.193Z" fill="white"/>
<path d="M23.1405 12.7305L22.7109 13.7024L23.6177 14.1658L24.0472 13.1939L23.1405 12.7305Z" fill="white"/>
<path d="M21.846 12.2812L21.5 13.0601L22.2278 13.4334L22.5738 12.6546L21.846 12.2812Z" fill="white"/>
<path d="M22.4476 14.2031L22.1016 14.9819L22.8294 15.3553L23.1754 14.5764L22.4476 14.2031Z" fill="white"/>
<path d="M21.4872 13.6172L21.2188 14.2222L21.7855 14.5119L22.0539 13.9068L21.4872 13.6172Z" fill="white"/>
<path d="M21.7763 15.3828L21.5078 15.9878L22.0745 16.2775L22.343 15.6725L21.7763 15.3828Z" fill="white"/>
<path d="M20.5888 13.2578L20.3203 13.8628L20.887 14.1525L21.1555 13.5475L20.5888 13.2578Z" fill="white"/>
<path d="M21.0341 14.6602L20.7656 15.2652L21.3324 15.5548L21.6008 14.9498L21.0341 14.6602Z" fill="white"/>
<path d="M20.3472 14.2344L20.1562 14.6592L20.5559 14.8652L20.7468 14.4403L20.3472 14.2344Z" fill="white"/>
<path d="M20.5034 15.5312L20.3125 15.9561L20.7122 16.162L20.9031 15.7372L20.5034 15.5312Z" fill="white"/>
<path d="M23.6251 17.3828L22.7422 17.8977L23.2254 18.8439L24.1083 18.329L23.6251 17.3828Z" fill="white"/>
<path d="M22.8271 16.2188L22.1172 16.6371L22.505 17.3966L23.2089 16.9783L22.8271 16.2188Z" fill="white"/>
<path d="M22.2568 18.1445L21.5469 18.5629L21.9346 19.3224L22.6386 18.904L22.2568 18.1445Z" fill="white"/>
<path d="M21.8067 17.0703L21.2578 17.3921L21.5621 17.9843L22.1109 17.6625L21.8067 17.0703Z" fill="white"/>
<path d="M21.0723 18.6875L20.5234 19.0093L20.8277 19.6015L21.3765 19.2797L21.0723 18.6875Z" fill="white"/>
<path d="M21.2754 16.2188L20.7266 16.5406L21.0308 17.1327L21.5796 16.8109L21.2754 16.2188Z" fill="white"/>
<path d="M20.8613 17.6328L20.3125 17.9546L20.6167 18.5468L21.1656 18.225L20.8613 17.6328Z" fill="white"/>
<path d="M20.544 16.8555L20.1562 17.0807L20.371 17.4991L20.7588 17.2738L20.544 16.8555Z" fill="white"/>
<path d="M19.9503 18.0039L19.5625 18.2292L19.7773 18.6411L20.165 18.4158L19.9503 18.0039Z" fill="white"/>
<path d="M21.4809 21.4633L20.4847 21.3281L20.3594 22.3966L21.3556 22.5318L21.4809 21.4633Z" fill="white"/>
<path d="M21.4711 20.0196L20.6717 19.9102L20.5703 20.7662L21.3697 20.8756L21.4711 20.0196Z" fill="white"/>
<path d="M19.9555 21.2266L19.1561 21.1172L19.0547 21.9732L19.8541 22.0827L19.9555 21.2266Z" fill="white"/>
<path d="M20.1745 20.068L19.5541 19.9844L19.4766 20.6538L20.097 20.7374L20.1745 20.068Z" fill="white"/>
<path d="M18.6902 20.9235L18.0697 20.8398L17.9922 21.5092L18.6126 21.5865L18.6902 20.9235Z" fill="white"/>
<path d="M20.2118 19.0446L19.5854 18.9609L19.5078 19.6303L20.1282 19.714L20.2118 19.0446Z" fill="white"/>
<path d="M19.1024 19.9352L18.476 19.8516L18.3984 20.521L19.0189 20.6046L19.1024 19.9352Z" fill="white"/>
<path d="M19.2704 19.1048L18.8349 19.0469L18.7812 19.5167L19.2167 19.5747L19.2704 19.1048Z" fill="white"/>
<path d="M18.1611 19.6712L17.7256 19.6133L17.6719 20.0831L18.1074 20.1411L18.1611 19.6712Z" fill="white"/>
<path d="M17.5039 23.4291L16.7642 22.6953L16.0781 23.487L16.8179 24.2208L17.5039 23.4291Z" fill="white"/>
<path d="M17.3711 8.35095L16.6314 7.61719L15.9453 8.40888L16.685 9.14265L17.3711 8.35095Z" fill="white"/>
<path d="M18.2957 22.2537L17.7051 21.668L17.1562 22.2987L17.7468 22.8845L18.2957 22.2537Z" fill="white"/>
<path d="M16.4051 22.281L15.8145 21.6953L15.2656 22.3261L15.8562 22.9118L16.4051 22.281Z" fill="white"/>
<path d="M17.217 21.4882L16.7576 21.0312L16.3281 21.5269L16.7875 21.9839L17.217 21.4882Z" fill="white"/>
<path d="M15.5451 21.2461L15.0858 20.7891L14.6562 21.2847L15.1156 21.7417L15.5451 21.2461Z" fill="white"/>
<path d="M17.8029 20.6757L17.3436 20.2188L16.9141 20.7144L17.3734 21.1714L17.8029 20.6757Z" fill="white"/>
<path d="M16.4201 20.6992L15.9608 20.2422L15.5312 20.7378L15.9906 21.1948L16.4201 20.6992Z" fill="white"/>
<path d="M17.0032 20.1343L16.6811 19.8125L16.3828 20.1601L16.705 20.4819L17.0032 20.1343Z" fill="white"/>
<path d="M15.8001 19.9L15.478 19.5781L15.1797 19.9257L15.5018 20.2475L15.8001 19.9Z" fill="white"/>
<path d="M13.2203 22.5361L13.0234 21.4805L12.0391 21.6929L12.2359 22.7485L13.2203 22.5361Z" fill="white"/>
<path d="M14.5014 22.0684L14.3403 21.2188L13.5469 21.3861L13.7079 22.2357L14.5014 22.0684Z" fill="white"/>
<path d="M12.9467 20.9121L12.7856 20.0625L11.9922 20.2299L12.1533 21.0795L12.9467 20.9121Z" fill="white"/>
<path d="M14.0366 20.7737L13.9113 20.1172L13.2969 20.2459L13.4222 20.9024L14.0366 20.7737Z" fill="white"/>
<path d="M14.9585 20.4886L14.8332 19.832L14.2188 19.9608L14.344 20.6237L14.9585 20.4886Z" fill="white"/>
<path d="M13.8257 19.637L13.7004 18.9805L13.0859 19.1156L13.2112 19.7722L13.8257 19.637Z" fill="white"/>
<path d="M14.6128 19.5416L14.5292 19.0781L14.0938 19.1682L14.1773 19.6317L14.6128 19.5416Z" fill="white"/>
<path d="M13.7612 18.5923L13.6777 18.1289L13.2422 18.219L13.3257 18.6824L13.7612 18.5923Z" fill="white"/>
<path d="M10.2252 19.1139L10.6428 18.1355L9.73009 17.6914L9.3125 18.6698L10.2252 19.1139Z" fill="white"/>
<path d="M11.515 19.5441L11.8491 18.7589L11.1153 18.3984L10.7812 19.1837L11.515 19.5441Z" fill="white"/>
<path d="M10.89 17.6379L11.2241 16.8526L10.4903 16.4922L10.1562 17.2774L10.89 17.6379Z" fill="white"/>
<path d="M11.8539 18.2046L12.1164 17.5932L11.5437 17.3164L11.2812 17.9279L11.8539 18.2046Z" fill="white"/>
<path d="M12.6196 19.7359L12.8821 19.1244L12.3094 18.8477L12.0469 19.4591L12.6196 19.7359Z" fill="white"/>
<path d="M11.5414 16.439L11.8039 15.8276L11.2312 15.5508L10.9688 16.1623L11.5414 16.439Z" fill="white"/>
<path d="M12.7602 18.5523L13.0227 17.9408L12.45 17.6641L12.1875 18.2755L12.7602 18.5523Z" fill="white"/>
<path d="M12.2993 17.1578L12.5617 16.5463L11.989 16.2695L11.7266 16.881L12.2993 17.1578Z" fill="white"/>
<path d="M12.9934 17.5683L13.1784 17.137L12.7787 16.9375L12.5938 17.3687L12.9934 17.5683Z" fill="white"/>
<path d="M12.8138 16.2675L12.9987 15.8363L12.599 15.6367L12.4141 16.068L12.8138 16.2675Z" fill="white"/>
<path d="M9.65736 14.4714L10.5283 13.9372L10.0272 13.0039L9.15625 13.5381L9.65736 14.4714Z" fill="white"/>
<path d="M10.4778 15.6349L11.1758 15.2101L10.7761 14.457L10.0781 14.8883L10.4778 15.6349Z" fill="white"/>
<path d="M11.0169 13.6935L11.7149 13.2687L11.3152 12.5156L10.6172 12.9469L11.0169 13.6935Z" fill="white"/>
<path d="M11.4899 14.7564L12.0328 14.4217L11.7226 13.8359L11.1797 14.1706L11.4899 14.7564Z" fill="white"/>
<path d="M12.193 13.1275L12.7359 12.7928L12.4257 12.207L11.8828 12.5417L12.193 13.1275Z" fill="white"/>
<path d="M12.029 15.6079L12.5718 15.2732L12.2616 14.6875L11.7188 15.0222L12.029 15.6079Z" fill="white"/>
<path d="M12.4196 14.1821L12.9625 13.8474L12.6522 13.2617L12.1094 13.5964L12.4196 14.1821Z" fill="white"/>
<path d="M12.752 14.9522L13.1338 14.7205L12.913 14.3086L12.5312 14.5403L12.752 14.9522Z" fill="white"/>
<path d="M13.3223 13.7921L13.7041 13.5604L13.4834 13.1484L13.1016 13.3802L13.3223 13.7921Z" fill="white"/>
<path d="M11.7422 10.3536L12.7444 10.4695L12.8518 9.40101L11.8496 9.28516L11.7422 10.3536Z" fill="white"/>
<path d="M11.7734 11.8092L12.5728 11.8993L12.6563 11.0432L11.857 10.9531L11.7734 11.8092Z" fill="white"/>
<path d="M13.2734 10.567L14.0728 10.6571L14.1563 9.80105L13.357 9.71094L13.2734 10.567Z" fill="white"/>
<path d="M13.0703 11.728L13.6967 11.7988L13.7623 11.1294L13.1359 11.0586L13.0703 11.728Z" fill="white"/>
<path d="M14.5312 10.8491L15.1576 10.9199L15.2233 10.2505L14.5969 10.1797L14.5312 10.8491Z" fill="white"/>
<path d="M13.0469 12.7553L13.6733 12.8261L13.7389 12.1567L13.1125 12.0859L13.0469 12.7553Z" fill="white"/>
<path d="M14.1406 11.8491L14.767 11.9199L14.8326 11.2505L14.2062 11.1797L14.1406 11.8491Z" fill="white"/>
<path d="M13.9922 12.6769L14.4336 12.7284L14.4814 12.2585L14.0399 12.207L13.9922 12.6769Z" fill="white"/>
<path d="M15.0859 12.091L15.5274 12.1425L15.5751 11.6726L15.1337 11.6211L15.0859 12.091Z" fill="white"/>
<path d="M19.8348 16.586C19.7096 16.5088 19.5724 16.4444 19.4352 16.3994C19.0832 16.2771 18.7073 16.2513 18.3375 16.3157C18.1764 16.3415 18.0153 16.3865 17.8602 16.4444L17.8125 16.4637C17.729 16.4959 17.6455 16.541 17.5619 16.586C17.4904 16.6247 17.4188 16.6697 17.3472 16.7148C17.1801 16.8242 17.0191 16.9401 16.8699 17.0688C16.7447 16.1612 16.7327 15.2408 16.8222 14.3333C16.8222 14.3333 16.8222 14.3268 16.8282 14.3268C17.21 14.5843 17.1026 15.2987 17.0191 15.5047C17.0191 15.5111 17.025 15.5111 17.025 15.5111C17.3472 15.1121 17.4009 14.5457 17.1682 14.0822C17.1682 14.0758 17.1682 14.0758 17.1742 14.0758C17.2398 14.1337 17.2935 14.1917 17.3472 14.2625C17.4725 14.4362 17.55 14.6486 17.5619 14.8675C17.5679 14.9576 17.5679 15.0477 17.5619 15.1443C17.5619 15.1636 17.556 15.1829 17.556 15.2022C17.556 15.2086 17.556 15.2086 17.5619 15.2086C17.723 14.8739 17.723 14.4749 17.5619 14.1402C17.5023 14.0243 17.4307 13.9213 17.3472 13.8248C17.3233 13.7926 17.2935 13.7668 17.2637 13.7347V13.7282C17.2637 13.7218 17.2637 13.7282 17.2696 13.7282C17.2995 13.7347 17.3233 13.7411 17.3532 13.754C17.4307 13.7797 17.5023 13.8248 17.5679 13.8763C17.7051 13.9857 17.8065 14.1337 17.8662 14.3075C17.9139 14.4362 17.9378 14.565 17.9378 14.7001C17.9378 14.7001 17.9378 14.7066 17.9437 14.7066C17.9497 14.7066 17.9497 14.7066 17.9497 14.7001C18.0332 14.4298 18.0034 14.1402 17.8722 13.8956C17.7946 13.7668 17.6932 13.6639 17.5739 13.5866C17.5083 13.5416 17.4367 13.5094 17.3591 13.4836C17.3233 13.4708 17.2935 13.4643 17.2577 13.4579C17.2517 13.4579 17.2517 13.4515 17.2577 13.4515C17.2935 13.445 17.3293 13.445 17.3591 13.445C17.4307 13.445 17.5023 13.4515 17.5739 13.4643C17.6813 13.4836 17.7827 13.5287 17.8722 13.5931C17.9557 13.651 18.0213 13.7282 18.075 13.8248C18.075 13.8312 18.081 13.8248 18.081 13.8248C18.069 13.6574 17.9915 13.5029 17.8722 13.3935C17.7827 13.3163 17.6813 13.2584 17.5739 13.2262C17.5023 13.2069 17.4307 13.194 17.3591 13.194C17.2696 13.194 17.1742 13.2069 17.0907 13.2455C17.0847 13.2455 17.0847 13.2455 17.0847 13.239C17.1503 13.1361 17.2458 13.0653 17.3591 13.0331C17.4307 13.0073 17.5023 13.0009 17.5739 13.0073C17.6335 13.0073 17.6932 13.0266 17.7469 13.0524H17.7528V13.046C17.6992 12.9816 17.6395 12.9301 17.5739 12.8915C17.5083 12.8529 17.4367 12.8271 17.3591 12.8142C17.1503 12.7885 16.9535 12.8979 16.8461 13.091H16.8401C16.8162 13.046 16.7924 12.988 16.7685 12.9365C16.7148 12.8014 16.6731 12.6598 16.6492 12.5182C16.6492 12.5182 16.6492 12.5117 16.6432 12.5117C16.6432 12.5117 16.6373 12.5117 16.6373 12.5182C16.6134 12.6598 16.5717 12.8014 16.518 12.9365C16.4941 12.988 16.4762 13.0395 16.4464 13.091H16.4404C16.2793 12.8142 15.9333 12.7306 15.6768 12.9043C15.6231 12.943 15.5694 12.9945 15.5336 13.046V13.0524H15.5396C15.7723 12.9494 16.0467 13.0266 16.2018 13.239V13.2455H16.1958C15.8975 13.1296 15.5635 13.2197 15.3487 13.4708C15.2711 13.5737 15.2175 13.696 15.2055 13.8248C15.2055 13.8312 15.2115 13.8312 15.2115 13.8248C15.2473 13.7604 15.289 13.7025 15.3427 13.651C15.5336 13.4836 15.7842 13.4128 16.0288 13.4515C16.0347 13.4515 16.0347 13.4579 16.0288 13.4579C15.7245 13.5158 15.462 13.7347 15.3427 14.0436C15.2771 14.256 15.2711 14.4877 15.3368 14.7001C15.3368 14.7001 15.3368 14.7066 15.3427 14.7066C15.3487 14.7066 15.3487 14.7066 15.3487 14.7001V14.6808C15.3427 14.2367 15.6172 13.8376 16.0169 13.7218C16.0169 13.7218 16.0228 13.7218 16.0228 13.7282V13.7347C15.6112 14.0822 15.4799 14.7001 15.7186 15.2022H15.7245V15.1958C15.6529 14.7709 15.8021 14.3397 16.1063 14.0629C16.1123 14.0629 16.1123 14.0629 16.1123 14.0694C15.8796 14.5328 15.9393 15.0992 16.2555 15.4983C16.2555 15.5047 16.2614 15.4983 16.2614 15.4918C16.1839 15.2859 16.0765 14.5714 16.4523 14.3139H16.4583C16.5478 15.2279 16.5299 16.1419 16.4106 17.0495C16.1242 16.8049 15.8081 16.5989 15.468 16.4509C15.4263 16.438 15.3905 16.4187 15.3547 16.4058C15.0683 16.3028 14.7641 16.2578 14.4658 16.2707C14.1436 16.2835 13.8334 16.3672 13.5471 16.5217C13.5113 16.541 13.4815 16.5603 13.4576 16.5732C13.4516 16.5796 13.4516 16.5796 13.4576 16.586C13.4576 16.586 13.4636 16.5925 13.4695 16.5925C13.4994 16.586 13.5232 16.5732 13.553 16.5667C13.8513 16.4766 14.1615 16.4444 14.4718 16.4702C14.782 16.5024 15.0802 16.586 15.3606 16.7276C15.7424 16.9207 16.1004 17.1718 16.4225 17.4678C16.0884 17.8154 15.7305 18.1372 15.3606 18.4398C15.3487 18.4462 15.3368 18.4526 15.3248 18.4591C15.2413 18.3368 15.0862 18.311 14.9788 18.4011C14.9311 18.4398 14.8953 18.4913 14.8834 18.5556C14.8655 18.6393 14.8834 18.723 14.9311 18.7873C15.0445 18.9096 15.2175 18.9354 15.3606 18.8517C15.6708 18.7101 16.0586 18.2724 16.5359 17.8025C16.5776 17.7639 16.6134 17.7253 16.6552 17.6867C16.6969 17.7253 16.7327 17.7639 16.7745 17.8025C16.9892 18.015 17.1861 18.2209 17.3651 18.3947C17.4367 18.4655 17.5083 18.5363 17.5798 18.5942C17.6753 18.6779 17.7707 18.7552 17.8781 18.8195C18.0213 18.9354 18.2182 18.9289 18.3554 18.8066C18.3613 18.8002 18.3673 18.7938 18.3792 18.7873C18.427 18.723 18.4389 18.6393 18.427 18.5556C18.415 18.5041 18.3912 18.4591 18.3554 18.4269C18.3255 18.3947 18.2838 18.369 18.242 18.3561C18.1466 18.3303 18.0452 18.3754 17.9855 18.4591C17.9497 18.4398 17.9139 18.414 17.8841 18.3883C17.7827 18.311 17.6813 18.2209 17.5858 18.1308C17.5202 18.0664 17.4486 17.9956 17.371 17.9248C17.2219 17.7832 17.0608 17.6223 16.8938 17.4614C17.0489 17.3262 17.21 17.1911 17.371 17.0752C17.4426 17.0237 17.5142 16.9787 17.5858 16.9272C17.6813 16.8628 17.7827 16.8113 17.8841 16.7534C18.0392 16.6762 18.1943 16.6118 18.3613 16.5603C18.7193 16.4509 19.0891 16.4251 19.459 16.4895C19.5903 16.5152 19.7215 16.5474 19.8527 16.586C19.8587 16.586 19.8647 16.586 19.8647 16.5796C19.8408 16.5925 19.8408 16.586 19.8348 16.586Z" fill="white"/>
</svg>
