<svg width="91" height="33" viewBox="0 0 91 33" fill="none" xmlns="http://www.w3.org/2000/svg">
<path d="M3.79669 4.88281H5.05576V11.5094C5.05576 13.8488 4.15616 14.8237 2.35882 14.8237C0.919076 14.8237 0.0213506 13.8488 0.0213506 11.7033C-0.00480956 11.1125 0.0588028 10.521 0.209553 9.94922L1.46863 9.55964C1.3175 10.2616 1.25483 10.98 1.28231 11.6976C1.28231 13.2578 1.82245 13.6474 2.54138 13.6474C3.26031 13.6474 3.80045 13.2578 3.80045 11.6976L3.79669 4.88281ZM6.49363 14.8255V13.6549C7.0238 13.7818 7.56714 13.845 8.11217 13.8431C9.01178 13.8431 9.73071 13.4535 9.73071 12.4787V12.2905H9.01178C7.03377 12.2905 6.31296 11.3156 6.31296 9.9511C6.31296 8.58663 7.21256 7.22217 9.01178 7.22217C9.68874 7.22988 10.3586 7.362 10.9879 7.61175V11.3212H12.0682V12.2961H10.9879C10.9879 13.8563 10.0902 15.0269 7.9315 15.0269C7.4465 15.02 6.96414 14.9567 6.49363 14.8387M9.73071 8.59981C9.44897 8.46995 9.14126 8.40558 8.8311 8.41161C8.11217 8.41161 7.57203 8.99503 7.57203 9.77419C7.57203 10.751 8.11217 11.3344 9.01178 11.3344H9.73071V8.59981ZM11.1686 11.9141C11.1686 11.5245 11.7087 11.3287 11.8875 11.3287H15.3034V10.5364C15.3034 9.17194 14.7651 8.39279 13.3254 8.39279C12.9557 8.36079 12.584 8.42572 12.247 8.58099V7.41602H13.5155C15.6723 7.41602 16.5719 8.39279 16.5719 10.3407V11.3212H17.112V12.2961H11.8875C11.7087 12.2961 11.1686 12.1079 11.1686 11.9065M16.9219 12.2961C16.7431 12.2961 16.3837 12.1079 16.3837 11.9065C16.388 11.6043 16.6212 11.3508 16.9219 11.3212H18.181V7.41602H19.4401V11.3212H20.5185V12.2961H16.9219ZM18.0003 5.27616C18.3969 5.32132 18.7042 5.65275 18.7193 6.05155C18.7193 6.44113 18.3598 6.63498 18.0003 6.63498C17.6409 6.63498 17.4677 6.44113 17.4677 6.05155C17.4677 5.66197 17.6465 5.27051 18.006 5.27051M19.6245 5.27051C19.984 5.27051 20.1646 5.66385 20.1646 6.05155C20.1646 6.43925 19.9764 6.63498 19.6245 6.63498C19.2726 6.63498 18.9056 6.44677 18.9056 6.05155C18.9178 5.65049 19.2259 5.31587 19.6245 5.27051ZM20.3434 12.2905C20.1646 12.2905 19.6245 12.1023 19.6245 11.9009C19.6245 11.5113 20.1646 11.3156 20.3434 11.3156H21.42V4.88281H22.6771V12.2905H20.3434ZM24.2957 4.88281H25.5604V12.2905H24.3013L24.2957 4.88281ZM31.8464 12.2905C30.4066 12.2905 30.0472 12.8758 30.0472 13.4611C30.0472 14.0464 30.5873 14.6317 31.6657 14.6317V15.8004C29.6877 15.8004 28.79 14.8255 28.79 13.6549C28.79 12.2905 29.6877 11.3156 32.0252 11.3156H32.5634C32.5634 10.926 32.7516 10.7321 32.7516 10.5364C32.7516 9.17194 32.2115 8.39279 30.7736 8.39279C30.404 8.3606 30.0321 8.42553 29.6952 8.58099V7.41602H30.9524C33.113 7.41602 34.0107 8.39279 34.0107 10.3407C34.0363 10.6766 33.9714 11.0133 33.8225 11.3156H34.5433V12.2905H31.8464ZM32.5634 13.0715C32.9628 13.1144 33.2726 13.4492 33.2842 13.8507C33.2842 14.2402 32.9248 14.436 32.5634 14.436C32.2021 14.436 31.8464 14.2478 31.8464 13.8507C31.8571 13.4502 32.1652 13.1153 32.5634 13.0715ZM34.3645 12.2905C34.1763 12.2905 33.8225 12.1023 33.8225 11.9009C33.8306 11.5999 34.0647 11.3494 34.3645 11.3212H35.6198C35.2622 11.133 35.0816 10.5421 35.0816 9.76102C35.0816 8.39843 35.9812 7.22781 37.5997 7.22781C39.2183 7.22781 39.9353 8.2027 39.9353 9.76102V12.2905H34.3645ZM38.6781 9.75537C38.6781 8.78236 38.138 8.39279 37.5997 8.39279C36.8789 8.39279 36.3406 8.97621 36.3406 9.75537C36.3406 10.7321 36.8789 11.3156 37.7785 11.3156H38.6781V9.75537ZM41.1944 4.88281H42.6341V11.3212H43.5337V12.2961H41.1944V4.88281ZM43.3512 12.2905C43.1724 12.2905 42.8129 12.1023 42.8129 11.9009C42.8201 11.6009 43.0525 11.3506 43.3512 11.3212H44.6102V7.41602H45.8693V12.2905H43.3512ZM45.1523 5.27051C45.5099 5.27051 45.8693 5.66385 45.8693 6.05155C45.8693 6.43925 45.5099 6.83259 45.1523 6.83259C44.7947 6.83259 44.6102 6.44113 44.6102 6.05155C44.6102 5.66197 44.7985 5.27051 45.1523 5.27051ZM46.05 15.0213V13.8507C46.4076 13.8507 46.5901 14.0389 46.9496 14.0389C47.4879 14.0389 48.028 13.6474 48.028 12.4787V7.41602H49.2852V11.3212H50.1848V12.2961H49.2852V12.4843C49.2852 13.8488 48.7469 15.0194 46.7689 15.0194L46.05 15.0213ZM49.8253 12.2905C49.6465 12.2905 49.2852 12.1023 49.2852 11.9009C49.2933 11.6005 49.5263 11.3504 49.8253 11.3212H51.0844V7.41602H52.3416V12.2905H49.8253ZM51.6245 13.0715C52.0224 13.1161 52.3301 13.4503 52.3416 13.8507C52.3416 14.2402 51.9821 14.436 51.6245 14.436C51.267 14.436 50.9037 14.2478 50.9037 13.8507C50.9163 13.4494 51.2256 13.1152 51.6245 13.0715Z" fill="white"/>
<path d="M24.6981 25.7436C21.9993 25.7436 21.1016 24.5748 21.1016 22.6251C21.1016 22.0398 21.2898 21.4545 21.2898 21.0649L22.7295 20.8767C22.5027 21.4326 22.3785 22.0249 22.3625 22.6251C22.3625 23.9895 22.9027 24.7687 24.8807 24.7687H25.4208V20.8691C26.0727 20.7438 26.735 20.6807 27.3988 20.6809C29.1961 20.6809 29.7344 21.6558 29.7344 23.0203V24.7743H30.4552V25.7492H28.4734V23.2104C28.4734 22.2355 28.114 21.844 27.395 21.844H26.6742V25.7436H24.6981ZM23.6178 26.5246C23.9792 26.5246 24.158 26.9142 24.158 27.3038C24.158 27.6934 23.9698 28.0848 23.6178 28.0848C23.2149 28.0506 22.9013 27.7092 22.9013 27.3047C22.9013 26.9003 23.2149 26.5589 23.6178 26.5246ZM25.2364 26.5246C25.5958 26.5246 25.7765 26.9142 25.7765 27.3038C25.7765 27.6934 25.5883 28.0848 25.2364 28.0848C24.8334 28.0506 24.5199 27.7092 24.5199 27.3047C24.5199 26.9003 24.8334 26.5589 25.2364 26.5246ZM30.4044 24.7687H31.4847V20.8691H32.9226V24.7687H33.8203V25.7436H30.4082M32.2055 18.7255C32.6084 18.7598 32.922 19.1012 32.922 19.5056C32.922 19.9101 32.6084 20.2515 32.2055 20.2857C31.8479 20.2857 31.4885 19.8943 31.4885 19.5047C31.4999 19.1044 31.8076 18.7701 32.2055 18.7255ZM33.6547 25.7436C33.4665 25.7436 33.1164 25.5554 33.1164 25.354C33.1207 25.0517 33.3539 24.7982 33.6547 24.7687H34.9137V18.3359H36.1728V21.0649C36.1728 21.6502 36.1728 22.2355 35.9846 22.6251C36.5247 21.4544 37.4244 20.6753 38.5009 20.6753C39.9387 20.6753 40.6595 21.6502 40.6595 23.2104C40.6595 24.5748 39.7599 25.7436 37.6031 25.7436H33.6547ZM37.7951 24.7687C38.8754 24.7687 39.2349 23.9895 39.2349 23.2104C39.2349 22.4312 38.8754 21.844 38.3353 21.844C37.255 21.844 36.3572 23.2104 36.1785 24.7687H37.7951ZM41.5592 28.2787L41.738 27.3038C42.209 27.4218 42.6921 27.4848 43.1777 27.492C44.2561 27.492 44.9769 26.9067 44.9769 25.9318V25.7436H44.0773C42.28 25.7436 41.5592 24.9644 41.5592 23.4042C41.5592 22.0398 42.28 20.6753 44.0773 20.6753C44.8141 20.67 45.5457 20.8021 46.2341 21.0649V24.7687H47.1337V25.7436H46.2341V25.9318C46.2341 27.2963 45.3364 28.4669 43.1777 28.4669C42.6327 28.4686 42.0893 28.4053 41.5592 28.2787ZM44.9732 22.0492C44.6325 21.9058 44.2638 21.8414 43.8947 21.861C43.1739 21.861 42.8145 22.4463 42.8145 23.2273C42.8145 24.2022 43.1739 24.7856 44.2523 24.7856H44.9732V22.0492ZM46.9512 25.753C46.763 25.753 46.4091 25.5648 46.4091 25.3634C46.4144 25.0602 46.6493 24.8067 46.9512 24.7781H48.2102V18.3359H49.4637V25.7436L46.9512 25.753ZM51.0916 18.3453H52.3488V25.753H51.0916V18.3453Z" fill="white"/>
<path d="M80.9851 17.3536C80.8063 17.3536 80.4469 17.1848 80.0855 17.0042C79.3382 16.76 78.5311 16.7018 77.7499 16.8353C77.3905 17.0042 77.0291 17.0042 76.6696 17.1848C76.4908 17.1848 76.3102 17.3536 76.1314 17.3536C75.9526 17.5224 75.7719 17.5224 75.5912 17.7031C75.1883 17.8768 74.8232 18.1135 74.5128 18.402C74.2358 16.6035 74.2358 14.7796 74.5128 12.9811C75.2318 13.5062 75.0511 14.9057 74.8723 15.2552C75.9526 14.2051 75.4106 12.8055 75.2318 12.4561C75.4106 12.6249 75.5912 12.8055 75.5912 12.8055C75.9526 13.3306 75.9526 13.68 76.1314 14.0312V14.7301C76.3102 14.2051 76.4908 13.3306 76.1314 12.6317C75.9072 12.4287 75.7245 12.1922 75.5912 11.9327C75.4879 11.9327 75.403 11.8566 75.403 11.7639L75.5912 11.9327C75.7909 11.9083 75.9919 11.9712 76.1314 12.1016C76.3102 12.2704 76.6696 12.6266 76.6696 12.9761C76.8578 13.1449 76.8578 13.5011 76.8578 13.675C77.046 12.9761 77.046 12.451 76.6696 12.1016L76.1314 11.5866C75.9919 11.4563 75.7909 11.3933 75.5912 11.4178C75.5912 11.3251 75.5064 11.249 75.403 11.249H76.1239C76.3026 11.4178 76.4833 11.4178 76.6621 11.5985C77.0216 11.7673 77.0216 11.9496 77.2041 11.9496C77.2041 11.5985 77.0159 11.4246 76.6621 11.249C76.4833 11.0802 76.3026 10.8995 76.1239 10.8995C75.8124 10.6664 75.355 10.6664 75.0436 10.8995L75.5837 10.3745H76.1239C76.2635 10.3865 76.3926 10.4471 76.4833 10.5433L76.1239 10.1939C75.9848 10.063 75.7834 10.0001 75.5837 10.025C75.2242 10.025 74.686 10.1939 74.5053 10.5501C74.4033 10.4542 74.3374 10.332 74.3171 10.2006C74.1289 10.0318 74.1289 9.67558 74.1289 9.5C73.9407 9.66882 73.9407 10.025 73.7676 10.2006C73.7676 10.3694 73.7676 10.5501 73.5888 10.5501C73.0505 9.84946 72.1509 9.84946 71.6126 10.5501C72.1187 10.3217 72.7422 10.4733 73.0505 10.8995C72.4302 10.6688 71.7113 10.8085 71.2532 11.249C71.065 11.4178 71.065 11.774 70.8918 11.9496C71.08 11.9496 71.08 11.7808 71.2532 11.5985C71.6847 11.3597 72.1842 11.2384 72.691 11.249C72.3297 11.4178 71.6126 11.774 71.2532 12.473C71.065 12.8224 71.065 13.1736 71.2532 13.6969C71.2532 12.998 71.6126 12.1235 72.691 11.774C71.6126 12.8224 71.6126 14.0481 71.9702 14.747H72.1584C71.8965 13.9294 72.1759 13.0456 72.8774 12.473C72.6986 12.8224 72.1584 14.222 73.2368 15.272C73.0486 14.9226 72.8774 13.523 73.5963 12.998C73.8733 14.7965 73.8733 16.6204 73.5963 18.4189C72.8774 17.8955 72.1584 17.3705 71.4395 17.1949L71.2607 17.0261C70.6135 16.8833 69.9465 16.8264 69.2808 16.8573C68.5831 16.8786 67.9028 17.0594 67.3047 17.3823C67.9519 17.2469 68.6166 17.19 69.2808 17.2135C69.9851 17.2018 70.6767 17.3852 71.2607 17.7385C72.1584 18.088 72.8774 18.613 73.5963 19.1381C72.516 20.0126 71.799 20.7115 71.2607 21.061C71.1203 20.9308 70.9189 20.868 70.7187 20.8921C70.3611 20.8921 70.3611 21.061 70.1804 21.2416C70.1571 21.4325 70.2256 21.6236 70.3686 21.7666C70.5474 21.9355 70.9069 21.9355 71.2682 21.9355C71.9853 21.586 72.7061 20.7115 73.7826 19.837C73.9708 19.837 73.9708 19.6682 74.144 19.6682L74.3322 19.837C74.8704 20.1865 75.2299 20.7115 75.5894 21.061C75.7776 21.061 75.9507 21.2298 76.1295 21.4121C76.3083 21.5944 76.489 21.7616 76.6678 21.7616C77.0272 21.9304 77.3886 22.111 77.748 21.7616C77.9268 21.7616 77.9268 21.4121 77.9268 21.2365L77.748 21.0677L77.5598 20.8989C77.2023 20.8989 77.0197 20.8989 76.8409 21.0677H76.6527L76.1144 20.5444C75.9356 20.3755 75.755 20.1932 75.5743 20.0193C75.2148 19.8505 74.8554 19.4943 74.4959 19.1448C74.8554 18.976 75.2148 18.6198 75.5743 18.4442C75.7625 18.2754 75.9356 18.2754 76.1144 18.0947C76.2932 18.0947 76.4739 17.9259 76.6527 17.7453C77.0122 17.5765 77.3735 17.5765 77.733 17.3958C78.45 17.227 79.1708 17.227 80.0686 17.227C80.3417 17.3654 80.6561 17.4244 80.9682 17.3958" fill="white"/>
<path d="M71.9934 2.31641L73.2525 3.54037L71.9934 4.59044L70.7344 3.54037L71.9934 2.31641Z" fill="white"/>
<path d="M74.8672 3.54037L76.1263 4.59044L77.3853 3.54037L76.1263 2.31641L74.8672 3.54037Z" fill="white"/>
<path d="M73.0703 5.11258L74.1487 5.98708L75.0464 4.93869L73.968 4.0625L73.0703 5.11258Z" fill="white"/>
<path d="M76.6641 5.63823L77.5637 6.51442L78.6421 5.46434L77.5637 4.58984L76.6641 5.63823Z" fill="white"/>
<path d="M71.4531 6.51492L72.5296 7.38773L73.4311 6.51492L72.3509 5.46484L71.4531 6.51492Z" fill="white"/>
<path d="M74.6875 6.51291L75.7659 7.56129L76.6636 6.51291L75.7659 5.63672L74.6875 6.51291Z" fill="white"/>
<path d="M73.4297 7.73968L74.1486 8.26302L74.8676 7.73968L74.1486 7.03906L73.4297 7.73968Z" fill="white"/>
<path d="M76.125 8.26142L76.8421 8.78646L77.3841 8.08585L76.6633 7.5625L76.125 8.26142Z" fill="white"/>
<path d="M81.7031 3.18741L82.0626 5.11199L84.2194 4.76252L83.8599 2.66406L81.7031 3.18741Z" fill="white"/>
<path d="M79.0078 4.06262L79.1866 5.63773L80.9839 5.28658L80.6264 3.71484L79.0078 4.06262Z" fill="white"/>
<path d="M82.2422 6.33774L82.6017 7.91286L84.2202 7.73897L84.0395 5.98828L82.2422 6.33774Z" fill="white"/>
<path d="M79.9062 6.5132L80.085 7.91105L81.5248 7.56159L81.1653 6.33594L79.9062 6.5132Z" fill="white"/>
<path d="M82.4219 8.96464L82.7795 10.3625L84.0385 10.013L83.8597 8.78906L82.4219 8.96464Z" fill="white"/>
<path d="M77.9297 7.03717L78.1104 8.43502L79.5482 8.08556L79.1888 6.86328L77.9297 7.03717Z" fill="white"/>
<path d="M80.2656 8.78474L80.6232 10.0087L81.8823 9.83313L81.7035 8.43359L80.2656 8.78474Z" fill="white"/>
<path d="M78.6484 8.96464L78.8291 9.83745L79.7287 9.66356L79.548 8.78906L78.6484 8.96464Z" fill="white"/>
<path d="M80.4453 10.709L80.626 11.7591L81.5218 11.5835L81.343 10.5352L80.4453 10.709Z" fill="white"/>
<path d="M87.9934 9.83594L87.0938 11.7605L89.0699 12.635L89.9695 10.7104L87.9934 9.83594Z" fill="white"/>
<path d="M85.2971 8.96094L84.5781 10.5344L86.1948 11.2333L86.9156 9.65986L85.2971 8.96094Z" fill="white"/>
<path d="M86.5549 12.8086L85.8359 14.2081L87.4526 15.0826L88.1734 13.5092L86.5549 12.8086Z" fill="white"/>
<path d="M84.5783 11.582L83.8594 12.806L85.1184 13.331L85.6567 12.1071L84.5783 11.582Z" fill="white"/>
<path d="M85.1183 15.082L84.5781 16.306L85.8353 16.831L86.3773 15.6071L85.1183 15.082Z" fill="white"/>
<path d="M82.6008 10.8867L82.0625 12.1107L83.139 12.6357L83.8598 11.4118L82.6008 10.8867Z" fill="white"/>
<path d="M83.5011 13.6836L82.9609 14.9092L84.22 15.4326L84.7602 14.2086L83.5011 13.6836Z" fill="white"/>
<path d="M82.0626 12.8086L81.7031 13.6831L82.4202 14.0342L82.9603 13.1597L82.0626 12.8086Z" fill="white"/>
<path d="M82.422 15.4297L82.0625 16.1303L82.7796 16.6553L83.3216 15.7791L82.422 15.4297Z" fill="white"/>
<path d="M89.0708 18.9297L87.2734 19.9798L88.1731 21.9026L90.151 20.8543L89.0708 18.9297Z" fill="white"/>
<path d="M87.4545 16.6562L85.8359 17.5308L86.7374 18.9286L88.1753 18.2297L87.4545 16.6562Z" fill="white"/>
<path d="M86.1967 20.5039L84.5781 21.2028L85.4796 22.7763L87.0963 21.9018L86.1967 20.5039Z" fill="white"/>
<path d="M85.1193 18.4062L84.0391 18.9296L84.5792 20.1536L85.8364 19.4546L85.1193 18.4062Z" fill="white"/>
<path d="M83.6809 21.5508L82.4219 22.0758L83.1389 23.2998L84.2192 22.6009L83.6809 21.5508Z" fill="white"/>
<path d="M84.0393 16.6562L82.9609 17.3552L83.5011 18.4036L84.7602 17.8802L84.0393 16.6562Z" fill="white"/>
<path d="M83.139 19.4531L82.0625 20.152L82.6008 21.2021L83.8598 20.6771L83.139 19.4531Z" fill="white"/>
<path d="M82.4221 17.8828L81.7031 18.4079L82.0626 19.2807L82.9603 18.7573L82.4221 17.8828Z" fill="white"/>
<path d="M81.1642 20.1523L80.4453 20.6774L80.8048 21.378L81.7044 21.0268L81.1642 20.1523Z" fill="white"/>
<path d="M84.5788 26.9762L82.4201 26.625L82.0625 28.7252L84.2193 29.0746L84.5788 26.9762Z" fill="white"/>
<path d="M84.3989 24.1776L82.7804 23.8281L82.6016 25.5771L84.2201 25.751L84.3989 24.1776Z" fill="white"/>
<path d="M81.1664 26.449L79.5479 26.2734L79.3672 27.8486L80.9857 28.198L81.1664 26.449Z" fill="white"/>
<path d="M81.7035 24.1778L80.2656 24.0039V25.4018L81.5209 25.5773L81.7035 24.1778Z" fill="white"/>
<path d="M78.4613 25.9256L77.206 25.75L77.0234 26.9756L78.2825 27.1495L78.4613 25.9256Z" fill="white"/>
<path d="M81.7035 22.2537L80.4444 22.0781L80.2656 23.3021L81.5209 23.4777L81.7035 22.2537Z" fill="white"/>
<path d="M79.3616 24.0037L78.1025 23.8281L77.9219 25.0521L79.1809 25.2277L79.3616 24.0037Z" fill="white"/>
<path d="M79.7268 22.2539H78.8291L78.6484 23.1284L79.548 23.3023L79.7268 22.2539Z" fill="white"/>
<path d="M77.385 23.4764L76.4854 23.3008L76.3047 24.1753L77.2062 24.3509L77.385 23.4764Z" fill="white"/>
<path d="M75.947 30.8214L74.3285 29.4219L72.8906 30.8214L74.5073 32.221L75.947 30.8214Z" fill="white"/>
<path d="M75.5877 1.2664L74.1517 0.0390625L72.5312 1.44029L74.1517 2.83814L75.5877 1.2664Z" fill="white"/>
<path d="M77.564 28.5482L76.305 27.3242L75.2266 28.5482L76.4856 29.7721L77.564 28.5482Z" fill="white"/>
<path d="M73.61 28.5482L72.3509 27.3242L71.0938 28.5482L72.3509 29.7721L73.61 28.5482Z" fill="white"/>
<path d="M75.227 26.9761L74.3293 26.1016L73.4297 26.9761L74.3293 27.8506L75.227 26.9761Z" fill="white"/>
<path d="M71.8139 26.4487L70.7337 25.5742L69.8359 26.6226L70.7337 27.4988L71.8139 26.4487Z" fill="white"/>
<path d="M76.6636 25.3979L75.5833 24.5234L74.6875 25.3979L75.5833 26.2724L76.6636 25.3979Z" fill="white"/>
<path d="M73.6089 25.3979L72.5287 24.5234L71.6328 25.5735L72.7112 26.448L73.6089 25.3979Z" fill="white"/>
<path d="M74.8684 24.353L74.1514 23.6523L73.6094 24.353L74.1514 25.0519L74.8684 24.353Z" fill="white"/>
<path d="M72.3519 23.8258L71.6349 23.3008L70.9141 24.0014L71.6349 24.5247L72.3519 23.8258Z" fill="white"/>
<path d="M66.7751 29.075L66.2349 26.9766L64.0781 27.326L64.6164 29.4245L66.7751 29.075Z" fill="white"/>
<path d="M69.4761 28.2021L69.1185 26.4531L67.5 26.8026L67.8595 28.376L69.4761 28.2021Z" fill="white"/>
<path d="M66.0542 25.9248L65.6967 24.1758L64.0781 24.5252L64.4376 26.2742L66.0542 25.9248Z" fill="white"/>
<path d="M68.3988 25.5755L68.22 24.3516L66.9609 24.5254L67.1397 25.7494L68.3988 25.5755Z" fill="white"/>
<path d="M70.3772 25.0519L70.1985 23.6523L68.9375 24.0035L69.1182 25.2275L70.3772 25.0519Z" fill="white"/>
<path d="M68.0345 23.3021L67.6731 22.0781L66.4141 22.4276L66.7754 23.6515L68.0345 23.3021Z" fill="white"/>
<path d="M69.6565 23.1245L69.474 22.25L68.5781 22.4256L68.7569 23.3001L69.6565 23.1245Z" fill="white"/>
<path d="M67.8597 21.3784L67.679 20.5039L66.7812 20.6778L66.9619 21.5523L67.8597 21.3784Z" fill="white"/>
<path d="M60.3042 22.4263L61.2039 20.5034L59.2277 19.6289L58.3281 21.5518L60.3042 22.4263Z" fill="white"/>
<path d="M62.9995 23.1258L63.7203 21.728L62.2824 21.0273L61.3828 22.4269L62.9995 23.1258Z" fill="white"/>
<path d="M61.7417 19.4537L62.4625 17.8803L60.8458 17.1797L60.125 18.7548L61.7417 19.4537Z" fill="white"/>
<path d="M63.72 20.5029L64.2583 19.4528L63.1799 18.7539L62.4609 19.9779L63.72 20.5029Z" fill="white"/>
<path d="M65.3381 23.4775L66.0551 22.4274L64.7961 21.9023L64.2578 22.9524L65.3381 23.4775Z" fill="white"/>
<path d="M63.1791 17.1809L63.7192 15.9569L62.4601 15.4336L61.9219 16.6576L63.1791 17.1809Z" fill="white"/>
<path d="M65.6966 21.2021L66.2348 19.9782L64.9776 19.4531L64.4375 20.6771L65.6966 21.2021Z" fill="white"/>
<path d="M64.8041 18.581L65.3442 17.3571L64.0851 16.832L63.5469 18.0577L64.8041 18.581Z" fill="white"/>
<path d="M66.2415 19.2786L66.6028 18.5797L65.7032 18.0547L65.3438 18.9292L66.2415 19.2786Z" fill="white"/>
<path d="M65.8821 16.8294L66.2416 15.9549L65.3438 15.6055L64.9844 16.48L65.8821 16.8294Z" fill="white"/>
<path d="M59.0472 13.3323L61.0252 12.284L59.9449 10.3594L57.9688 11.4095L59.0472 13.3323Z" fill="white"/>
<path d="M60.8468 15.6061L62.2847 14.7316L61.3851 13.332L59.9453 14.0326L60.8468 15.6061Z" fill="white"/>
<path d="M61.923 11.7584L63.5416 10.8839L62.642 9.48438L61.0234 10.3589L61.923 11.7584Z" fill="white"/>
<path d="M62.9983 13.8584L64.0786 13.1595L63.5403 12.1094L62.2812 12.6344L62.9983 13.8584Z" fill="white"/>
<path d="M64.4445 10.7119L65.7036 10.013L64.9847 8.78906L63.9062 9.48799L64.4445 10.7119Z" fill="white"/>
<path d="M64.0851 15.4326L65.3442 14.9092L64.6234 13.6836L63.5469 14.3842L64.0851 15.4326Z" fill="white"/>
<path d="M64.9786 12.8096L66.2358 12.1107L65.5169 10.8867L64.2578 11.5856L64.9786 12.8096Z" fill="white"/>
<path d="M65.7023 14.2083L66.6019 13.685L66.0599 12.9844L65.1641 13.3338L65.7023 14.2083Z" fill="white"/>
<path d="M66.9561 11.9366L67.8538 11.5854L67.3156 10.7109L66.4141 11.236L66.9561 11.9366Z" fill="white"/>
<path d="M63.5469 5.28596L65.7037 5.46323L65.8825 3.36476L63.7257 3.1875L63.5469 5.28596Z" fill="white"/>
<path d="M63.5469 8.08494L65.3442 8.26051L65.523 6.5132L63.7257 6.33594L63.5469 8.08494Z" fill="white"/>
<path d="M66.7812 5.63761L68.5786 5.81319L68.7593 4.23808L66.9619 4.0625L66.7812 5.63761Z" fill="white"/>
<path d="M66.4141 7.91146L67.6731 8.08535L67.8538 6.6875H66.5966L66.4141 7.91146Z" fill="white"/>
<path d="M69.4766 6.15977L70.9163 6.33535L71.097 5.11139L69.6591 4.9375L69.4766 6.15977Z" fill="white"/>
<path d="M66.4141 10.0111H67.6731L67.8538 8.78717L66.4141 8.61328V10.0111Z" fill="white"/>
<path d="M68.7578 8.08724L70.0169 8.26282L70.1957 7.03886L68.9366 6.86328L68.7578 8.08724Z" fill="white"/>
<path d="M68.3984 9.83745H69.2962L69.4768 8.96464L68.3984 8.78906V9.83745Z" fill="white"/>
<path d="M70.7344 8.61278L71.634 8.78667L71.8147 7.91217L70.915 7.73828L70.7344 8.61278Z" fill="white"/>
<path d="M4.38989 24.1619V25.2344H0.342379C0.38621 24.8289 0.517703 24.4454 0.736857 24.0838C0.956012 23.7195 1.38884 23.2373 2.03535 22.6374C2.55584 22.1525 2.87498 21.8238 2.99278 21.6512C3.15167 21.4129 3.23111 21.1773 3.23111 20.9444C3.23111 20.6869 3.16125 20.4897 3.02154 20.3527C2.88457 20.213 2.69418 20.1431 2.45037 20.1431C2.2093 20.1431 2.01754 20.2157 1.87509 20.3609C1.73264 20.5061 1.65046 20.7472 1.62854 21.0841L0.477981 20.9691C0.546467 20.3335 0.761512 19.8774 1.12312 19.6007C1.48472 19.324 1.93673 19.1857 2.47914 19.1857C3.07359 19.1857 3.54067 19.346 3.88036 19.6665C4.22005 19.987 4.38989 20.3856 4.38989 20.8622C4.38989 21.1334 4.34058 21.3923 4.24196 21.6389C4.14608 21.8827 3.99267 22.1388 3.78174 22.4073C3.64203 22.5853 3.39 22.8415 3.02565 23.1757C2.66131 23.5099 2.42983 23.7318 2.33121 23.8414C2.23533 23.951 2.15725 24.0578 2.09699 24.1619H4.38989ZM7.12658 19.1857C7.71008 19.1857 8.1662 19.3939 8.49493 19.8103C8.88667 20.3034 9.08254 21.1211 9.08254 22.2635C9.08254 23.4031 8.8853 24.2222 8.49082 24.7207C8.16483 25.1316 7.71008 25.3371 7.12658 25.3371C6.54034 25.3371 6.06779 25.1125 5.70893 24.6632C5.35006 24.2112 5.17063 23.4072 5.17063 22.2511C5.17063 21.117 5.36787 20.3007 5.76235 19.8021C6.08834 19.3912 6.54308 19.1857 7.12658 19.1857ZM7.12658 20.1431C6.98687 20.1431 6.86223 20.1883 6.75265 20.2787C6.64307 20.3664 6.55815 20.5253 6.49788 20.7554C6.41844 21.054 6.37872 21.5567 6.37872 22.2635C6.37872 22.9702 6.41433 23.4565 6.48556 23.7222C6.55678 23.9852 6.64581 24.1605 6.75265 24.2482C6.86223 24.3358 6.98687 24.3797 7.12658 24.3797C7.26629 24.3797 7.39094 24.3358 7.50052 24.2482C7.61009 24.1578 7.69502 23.9975 7.75528 23.7674C7.83473 23.4716 7.87445 22.9702 7.87445 22.2635C7.87445 21.5567 7.83884 21.0718 7.76761 20.8088C7.69638 20.5431 7.60598 20.3664 7.49641 20.2787C7.38957 20.1883 7.26629 20.1431 7.12658 20.1431ZM13.7587 24.1619V25.2344H9.71124C9.75507 24.8289 9.88656 24.4454 10.1057 24.0838C10.3249 23.7195 10.7577 23.2373 11.4042 22.6374C11.9247 22.1525 12.2438 21.8238 12.3616 21.6512C12.5205 21.4129 12.6 21.1773 12.6 20.9444C12.6 20.6869 12.5301 20.4897 12.3904 20.3527C12.2534 20.213 12.063 20.1431 11.8192 20.1431C11.5782 20.1431 11.3864 20.2157 11.2439 20.3609C11.1015 20.5061 11.0193 20.7472 10.9974 21.0841L9.84684 20.9691C9.91533 20.3335 10.1304 19.8774 10.492 19.6007C10.8536 19.324 11.3056 19.1857 11.848 19.1857C12.4425 19.1857 12.9095 19.346 13.2492 19.6665C13.5889 19.987 13.7587 20.3856 13.7587 20.8622C13.7587 21.1334 13.7094 21.3923 13.6108 21.6389C13.5149 21.8827 13.3615 22.1388 13.1506 22.4073C13.0109 22.5853 12.7589 22.8415 12.3945 23.1757C12.0302 23.5099 11.7987 23.7318 11.7001 23.8414C11.6042 23.951 11.5261 24.0578 11.4658 24.1619H13.7587ZM16.4954 19.1857C17.0789 19.1857 17.5351 19.3939 17.8638 19.8103C18.2555 20.3034 18.4514 21.1211 18.4514 22.2635C18.4514 23.4031 18.2542 24.2222 17.8597 24.7207C17.5337 25.1316 17.0789 25.3371 16.4954 25.3371C15.9092 25.3371 15.4367 25.1125 15.0778 24.6632C14.7189 24.2112 14.5395 23.4072 14.5395 22.2511C14.5395 21.117 14.7367 20.3007 15.1312 19.8021C15.4572 19.3912 15.9119 19.1857 16.4954 19.1857ZM16.4954 20.1431C16.3557 20.1431 16.2311 20.1883 16.1215 20.2787C16.0119 20.3664 15.927 20.5253 15.8667 20.7554C15.7873 21.054 15.7476 21.5567 15.7476 22.2635C15.7476 22.9702 15.7832 23.4565 15.8544 23.7222C15.9256 23.9852 16.0147 24.1605 16.1215 24.2482C16.2311 24.3358 16.3557 24.3797 16.4954 24.3797C16.6352 24.3797 16.7598 24.3358 16.8694 24.2482C16.979 24.1578 17.0639 23.9975 17.1241 23.7674C17.2036 23.4716 17.2433 22.9702 17.2433 22.2635C17.2433 21.5567 17.2077 21.0718 17.1365 20.8088C17.0652 20.5431 16.9748 20.3664 16.8653 20.2787C16.7584 20.1883 16.6352 20.1431 16.4954 20.1431Z" fill="white"/>
</svg>
