<svg width="74" height="74" viewBox="0 0 74 74" fill="none" xmlns="http://www.w3.org/2000/svg">
<path d="M0.802397 49.8429C0.802397 49.9831 0.82687 50.0964 0.875816 50.1826C0.924762 50.2689 0.985004 50.3355 1.05654 50.3822C1.13184 50.4289 1.21091 50.4595 1.29374 50.4739C1.37657 50.4883 1.45187 50.4955 1.51965 50.4955C1.65142 50.4955 1.77191 50.4829 1.8811 50.4577C1.99028 50.4325 2.08065 50.4002 2.15218 50.3606L2.15218 49.1094L1.64389 49.1094C1.53847 49.1094 1.43493 49.1184 1.33327 49.1363C1.23162 49.1543 1.14125 49.1903 1.06219 49.2442C0.983121 49.2981 0.919115 49.3737 0.870168 49.4707C0.824987 49.5642 0.802397 49.6883 0.802397 49.8429ZM3.20829 51.0564C2.98238 51.0564 2.78283 51.0348 2.60964 50.9916C2.44021 50.9485 2.31408 50.8586 2.23125 50.722C2.15595 50.7543 2.05429 50.7885 1.92628 50.8245C1.80203 50.8568 1.65331 50.873 1.48011 50.873C1.34457 50.873 1.20903 50.8568 1.07348 50.8245C0.93794 50.7885 0.815575 50.731 0.706387 50.6519C0.600964 50.5692 0.514367 50.4631 0.446596 50.3337C0.382589 50.2006 0.350586 50.037 0.350586 49.8429C0.350586 49.4977 0.459774 49.2298 0.678149 49.0393C0.900289 48.8487 1.20526 48.7534 1.59307 48.7534L2.61529 48.7534L2.61529 50.2797C2.61529 50.4451 2.66235 50.5566 2.75648 50.6141C2.85061 50.668 3.00686 50.695 3.22523 50.695L3.27041 50.695C3.33442 50.695 3.37772 50.7094 3.40031 50.7382C3.4229 50.7633 3.43419 50.8119 3.43419 50.8838C3.43419 50.9557 3.42666 51.0024 3.4116 51.024C3.40031 51.0456 3.37772 51.0564 3.34383 51.0564L3.20829 51.0564ZM1.68908 47.9714C1.68908 47.8995 1.71355 47.8402 1.76249 47.7934C1.81521 47.7431 1.87921 47.7179 1.95451 47.7179C2.02982 47.7179 2.09194 47.7431 2.14089 47.7934C2.18983 47.8402 2.21431 47.8995 2.21431 47.9714C2.21431 48.0433 2.18983 48.1044 2.14089 48.1548C2.09194 48.2015 2.02982 48.2249 1.95451 48.2249C1.87921 48.2249 1.81521 48.2015 1.76249 48.1548C1.71355 48.1044 1.68908 48.0433 1.68908 47.9714ZM0.983121 47.9714C0.983121 47.8995 1.00759 47.8402 1.05654 47.7934C1.10925 47.7431 1.17326 47.7179 1.24856 47.7179C1.32386 47.7179 1.38599 47.7431 1.43493 47.7934C1.48388 47.8402 1.50835 47.8995 1.50835 47.9714C1.50835 48.0433 1.48388 48.1044 1.43493 48.1548C1.38599 48.2015 1.32386 48.2249 1.24856 48.2249C1.17326 48.2249 1.10925 48.2015 1.05654 48.1548C1.00759 48.1044 0.983121 48.0433 0.983121 47.9714Z" fill="white"/>
<path d="M3.26825 50.695C3.50545 50.695 3.68241 50.6447 3.79913 50.544C3.91585 50.4433 3.97421 50.2779 3.97421 50.0478L3.97421 48.7534L4.43166 48.7534L4.43166 50.1287C4.43166 50.7471 4.06833 51.0564 3.34167 51.0564C3.25131 51.0564 3.1873 51.0438 3.14965 51.0186C3.112 50.9934 3.09317 50.9467 3.09317 50.8784C3.09317 50.8173 3.10824 50.7723 3.13836 50.7436C3.16471 50.7112 3.20801 50.695 3.26825 50.695ZM4.08716 51.7467C4.08716 51.6748 4.11163 51.6137 4.16058 51.5633C4.21329 51.5166 4.2773 51.4932 4.3526 51.4932C4.4279 51.4932 4.49002 51.5166 4.53897 51.5633C4.58792 51.6137 4.61239 51.6748 4.61239 51.7467C4.61239 51.8186 4.58792 51.8779 4.53897 51.9247C4.49002 51.975 4.4279 52.0002 4.3526 52.0002C4.2773 52.0002 4.21329 51.975 4.16058 51.9247C4.11163 51.8779 4.08716 51.8186 4.08716 51.7467ZM3.3812 51.7467C3.3812 51.6748 3.40568 51.6137 3.45462 51.5633C3.50733 51.5166 3.57134 51.4932 3.64664 51.4932C3.72194 51.4932 3.78407 51.5166 3.83302 51.5633C3.88196 51.6137 3.90643 51.6748 3.90643 51.7467C3.90643 51.8186 3.88196 51.8779 3.83302 51.9247C3.78407 51.975 3.72194 52.0002 3.64664 52.0002C3.57134 52.0002 3.50733 51.975 3.45462 51.9247C3.40568 51.8779 3.3812 51.8186 3.3812 51.7467Z" fill="white"/>
<path d="M5.12143 52.0002C5.06871 52.0002 5.01036 51.9966 4.94635 51.9894C4.88611 51.9858 4.82963 51.9786 4.77692 51.9678L4.83904 51.6011C4.88046 51.6083 4.92188 51.6137 4.96329 51.6173C5.00847 51.6209 5.05177 51.6227 5.09319 51.6227C5.27391 51.6227 5.40381 51.5687 5.48287 51.4609C5.56571 51.3566 5.60712 51.1858 5.60712 50.9485L5.60712 48.7534L6.07023 48.7534L6.07023 50.695L6.6124 50.695C6.68394 50.695 6.72912 50.7112 6.74795 50.7436C6.76677 50.7723 6.77618 50.8191 6.77618 50.8838C6.77618 50.9449 6.76865 50.9898 6.75359 51.0186C6.73853 51.0438 6.71594 51.0564 6.68582 51.0564L6.06458 51.0564C6.04199 51.3728 5.95539 51.6083 5.80479 51.7629C5.65419 51.9211 5.4264 52.0002 5.12143 52.0002Z" fill="white"/>
<path d="M6.85335 50.695C6.95878 50.695 7.04349 50.677 7.1075 50.6411C7.1715 50.6051 7.22045 50.562 7.25433 50.5116C7.28822 50.4577 7.31269 50.3966 7.32775 50.3283C7.34281 50.2564 7.35035 50.1809 7.35035 50.1017L7.35035 49.255L7.81345 49.255L7.81345 50.1773C7.81345 50.3426 7.86051 50.4703 7.95464 50.5602C8.04877 50.6501 8.1749 50.695 8.33303 50.695C8.43093 50.695 8.51188 50.6788 8.57588 50.6465C8.63989 50.6141 8.69072 50.571 8.72837 50.517C8.76602 50.4631 8.79237 50.4002 8.80744 50.3283C8.8225 50.2564 8.83003 50.1809 8.83003 50.1017L8.83003 49.255L9.29313 49.255L9.29313 50.1773C9.29313 50.3462 9.3402 50.4757 9.43432 50.5656C9.52845 50.6519 9.65458 50.695 9.81271 50.695C9.91061 50.695 9.99156 50.6734 10.0556 50.6303C10.1196 50.5871 10.1666 50.5314 10.1968 50.4631C10.2306 50.3948 10.2513 50.3247 10.2589 50.2528C10.2702 50.1773 10.2758 50.1089 10.2758 50.0478L10.2758 48.7534L10.7389 48.7534L10.7389 50.1287C10.7389 50.3229 10.786 50.4667 10.8801 50.5602C10.9742 50.6501 11.1286 50.695 11.3432 50.695C11.4148 50.695 11.4599 50.7112 11.4788 50.7436C11.4976 50.7723 11.507 50.8209 11.507 50.8892C11.507 50.9467 11.4995 50.9898 11.4844 51.0186C11.4694 51.0438 11.4468 51.0564 11.4166 51.0564C11.2434 51.0564 11.0834 51.0294 10.9366 50.9755C10.7935 50.9215 10.6806 50.8316 10.5977 50.7058C10.5337 50.8137 10.4434 50.9 10.3266 50.9647C10.2137 51.0258 10.0706 51.0564 9.89743 51.0564C9.728 51.0564 9.57928 51.0258 9.45127 50.9647C9.32325 50.9 9.22912 50.8155 9.16888 50.7112C9.14629 50.7436 9.11617 50.7795 9.07852 50.8191C9.04464 50.855 8.99569 50.8928 8.93168 50.9323C8.86768 50.9683 8.79049 50.9988 8.70013 51.024C8.60977 51.0456 8.50435 51.0564 8.38386 51.0564C8.21443 51.0564 8.06948 51.0258 7.94899 50.9647C7.83228 50.9 7.74568 50.8155 7.6892 50.7112C7.66661 50.7436 7.63649 50.7795 7.59884 50.8191C7.56119 50.8586 7.51036 50.8964 7.44635 50.9323C7.38611 50.9683 7.31081 50.9988 7.22045 51.024C7.13009 51.0456 7.02466 51.0564 6.90418 51.0564L6.68392 51.0564C6.5785 51.0564 6.50508 51.0438 6.46367 51.0186C6.41849 50.9898 6.39589 50.9431 6.39589 50.8784C6.39589 50.7561 6.46743 50.695 6.6105 50.695L6.85335 50.695ZM9.14065 47.9714C9.14065 47.8995 9.16512 47.8402 9.21406 47.7934C9.26678 47.7431 9.33078 47.7179 9.40608 47.7179C9.48139 47.7179 9.54351 47.7431 9.59246 47.7934C9.6414 47.8402 9.66588 47.8995 9.66588 47.9714C9.66588 48.0433 9.6414 48.1044 9.59246 48.1548C9.54351 48.2015 9.48139 48.2249 9.40608 48.2249C9.33078 48.2249 9.26678 48.2015 9.21406 48.1548C9.16512 48.1044 9.14065 48.0433 9.14065 47.9714ZM8.43469 47.9714C8.43469 47.8995 8.45916 47.8402 8.50811 47.7934C8.56082 47.7431 8.62483 47.7179 8.70013 47.7179C8.77543 47.7179 8.83756 47.7431 8.8865 47.7934C8.93545 47.8402 8.95992 47.8995 8.95992 47.9714C8.95992 48.0433 8.93545 48.1044 8.8865 48.1548C8.83756 48.2015 8.77543 48.2249 8.70013 48.2249C8.62483 48.2249 8.56082 48.2015 8.50811 48.1548C8.45916 48.1044 8.43469 48.0433 8.43469 47.9714ZM8.78484 47.4051C8.78484 47.3332 8.80932 47.2739 8.85826 47.2271C8.91097 47.1768 8.97498 47.1516 9.05028 47.1516C9.12559 47.1516 9.18771 47.1768 9.23665 47.2271C9.2856 47.2739 9.31007 47.3332 9.31007 47.4051C9.31007 47.477 9.2856 47.5381 9.23665 47.5885C9.18771 47.6352 9.12559 47.6586 9.05028 47.6586C8.97498 47.6586 8.91097 47.6352 8.85826 47.5885C8.80932 47.5381 8.78484 47.477 8.78484 47.4051Z" fill="white"/>
<path d="M11.3481 50.695C11.5891 50.695 11.766 50.6447 11.879 50.544C11.992 50.4433 12.0484 50.2779 12.0484 50.0478L12.0484 48.7534L12.5115 48.7534L12.5115 50.1773C12.5115 50.3534 12.5661 50.4847 12.6753 50.571C12.7845 50.6537 12.937 50.695 13.1328 50.695C13.1968 50.695 13.2401 50.7094 13.2627 50.7382C13.2853 50.7633 13.2966 50.8119 13.2966 50.8838C13.2966 50.9449 13.289 50.9898 13.274 51.0186C13.2589 51.0438 13.2363 51.0564 13.2062 51.0564C13.0255 51.0564 12.8617 51.0294 12.7148 50.9755C12.568 50.9179 12.4532 50.8245 12.3703 50.695C12.2009 50.9359 11.8846 51.0564 11.4215 51.0564C11.3274 51.0564 11.2634 51.0438 11.2295 51.0186C11.1956 50.9898 11.1787 50.9377 11.1787 50.8622C11.1787 50.7507 11.2352 50.695 11.3481 50.695ZM11.9976 51.7305C11.9976 51.6586 12.0221 51.5975 12.071 51.5472C12.1237 51.5004 12.1877 51.477 12.263 51.477C12.3383 51.477 12.4005 51.5004 12.4494 51.5472C12.4984 51.5975 12.5228 51.6586 12.5228 51.7305C12.5228 51.8024 12.4984 51.8618 12.4494 51.9085C12.4005 51.9588 12.3383 51.984 12.263 51.984C12.1877 51.984 12.1237 51.9588 12.071 51.9085C12.0221 51.8618 11.9976 51.8024 11.9976 51.7305Z" fill="white"/>
<path d="M13.1351 50.695C13.3723 50.695 13.5492 50.6447 13.6659 50.544C13.7827 50.4433 13.841 50.2779 13.841 50.0478L13.841 47.0923L14.3041 47.0923L14.3041 50.1287C14.3041 50.7471 13.9389 51.0564 13.2085 51.0564C13.1181 51.0564 13.0541 51.0438 13.0165 51.0186C12.9788 50.9934 12.96 50.9467 12.96 50.8784C12.96 50.8245 12.9732 50.7813 12.9995 50.7489C13.0221 50.713 13.0673 50.695 13.1351 50.695Z" fill="white"/>
<path d="M15.7273 47.0923L15.7273 51.0564L15.2642 51.0564L15.2642 47.0923L15.7273 47.0923Z" fill="white"/>
<path d="M19.0013 50.695C19.2461 50.695 19.4155 50.6465 19.5096 50.5494C19.6037 50.4523 19.6508 50.2851 19.6508 50.0478L19.6508 49.9238C19.6508 49.8015 19.6357 49.6901 19.6056 49.5894C19.5793 49.4887 19.5284 49.4042 19.4531 49.3359C19.3816 49.264 19.2818 49.2101 19.1538 49.1741C19.0258 49.1345 18.8639 49.1148 18.6681 49.1148L18.2615 49.1148L18.2615 48.7534L18.8206 48.7534C19.0465 48.7534 19.2404 48.7786 19.4023 48.8289C19.568 48.8793 19.7035 48.9512 19.8089 49.0447C19.9144 49.1381 19.9915 49.2514 20.0405 49.3844C20.0894 49.5139 20.1139 49.6595 20.1139 49.8213L20.1139 50.1287C20.1139 50.4451 20.0348 50.6788 19.8767 50.8298C19.7223 50.9809 19.4663 51.0564 19.1086 51.0564L17.9057 51.0564L17.9057 50.695L19.0013 50.695Z" fill="white"/>
<path d="M20.7186 52.0002C20.6659 52.0002 20.6075 51.9966 20.5435 51.9894C20.4833 51.9858 20.4268 51.9786 20.3741 51.9678L20.4362 51.6011C20.4776 51.6083 20.5191 51.6137 20.5605 51.6173C20.6057 51.6209 20.649 51.6227 20.6904 51.6227C20.8711 51.6227 21.001 51.5687 21.0801 51.4609C21.1629 51.3566 21.2043 51.1858 21.2043 50.9485L21.2043 48.7534L21.6674 48.7534L21.6674 50.8892C21.6674 51.2595 21.5921 51.5364 21.4415 51.7197C21.2909 51.9067 21.0499 52.0002 20.7186 52.0002Z" fill="white"/>
<path d="M23.0626 47.0923L23.0626 51.0564L22.5995 51.0564L22.5995 47.0923L23.0626 47.0923Z" fill="white"/>
<path d="M24.8609 51.655C25.0868 51.655 25.2563 51.6065 25.3692 51.5094C25.4859 51.4159 25.5518 51.2649 25.5669 51.0564L25.1828 51.0564C24.8892 51.0564 24.6482 51.0258 24.4599 50.9647C24.2717 50.9 24.1249 50.8155 24.0194 50.7112C23.914 50.6069 23.8406 50.4901 23.7992 50.3606C23.7615 50.2276 23.7427 50.0928 23.7427 49.9561C23.7427 49.7764 23.7709 49.611 23.8274 49.4599C23.8877 49.3089 23.9705 49.1795 24.0759 49.0716C24.1851 48.9602 24.3131 48.8739 24.4599 48.8127C24.6105 48.7516 24.7743 48.7211 24.9513 48.7211C25.3052 48.7211 25.5744 48.8163 25.7589 49.0069C25.9472 49.1939 26.0413 49.451 26.0413 49.7782L26.0413 50.695L26.4818 50.695C26.5533 50.695 26.5985 50.7112 26.6173 50.7436C26.6362 50.7723 26.6456 50.8191 26.6456 50.8838C26.6456 50.9449 26.6381 50.9898 26.623 51.0186C26.6079 51.0438 26.5853 51.0564 26.5552 51.0564L26.03 51.0564C26.0149 51.193 25.9829 51.3188 25.934 51.4339C25.885 51.549 25.8154 51.6478 25.725 51.7305C25.6347 51.8168 25.5198 51.8833 25.3805 51.9301C25.245 51.9768 25.0793 52.0002 24.8835 52.0002C24.7706 52.0002 24.6482 51.9912 24.5164 51.9732C24.3884 51.9588 24.2698 51.9391 24.1606 51.9139L24.2284 51.5687C24.315 51.5867 24.4148 51.6047 24.5277 51.6227C24.6407 51.6442 24.7517 51.655 24.8609 51.655ZM24.2227 49.9346C24.2227 50.0928 24.2472 50.2222 24.2962 50.3229C24.3451 50.42 24.4129 50.4973 24.4995 50.5548C24.5898 50.6087 24.6953 50.6465 24.8157 50.668C24.94 50.686 25.0755 50.695 25.2224 50.695L25.5725 50.695L25.5725 49.9346C25.5725 49.8123 25.5612 49.7008 25.5386 49.6002C25.5161 49.4959 25.4784 49.406 25.4257 49.3305C25.373 49.255 25.3033 49.1975 25.2167 49.1579C25.1339 49.1148 25.0322 49.0932 24.9118 49.0932C24.8515 49.0932 24.7819 49.104 24.7028 49.1256C24.6237 49.1435 24.5484 49.1831 24.4769 49.2442C24.4054 49.3017 24.3451 49.3862 24.2962 49.4977C24.2472 49.6092 24.2227 49.7548 24.2227 49.9346Z" fill="white"/>
<path d="M27.3179 50.695C27.3894 50.695 27.4346 50.7112 27.4534 50.7436C27.4722 50.7723 27.4817 50.8191 27.4817 50.8838C27.4817 50.9521 27.4722 50.9988 27.4534 51.024C27.4384 51.0456 27.4176 51.0564 27.3913 51.0564L26.5552 51.0564C26.4611 51.0564 26.3973 51.0438 26.3634 51.0186C26.3295 50.9898 26.3126 50.9377 26.3126 50.8622C26.3126 50.7507 26.3688 50.695 26.4818 50.695L27.3179 50.695Z" fill="white"/>
<path d="M27.3938 51.0564C27.2996 51.0564 27.2356 51.0438 27.2017 51.0186C27.1679 50.9898 27.1509 50.9377 27.1509 50.8622C27.1509 50.7507 27.2074 50.695 27.3203 50.695L27.4672 50.695C27.5877 50.695 27.6912 50.6555 27.7778 50.5764C27.8644 50.4937 27.9115 50.384 27.919 50.2474C27.9378 49.7548 28.0489 49.3772 28.2522 49.1148C28.4593 48.8523 28.7567 48.7211 29.1445 48.7211C29.3629 48.7211 29.5436 48.7552 29.6867 48.8235C29.8335 48.8919 29.9503 48.9817 30.0369 49.0932C30.1235 49.2011 30.1856 49.3233 30.2232 49.4599C30.2609 49.5966 30.2797 49.7332 30.2797 49.8698C30.2797 50.0101 30.2628 50.1413 30.2289 50.2635C30.2439 50.4218 30.3079 50.5332 30.4209 50.5979C30.5338 50.6627 30.6769 50.695 30.8501 50.695C30.9254 50.695 30.9725 50.7112 30.9913 50.7436C31.0101 50.7723 31.0195 50.8191 31.0195 50.8838C31.0195 50.9521 31.0101 50.9988 30.9913 51.024C30.9762 51.0456 30.9537 51.0564 30.9235 51.0564C30.7428 51.0564 30.5715 51.0294 30.4096 50.9755C30.2515 50.9179 30.131 50.8065 30.0481 50.6411C29.9503 50.7777 29.826 50.8856 29.6754 50.9647C29.5248 51.0402 29.3535 51.0779 29.1615 51.0779C29.0109 51.0779 28.8565 51.051 28.6984 50.997C28.544 50.9395 28.384 50.8424 28.2183 50.7058C28.1769 50.7993 28.111 50.882 28.0206 50.9539C27.9303 51.0222 27.791 51.0564 27.6027 51.0564L27.3938 51.0564ZM29.1389 49.0986C28.9205 49.0986 28.7398 49.1993 28.5967 49.4006C28.4536 49.602 28.3689 49.9076 28.3426 50.3175C28.4856 50.4433 28.6212 50.5386 28.7492 50.6033C28.8772 50.668 29.0203 50.7004 29.1784 50.7004C29.3064 50.7004 29.4118 50.6734 29.4947 50.6195C29.5775 50.5656 29.6415 50.4991 29.6867 50.42C29.7356 50.3373 29.7676 50.2492 29.7827 50.1557C29.8015 50.0622 29.8109 49.9741 29.8109 49.8914C29.8109 49.6181 29.7507 49.4186 29.6302 49.2928C29.5135 49.1633 29.3497 49.0986 29.1389 49.0986Z" fill="white"/>
<path d="M30.8501 50.695C31.0873 50.695 31.2643 50.6447 31.381 50.544C31.4977 50.4433 31.5561 50.2779 31.5561 50.0478L31.5561 47.0923L32.0192 47.0923L32.0192 50.1287C32.0192 50.7471 31.654 51.0564 30.9235 51.0564C30.8332 51.0564 30.7692 51.0438 30.7315 51.0186C30.6939 50.9934 30.675 50.9467 30.675 50.8784C30.675 50.8245 30.6882 50.7813 30.7146 50.7489C30.7372 50.713 30.7823 50.695 30.8501 50.695Z" fill="white"/>
<path d="M33.4423 47.0923L33.4423 51.0564L32.9792 51.0564L32.9792 47.0923L33.4423 47.0923Z" fill="white"/>
<path d="M36.0725 49.8429C36.0725 49.9831 36.097 50.0964 36.146 50.1826C36.1949 50.2689 36.2551 50.3355 36.3267 50.3822C36.402 50.4289 36.4811 50.4595 36.5639 50.4739C36.6467 50.4883 36.722 50.4955 36.7898 50.4955C36.9216 50.4955 37.0421 50.4829 37.1512 50.4577C37.2604 50.4325 37.3508 50.4002 37.4223 50.3606L37.4223 49.1094L36.914 49.1094C36.8086 49.1094 36.7051 49.1184 36.6034 49.1363C36.5018 49.1543 36.4114 49.1903 36.3323 49.2442C36.2533 49.2981 36.1893 49.3737 36.1403 49.4707C36.0951 49.5642 36.0725 49.6883 36.0725 49.8429ZM38.4784 51.0564C38.2525 51.0564 38.053 51.0348 37.8798 50.9916C37.7104 50.9485 37.5842 50.8586 37.5014 50.722C37.4261 50.7543 37.3244 50.7885 37.1964 50.8245C37.0722 50.8568 36.9235 50.873 36.7503 50.873C36.6147 50.873 36.4792 50.8568 36.3436 50.8245C36.2081 50.7885 36.0857 50.731 35.9765 50.6519C35.8711 50.5692 35.7845 50.4631 35.7167 50.3337C35.6527 50.2006 35.6207 50.037 35.6207 49.8429C35.6207 49.4977 35.7299 49.2298 35.9483 49.0393C36.1704 48.8487 36.4754 48.7534 36.8632 48.7534L37.8854 48.7534L37.8854 50.2797C37.8854 50.4451 37.9325 50.5566 38.0266 50.6141C38.1208 50.668 38.277 50.695 38.4954 50.695L38.5406 50.695C38.6046 50.695 38.6479 50.7094 38.6705 50.7382C38.693 50.7633 38.7043 50.8119 38.7043 50.8838C38.7043 50.9557 38.6968 51.0024 38.6817 51.024C38.6705 51.0456 38.6479 51.0564 38.614 51.0564L38.4784 51.0564ZM36.9592 47.9714C36.9592 47.8995 36.9837 47.8402 37.0326 47.7934C37.0853 47.7431 37.1494 47.7179 37.2247 47.7179C37.3 47.7179 37.3621 47.7431 37.411 47.7934C37.46 47.8402 37.4844 47.8995 37.4844 47.9714C37.4844 48.0433 37.46 48.1044 37.411 48.1548C37.3621 48.2015 37.3 48.2249 37.2247 48.2249C37.1494 48.2249 37.0853 48.2015 37.0326 48.1548C36.9837 48.1044 36.9592 48.0433 36.9592 47.9714ZM36.2533 47.9714C36.2533 47.8995 36.2777 47.8402 36.3267 47.7934C36.3794 47.7431 36.4434 47.7179 36.5187 47.7179C36.594 47.7179 36.6561 47.7431 36.7051 47.7934C36.754 47.8402 36.7785 47.8995 36.7785 47.9714C36.7785 48.0433 36.754 48.1044 36.7051 48.1548C36.6561 48.2015 36.594 48.2249 36.5187 48.2249C36.4434 48.2249 36.3794 48.2015 36.3267 48.1548C36.2777 48.1044 36.2533 48.0433 36.2533 47.9714Z" fill="white"/>
<path d="M38.5384 50.695C38.7794 50.695 38.9563 50.6447 39.0693 50.544C39.1822 50.4433 39.2387 50.2779 39.2387 50.0478L39.2387 48.7534L39.7018 48.7534L39.7018 50.1773C39.7018 50.3534 39.7564 50.4847 39.8656 50.571C39.9748 50.6537 40.1273 50.695 40.3231 50.695C40.3871 50.695 40.4304 50.7094 40.4529 50.7382C40.4755 50.7633 40.4868 50.8119 40.4868 50.8838C40.4868 50.9449 40.4793 50.9898 40.4642 51.0186C40.4492 51.0438 40.4266 51.0564 40.3965 51.0564C40.2157 51.0564 40.052 51.0294 39.9051 50.9755C39.7583 50.9179 39.6435 50.8245 39.5606 50.695C39.3912 50.9359 39.0749 51.0564 38.6118 51.0564C38.5177 51.0564 38.4537 51.0438 38.4198 51.0186C38.3859 50.9898 38.369 50.9377 38.369 50.8622C38.369 50.7507 38.4254 50.695 38.5384 50.695ZM39.5437 51.7467C39.5437 51.6748 39.5681 51.6137 39.6171 51.5633C39.6698 51.5166 39.7338 51.4932 39.8091 51.4932C39.8844 51.4932 39.9465 51.5166 39.9955 51.5633C40.0444 51.6137 40.0689 51.6748 40.0689 51.7467C40.0689 51.8186 40.0444 51.8779 39.9955 51.9247C39.9465 51.975 39.8844 52.0002 39.8091 52.0002C39.7338 52.0002 39.6698 51.975 39.6171 51.9247C39.5681 51.8779 39.5437 51.8186 39.5437 51.7467ZM38.8377 51.7467C38.8377 51.6748 38.8622 51.6137 38.9111 51.5633C38.9639 51.5166 39.0279 51.4932 39.1032 51.4932C39.1785 51.4932 39.2406 51.5166 39.2895 51.5633C39.3385 51.6137 39.363 51.6748 39.363 51.7467C39.363 51.8186 39.3385 51.8779 39.2895 51.9247C39.2406 51.975 39.1785 52.0002 39.1032 52.0002C39.0279 52.0002 38.9639 51.975 38.9111 51.9247C38.8622 51.8779 38.8377 51.8186 38.8377 51.7467Z" fill="white"/>
<path d="M40.3988 51.0564C40.3046 51.0564 40.2406 51.0438 40.2067 51.0186C40.1729 50.9898 40.1559 50.9377 40.1559 50.8622C40.1559 50.7507 40.2124 50.695 40.3253 50.695L40.4722 50.695C40.5927 50.695 40.6962 50.6555 40.7828 50.5764C40.8694 50.4937 40.9165 50.384 40.924 50.2474C40.9428 49.7548 41.0539 49.3772 41.2572 49.1148C41.4643 48.8523 41.7617 48.7211 42.1495 48.7211C42.3679 48.7211 42.5486 48.7552 42.6917 48.8235C42.8385 48.8919 42.9553 48.9817 43.0419 49.0932C43.1285 49.2011 43.1906 49.3233 43.2282 49.4599C43.2659 49.5966 43.2847 49.7332 43.2847 49.8698C43.2847 50.0101 43.2678 50.1413 43.2339 50.2635C43.2489 50.4218 43.3129 50.5332 43.4259 50.5979C43.5388 50.6627 43.6819 50.695 43.8551 50.695C43.9304 50.695 43.9775 50.7112 43.9963 50.7436C44.0151 50.7723 44.0245 50.8191 44.0245 50.8838C44.0245 50.9521 44.0151 50.9988 43.9963 51.024C43.9812 51.0456 43.9587 51.0564 43.9285 51.0564C43.7478 51.0564 43.5765 51.0294 43.4146 50.9755C43.2565 50.9179 43.136 50.8065 43.0532 50.6411C42.9553 50.7777 42.831 50.8856 42.6804 50.9647C42.5298 51.0402 42.3585 51.0779 42.1665 51.0779C42.0159 51.0779 41.8615 51.051 41.7034 50.997C41.549 50.9395 41.389 50.8424 41.2233 50.7058C41.1819 50.7993 41.116 50.882 41.0257 50.9539C40.9353 51.0222 40.796 51.0564 40.6077 51.0564L40.3988 51.0564ZM42.1439 49.0986C41.9255 49.0986 41.7448 49.1993 41.6017 49.4006C41.4586 49.602 41.3739 49.9076 41.3476 50.3175C41.4906 50.4433 41.6262 50.5386 41.7542 50.6033C41.8822 50.668 42.0253 50.7004 42.1834 50.7004C42.3114 50.7004 42.4169 50.6734 42.4997 50.6195C42.5825 50.5656 42.6465 50.4991 42.6917 50.42C42.7407 50.3373 42.7727 50.2492 42.7877 50.1557C42.8065 50.0622 42.816 49.9741 42.816 49.8914C42.816 49.6181 42.7557 49.4186 42.6352 49.2928C42.5185 49.1633 42.3547 49.0986 42.1439 49.0986Z" fill="white"/>
<path d="M43.8551 50.695C44.0961 50.695 44.273 50.6447 44.386 50.544C44.4989 50.4433 44.5554 50.2779 44.5554 50.0478L44.5554 48.7534L45.0185 48.7534L45.0185 50.1773C45.0185 50.3534 45.0731 50.4847 45.1823 50.571C45.2915 50.6537 45.444 50.695 45.6398 50.695C45.7038 50.695 45.7471 50.7094 45.7697 50.7382C45.7923 50.7633 45.8036 50.8119 45.8036 50.8838C45.8036 50.9449 45.796 50.9898 45.781 51.0186C45.7659 51.0438 45.7433 51.0564 45.7132 51.0564C45.5325 51.0564 45.3687 51.0294 45.2218 50.9755C45.075 50.9179 44.9602 50.8245 44.8773 50.695C44.7079 50.9359 44.3916 51.0564 43.9285 51.0564C43.8344 51.0564 43.7704 51.0438 43.7365 51.0186C43.7026 50.9898 43.6857 50.9377 43.6857 50.8622C43.6857 50.7507 43.7422 50.695 43.8551 50.695ZM44.5215 47.9714C44.5215 47.8995 44.546 47.8402 44.595 47.7934C44.6477 47.7431 44.7117 47.7179 44.787 47.7179C44.8623 47.7179 44.9244 47.7431 44.9733 47.7934C45.0223 47.8402 45.0468 47.8995 45.0468 47.9714C45.0468 48.0433 45.0223 48.1044 44.9733 48.1548C44.9244 48.2015 44.8623 48.2249 44.787 48.2249C44.7117 48.2249 44.6477 48.2015 44.595 48.1548C44.546 48.1044 44.5215 48.0433 44.5215 47.9714Z" fill="white"/>
<path d="M45.6421 50.695C45.8793 50.695 46.0562 50.6447 46.1729 50.544C46.2897 50.4433 46.348 50.2779 46.348 50.0478L46.348 48.7534L46.8055 48.7534L46.8055 50.1287C46.8055 50.7471 46.4421 51.0564 45.7155 51.0564C45.6251 51.0564 45.5611 51.0438 45.5235 51.0186C45.4858 50.9934 45.467 50.9467 45.467 50.8784C45.467 50.8173 45.482 50.7723 45.5122 50.7436C45.5385 50.7112 45.5818 50.695 45.6421 50.695ZM46.6248 47.9714C46.6248 47.8995 46.6492 47.8402 46.6982 47.7934C46.7509 47.7431 46.8149 47.7179 46.8902 47.7179C46.9655 47.7179 47.0276 47.7431 47.0766 47.7934C47.1255 47.8402 47.15 47.8995 47.15 47.9714C47.15 48.0433 47.1255 48.1044 47.0766 48.1548C47.0276 48.2015 46.9655 48.2249 46.8902 48.2249C46.8149 48.2249 46.7509 48.2015 46.6982 48.1548C46.6492 48.1044 46.6248 48.0433 46.6248 47.9714ZM45.9188 47.9714C45.9188 47.8995 45.9433 47.8402 45.9922 47.7934C46.0449 47.7431 46.1089 47.7179 46.1842 47.7179C46.2595 47.7179 46.3217 47.7431 46.3706 47.7934C46.4196 47.8402 46.444 47.8995 46.444 47.9714C46.444 48.0433 46.4196 48.1044 46.3706 48.1548C46.3217 48.2015 46.2595 48.2249 46.1842 48.2249C46.1089 48.2249 46.0449 48.2015 45.9922 48.1548C45.9433 48.1044 45.9188 48.0433 45.9188 47.9714Z" fill="white"/>
<path d="M52.3113 50.9593C52.2511 50.9809 52.1777 51.0024 52.0911 51.024C52.0045 51.0456 51.8878 51.0564 51.7409 51.0564C51.5339 51.0564 51.3512 51.0294 51.1931 50.9755C51.0387 50.9179 50.9088 50.8406 50.8034 50.7436C50.698 50.6465 50.6189 50.5314 50.5662 50.3984C50.5135 50.2618 50.4872 50.1143 50.4872 49.9561C50.4872 49.7764 50.5154 49.611 50.5719 49.4599C50.6321 49.3089 50.7149 49.1795 50.8204 49.0716C50.9296 48.9602 51.0576 48.8739 51.2044 48.8127C51.355 48.7516 51.5188 48.7211 51.6958 48.7211C52.0421 48.7211 52.3113 48.8163 52.5034 49.0069C52.6954 49.1939 52.7914 49.451 52.7914 49.7782L52.7914 50.846C52.7914 51.033 52.7537 51.1966 52.6784 51.3368C52.6069 51.4806 52.4921 51.6011 52.3339 51.6982C52.1758 51.7952 51.9706 51.869 51.7183 51.9193C51.4698 51.9696 51.1705 51.9948 50.8204 51.9948C50.218 51.9948 49.7549 51.8887 49.4311 51.6766C49.111 51.4681 48.951 51.1301 48.951 50.6627C48.951 50.5224 48.9755 50.3588 49.0244 50.1719C49.0771 49.9813 49.1543 49.7943 49.256 49.611L49.6739 49.7566C49.5911 49.9364 49.5289 50.1017 49.4875 50.2528C49.4499 50.4038 49.4311 50.5512 49.4311 50.695C49.4311 51.0186 49.5515 51.2559 49.7925 51.4069C50.0335 51.5615 50.3912 51.6388 50.8656 51.6388C51.3588 51.6388 51.7221 51.5759 51.9555 51.4501C52.1927 51.3242 52.3113 51.1606 52.3113 50.9593ZM50.9672 49.9346C50.9672 50.0856 50.9936 50.2114 51.0463 50.3121C51.099 50.4092 51.1649 50.4865 51.2439 50.544C51.3268 50.6015 51.4153 50.6411 51.5094 50.6627C51.6073 50.6842 51.6995 50.695 51.7861 50.695C51.9179 50.695 52.0271 50.6824 52.1137 50.6573C52.204 50.6285 52.2718 50.6033 52.317 50.5818L52.317 49.9346C52.317 49.8123 52.3057 49.7008 52.2831 49.6002C52.2643 49.4959 52.2285 49.406 52.1758 49.3305C52.1269 49.255 52.0591 49.1975 51.9725 49.1579C51.8897 49.1148 51.7842 49.0932 51.6562 49.0932C51.6035 49.0932 51.5376 49.1022 51.4586 49.1202C51.3833 49.1381 51.3079 49.1777 51.2326 49.2388C51.1611 49.2963 51.099 49.3808 51.0463 49.4923C50.9936 49.6002 50.9672 49.7476 50.9672 49.9346ZM51.7692 47.9714C51.7692 47.8995 51.7936 47.8402 51.8426 47.7934C51.8953 47.7431 51.9593 47.7179 52.0346 47.7179C52.1099 47.7179 52.172 47.7431 52.221 47.7934C52.2699 47.8402 52.2944 47.8995 52.2944 47.9714C52.2944 48.0433 52.2699 48.1044 52.221 48.1548C52.172 48.2015 52.1099 48.2249 52.0346 48.2249C51.9593 48.2249 51.8953 48.2015 51.8426 48.1548C51.7936 48.1044 51.7692 48.0433 51.7692 47.9714ZM51.0632 47.9714C51.0632 47.8995 51.0877 47.8402 51.1366 47.7934C51.1893 47.7431 51.2534 47.7179 51.3287 47.7179C51.404 47.7179 51.4661 47.7431 51.515 47.7934C51.564 47.8402 51.5884 47.8995 51.5884 47.9714C51.5884 48.0433 51.564 48.1044 51.515 48.1548C51.4661 48.2015 51.404 48.2249 51.3287 48.2249C51.2534 48.2249 51.1893 48.2015 51.1366 48.1548C51.0877 48.1044 51.0632 48.0433 51.0632 47.9714Z" fill="white"/>
<path d="M54.6434 51.655C54.8655 51.655 55.0387 51.6029 55.163 51.4986C55.2872 51.3943 55.3493 51.2146 55.3493 50.9593C55.2891 50.9809 55.2157 51.0024 55.1291 51.024C55.0425 51.0456 54.9258 51.0564 54.7789 51.0564C54.5718 51.0564 54.3892 51.0294 54.2311 50.9755C54.0767 50.9179 53.9468 50.8406 53.8414 50.7436C53.736 50.6465 53.655 50.5314 53.5986 50.3984C53.5459 50.2618 53.5195 50.1143 53.5195 49.9561C53.5195 49.7764 53.5496 49.611 53.6099 49.4599C53.6701 49.3089 53.7529 49.1795 53.8584 49.0716C53.9675 48.9602 54.0956 48.8739 54.2424 48.8127C54.393 48.7516 54.5568 48.7211 54.7337 48.7211C55.0801 48.7211 55.3474 48.8163 55.5357 49.0069C55.7277 49.1939 55.8237 49.451 55.8237 49.7782L55.8237 50.8352C55.8237 51.0006 55.8049 51.1534 55.7673 51.2937C55.7296 51.4375 55.6656 51.5615 55.5752 51.6658C55.4886 51.7701 55.37 51.851 55.2194 51.9085C55.0726 51.9696 54.8881 52.0002 54.666 52.0002C54.553 52.0002 54.4307 51.9912 54.2989 51.9732C54.1709 51.9588 54.0523 51.9391 53.9431 51.9139L54.0108 51.5687C54.0974 51.5867 54.1972 51.6047 54.3102 51.6227C54.4231 51.6442 54.5342 51.655 54.6434 51.655ZM54.0052 49.9346C54.0052 50.0856 54.0316 50.2114 54.0843 50.3121C54.137 50.4092 54.2029 50.4865 54.2819 50.544C54.3648 50.6015 54.4532 50.6411 54.5474 50.6627C54.6453 50.6842 54.7375 50.695 54.8241 50.695C54.9559 50.695 55.0651 50.6824 55.1517 50.6573C55.242 50.6285 55.3098 50.6033 55.355 50.5818L55.355 49.9346C55.355 49.8123 55.3437 49.7008 55.3211 49.6002C55.3023 49.4959 55.2665 49.406 55.2138 49.3305C55.1648 49.255 55.0971 49.1975 55.0105 49.1579C54.9276 49.1148 54.8222 49.0932 54.6942 49.0932C54.6415 49.0932 54.5756 49.1022 54.4965 49.1202C54.4212 49.1381 54.3459 49.1777 54.2706 49.2388C54.1991 49.2963 54.137 49.3808 54.0843 49.4923C54.0316 49.6002 54.0052 49.7476 54.0052 49.9346Z" fill="white"/>
<path d="M57.5751 50.695C57.6994 50.695 57.8029 50.6824 57.8857 50.6573C57.9686 50.6321 58.0345 50.5943 58.0834 50.544C58.1324 50.4901 58.1662 50.4235 58.1851 50.3444C58.2077 50.2618 58.2189 50.1629 58.2189 50.0478L58.2189 49.9238C58.2189 49.8015 58.2039 49.6901 58.1738 49.5894C58.1474 49.4887 58.0966 49.4024 58.0213 49.3305C57.946 49.2586 57.8443 49.2047 57.7163 49.1687C57.5921 49.1328 57.432 49.1148 57.2363 49.1148L56.8296 49.1148L56.8296 48.7534L57.3944 48.7534C57.8274 48.7534 58.1493 48.8469 58.3601 49.0339C58.5748 49.2172 58.6821 49.4797 58.6821 49.8213L58.6821 50.1773C58.6821 50.2456 58.6934 50.3103 58.7159 50.3714C58.7423 50.4325 58.7781 50.4883 58.8232 50.5386C58.8684 50.5853 58.9249 50.6231 58.9927 50.6519C59.0604 50.6806 59.1339 50.695 59.2129 50.695C59.2656 50.6914 59.3052 50.7022 59.3315 50.7274C59.3617 50.7489 59.3767 50.8011 59.3767 50.8838C59.3767 50.9449 59.3692 50.9898 59.3541 51.0186C59.3391 51.0438 59.3165 51.0564 59.2864 51.0564C59.2299 51.0564 59.1659 51.051 59.0943 51.0402C59.0266 51.0258 58.9588 51.006 58.891 50.9809C58.8232 50.9521 58.7592 50.9161 58.699 50.873C58.6388 50.8298 58.5879 50.7777 58.5465 50.7166C58.4712 50.828 58.3639 50.9125 58.2246 50.9701C58.0853 51.0276 57.9046 51.0564 57.6824 51.0564L56.4795 51.0564L56.4795 50.695L57.5751 50.695Z" fill="white"/>
<path d="M59.2151 50.695C59.4561 50.695 59.6331 50.6447 59.746 50.544C59.859 50.4433 59.9154 50.2779 59.9154 50.0478L59.9154 48.7534L60.3786 48.7534L60.3786 50.1773C60.3786 50.3534 60.4331 50.4847 60.5423 50.571C60.6515 50.6537 60.804 50.695 60.9998 50.695C61.0638 50.695 61.1071 50.7094 61.1297 50.7382C61.1523 50.7633 61.1636 50.8119 61.1636 50.8838C61.1636 50.9449 61.156 50.9898 61.141 51.0186C61.1259 51.0438 61.1033 51.0564 61.0732 51.0564C60.8925 51.0564 60.7287 51.0294 60.5819 50.9755C60.435 50.9179 60.3202 50.8245 60.2374 50.695C60.0679 50.9359 59.7517 51.0564 59.2886 51.0564C59.1944 51.0564 59.1304 51.0438 59.0965 51.0186C59.0627 50.9898 59.0457 50.9377 59.0457 50.8622C59.0457 50.7507 59.1022 50.695 59.2151 50.695ZM59.8816 47.9714C59.8816 47.8995 59.906 47.8402 59.955 47.7934C60.0077 47.7431 60.0717 47.7179 60.147 47.7179C60.2223 47.7179 60.2844 47.7431 60.3334 47.7934C60.3823 47.8402 60.4068 47.8995 60.4068 47.9714C60.4068 48.0433 60.3823 48.1044 60.3334 48.1548C60.2844 48.2015 60.2223 48.2249 60.147 48.2249C60.0717 48.2249 60.0077 48.2015 59.955 48.1548C59.906 48.1044 59.8816 48.0433 59.8816 47.9714Z" fill="white"/>
<path d="M61.0529 51.0564C60.9776 51.0564 60.923 51.0438 60.8891 51.0186C60.8515 50.9898 60.8327 50.9431 60.8327 50.8784C60.8327 50.8101 60.8458 50.7633 60.8722 50.7382C60.8948 50.7094 60.9381 50.695 61.0021 50.695L61.6177 50.695L61.6177 48.7534L62.0808 48.7534L62.0808 49.1202C62.3594 48.9835 62.623 48.8829 62.8715 48.8181C63.1237 48.7534 63.3703 48.7211 63.6113 48.7211C63.8749 48.7211 64.097 48.757 64.2777 48.8289C64.4584 48.8972 64.6015 48.9907 64.7069 49.1094C64.8124 49.228 64.8858 49.3593 64.9272 49.5031C64.9686 49.6469 64.9893 49.7925 64.9893 49.9399L64.9893 50.1287C64.9893 50.4487 64.9102 50.6842 64.7521 50.8352C64.5977 50.9827 64.3436 51.0564 63.9897 51.0564L61.0529 51.0564ZM63.5605 49.0932C63.3007 49.0932 63.0447 49.1328 62.7924 49.2119C62.5401 49.2874 62.3029 49.388 62.0808 49.5139L62.0808 50.695L63.8824 50.695C64.0066 50.695 64.1102 50.6824 64.193 50.6573C64.2796 50.6321 64.3455 50.5943 64.3907 50.544C64.4396 50.4937 64.4735 50.4289 64.4923 50.3498C64.5149 50.2671 64.5262 50.1683 64.5262 50.0532C64.5262 49.9166 64.5093 49.7907 64.4754 49.6757C64.4415 49.5606 64.385 49.4599 64.306 49.3737C64.2307 49.2838 64.1309 49.2154 64.0066 49.1687C63.8861 49.1184 63.7374 49.0932 63.5605 49.0932Z" fill="white"/>
<path d="M69.9268 50.2689C69.9456 50.42 70.0115 50.5296 70.1244 50.5979C70.2411 50.6627 70.3842 50.695 70.5536 50.695C70.6064 50.695 70.6459 50.7058 70.6723 50.7274C70.7024 50.7489 70.7174 50.8011 70.7174 50.8838C70.7174 50.9521 70.708 50.9988 70.6892 51.024C70.6741 51.0456 70.6534 51.0564 70.6271 51.0564C70.4915 51.0564 70.3616 51.0402 70.2374 51.0078C70.1169 50.9755 70.0115 50.9215 69.9211 50.846C69.9098 51.0402 69.8665 51.2092 69.7912 51.353C69.7159 51.5004 69.6143 51.6209 69.4862 51.7143C69.362 51.8114 69.2152 51.8833 69.0457 51.9301C68.8763 51.9768 68.6899 52.0002 68.4866 52.0002C68.2607 52.0002 68.0574 51.9678 67.8767 51.9031C67.6997 51.842 67.5491 51.7539 67.4249 51.6388C67.3044 51.5274 67.2121 51.3907 67.1481 51.2289C67.0841 51.0671 67.0521 50.8892 67.0521 50.695C67.0521 50.5548 67.0766 50.3858 67.1255 50.188C67.1782 49.9903 67.2554 49.7997 67.3571 49.6164L67.775 49.762C67.6922 49.9417 67.6301 50.1089 67.5886 50.2635C67.551 50.4146 67.5322 50.5692 67.5322 50.7274C67.5322 51.0258 67.6206 51.2505 67.7976 51.4015C67.9783 51.5525 68.2155 51.6281 68.5092 51.6281C68.6447 51.6281 68.7709 51.6119 68.8876 51.5795C69.0043 51.5472 69.1041 51.4932 69.1869 51.4177C69.2735 51.3422 69.3413 51.2397 69.3902 51.1103C69.4392 50.9845 69.4637 50.8262 69.4637 50.6357L69.4637 49.255L69.9268 49.255L69.9268 50.2689ZM68.3963 48.6779C68.3963 48.606 68.4207 48.5467 68.4697 48.4999C68.5224 48.4496 68.5864 48.4244 68.6617 48.4244C68.737 48.4244 68.7991 48.4496 68.8481 48.4999C68.897 48.5467 68.9215 48.606 68.9215 48.6779C68.9215 48.7498 68.897 48.811 68.8481 48.8613C68.7991 48.908 68.737 48.9314 68.6617 48.9314C68.5864 48.9314 68.5224 48.908 68.4697 48.8613C68.4207 48.811 68.3963 48.7498 68.3963 48.6779Z" fill="white"/>
<path d="M70.628 51.0564C70.5338 51.0564 70.4698 51.0438 70.4359 51.0186C70.402 50.9898 70.3851 50.9377 70.3851 50.8622C70.3851 50.7507 70.4416 50.695 70.5545 50.695L70.707 50.695C70.8237 50.695 70.9254 50.6555 71.012 50.5764C71.1024 50.4973 71.1513 50.3876 71.1588 50.2474C71.1777 49.7692 71.2887 49.3952 71.492 49.1256C71.6991 48.8559 71.9966 48.7211 72.3844 48.7211C72.6027 48.7211 72.7835 48.7552 72.9265 48.8235C73.0734 48.8919 73.1901 48.9817 73.2767 49.0932C73.3633 49.2011 73.4235 49.3233 73.4574 49.4599C73.4951 49.5966 73.5139 49.7332 73.5139 49.8698C73.5139 50.0424 73.4875 50.2024 73.4348 50.3498C73.3821 50.4973 73.3068 50.6249 73.2089 50.7328C73.1148 50.8406 72.9981 50.9251 72.8588 50.9863C72.7232 51.0474 72.5707 51.0779 72.4013 51.0779C72.2469 51.0779 72.0926 51.051 71.9382 50.997C71.7838 50.9395 71.6238 50.8424 71.4582 50.7058C71.4167 50.7993 71.3508 50.882 71.2605 50.9539C71.1701 51.0222 71.0308 51.0564 70.8426 51.0564L70.628 51.0564ZM72.3787 49.0986C72.1603 49.0986 71.9796 49.1993 71.8365 49.4006C71.6935 49.602 71.6088 49.9076 71.5824 50.3175C71.7255 50.4433 71.861 50.5386 71.989 50.6033C72.117 50.668 72.2601 50.7004 72.4183 50.7004C72.5463 50.7004 72.6517 50.6734 72.7345 50.6195C72.8173 50.5656 72.8814 50.4991 72.9265 50.42C72.9755 50.3373 73.0075 50.2492 73.0226 50.1557C73.0414 50.0622 73.0508 49.9741 73.0508 49.8914C73.0508 49.6181 72.9905 49.4186 72.8701 49.2928C72.7533 49.1633 72.5896 49.0986 72.3787 49.0986Z" fill="white"/>
<g clip-path="url(#clip0_4330_305687)">
<path d="M47.1644 37.788C47.1644 32.7944 42.9244 28.7485 37.6961 28.7485L37.5281 28.7485C36.3045 28.7485 35.314 29.6942 35.314 30.8624C35.314 32.0306 36.3045 32.9762 37.5281 32.9762L37.6961 32.9762C40.4795 32.9762 42.7361 35.1307 42.7361 37.788L42.7361 40.7556L47.1666 40.7556L47.1666 37.788L47.1644 37.788Z" fill="white"/>
<path d="M61.986 24.6874L55.3795 24.6874C54.1559 24.6874 53.1654 25.633 53.1654 26.8012C53.1654 27.9694 54.1559 28.9151 55.3795 28.9151L61.986 28.9151C66.1677 28.9151 69.5718 31.8099 69.5718 35.3658L69.5718 40.7531L57.4704 40.7531L57.4704 41.7095C55.8434 41.7095 54.9313 41.7095 53.3043 41.7095L53.3043 40.7531L47.164 40.7531L47.164 40.8066L42.7336 40.8066L42.7336 40.7531L34.5808 40.7531C33.3572 40.7531 32.3667 41.6988 32.3667 42.867C32.3667 44.0351 33.3595 44.9808 34.5808 44.9808L74 44.9808L74 35.3658C74 29.4778 68.6104 24.6874 61.986 24.6874Z" fill="white"/>
<path d="M57.4707 40.755L53.3047 40.755L53.3047 41.7114L57.4707 41.7114L57.4707 40.755Z" fill="white"/>
<path d="M47.1643 40.755L42.7339 40.755L42.7339 40.8085L47.1643 40.8085L47.1643 40.755Z" fill="white"/>
<path d="M22.7129 26.5358C24.0248 26.5358 25.0883 25.5204 25.0883 24.2679C25.0883 23.0154 24.0248 22 22.7129 22C21.4009 22 20.3374 23.0154 20.3374 24.2679C20.3374 25.5204 21.4009 26.5358 22.7129 26.5358Z" fill="white"/>
<path d="M57.4707 36.1124C57.4707 36.1124 57.4858 36.0975 57.4923 36.089L57.4707 36.089L57.4707 36.1124Z" fill="#005187"/>
<path d="M55.7519 32.111C54.4005 32.111 53.3047 33.1573 53.3047 34.4474L53.3047 40.7526L57.4707 40.7526L57.4707 37.064C57.4707 36.5249 57.9301 36.0863 58.4948 36.0863L63.0956 36.0863L63.0956 34.5159C63.0956 33.1851 61.9661 32.1089 60.5745 32.1089L55.7541 32.1089L55.7519 32.111Z" fill="#DF7C2E"/>
<path d="M2.44717 30.1367C1.09585 30.1367 0 31.1829 0 32.4731L-1.21907e-10 42.8691L4.16602 40.7552L4.16602 34.711C4.16602 34.3815 4.44614 34.1141 4.79125 34.1141L9.79092 34.1141L9.79092 32.5159C9.79092 31.2022 8.6749 30.1367 7.29893 30.1367L2.44717 30.1367Z" fill="#00AC65"/>
<path d="M16.1329 39.0089L20.5634 39.0089L20.5634 33.6366C20.5634 33.2921 20.8547 33.014 21.2155 33.014L26.3429 33.014L26.3429 36.7132C26.3429 38.9447 24.447 40.7548 22.1097 40.7548L4.41253 40.7548L4.41253 43.9084L-1.34833e-10 42.8686C-1.46017e-10 44.0368 0.990521 44.9825 2.21411 44.9825L22.1074 44.9825C26.892 44.9825 30.7689 41.279 30.7689 36.7132L30.7689 28.7863L18.6227 28.7863C17.2467 28.7863 16.1307 29.8517 16.1307 31.1654L16.1307 39.0089L16.1329 39.0089Z" fill="white"/>
<path d="M4.41273 40.755L2.21655 40.755C0.992963 40.755 0.00244141 41.7007 0.00244141 42.8689L4.41497 43.9087L4.41497 40.755L4.41273 40.755Z" fill="white"/>
<path d="M0.225586 22.0669L0.994239 22.0669L0.994239 23.5299L2.43678 23.5299L2.43678 22.0669L3.20543 22.0669L3.20543 25.6566L2.43678 25.6566L2.43678 24.1182L0.994239 24.1182L0.994239 25.6566L0.225586 25.6566L0.225586 22.0669Z" fill="white"/>
<path d="M4.43582 25.6566L3.61978 25.6566L4.97282 22.0669L6.02577 22.0669L7.37354 25.6566L6.54698 25.6566L6.21004 24.7818L4.76223 24.7818L4.43582 25.6566ZM4.94123 24.1886L6.03103 24.1886L5.48877 22.64L4.94123 24.1886Z" fill="white"/>
<path d="M7.79365 22.0669L9.07299 22.0669C9.38185 22.0669 9.65386 22.1088 9.88902 22.1926C10.1277 22.273 10.326 22.3903 10.4839 22.5445C10.6454 22.6987 10.7665 22.8864 10.8472 23.1076C10.9279 23.3255 10.9683 23.5718 10.9683 23.8467C10.9683 24.1282 10.9262 24.3813 10.8419 24.6059C10.7612 24.8271 10.6401 25.0165 10.4787 25.174C10.3207 25.3282 10.1242 25.4472 9.88902 25.5309C9.65386 25.6147 9.38185 25.6566 9.07299 25.6566L7.79365 25.6566L7.79365 22.0669ZM8.56231 25.0684L8.96243 25.0684C9.17302 25.0684 9.35728 25.0399 9.51523 24.9829C9.67317 24.926 9.80128 24.8438 9.89955 24.7366C10.0013 24.6293 10.0768 24.502 10.1259 24.3545C10.1751 24.207 10.1996 24.0411 10.1996 23.8567C10.1996 23.6757 10.1751 23.5115 10.1259 23.364C10.0768 23.2166 10.0013 23.0909 9.89955 22.987C9.80128 22.8797 9.67317 22.7976 9.51523 22.7406C9.35728 22.6836 9.17302 22.6551 8.96243 22.6551L8.56231 22.6551L8.56231 25.0684Z" fill="white"/>
<path d="M11.9679 25.6566L11.1519 25.6566L12.5049 22.0669L13.5578 22.0669L14.9056 25.6566L14.0791 25.6566L13.7421 24.7818L12.2943 24.7818L11.9679 25.6566ZM12.4733 24.1886L13.5631 24.1886L13.0208 22.64L12.4733 24.1886Z" fill="white"/>
<path d="M15.3257 22.0669L17.579 22.0669L17.579 22.6551L16.0944 22.6551L16.0944 23.5299L17.4527 23.5299L17.4527 24.1182L16.0944 24.1182L16.0944 25.6566L15.3257 25.6566L15.3257 22.0669Z" fill="white"/>
</g>
<defs>
<clipPath id="clip0_4330_305687">
<rect width="74" height="22.9828" fill="white" transform="translate(0 22)"/>
</clipPath>
</defs>
</svg>
