<svg width="1200" height="246" viewBox="0 0 1200 246" fill="none" xmlns="http://www.w3.org/2000/svg">
<rect x="0.435636" y="0.435636" width="1199.13" height="245.129" fill="white"/>
<rect x="0.435636" y="0.435636" width="1199.13" height="245.129" stroke="#E5E7EB" stroke-width="0.871272"/>
<g clip-path="url(#clip0_1900_178797)">
<path d="M0 16C0 7.16344 7.16344 0 16 0H1184C1192.84 0 1200 7.16344 1200 16V246H0V16Z" fill="white"/>
<path d="M0 16C0 7.16344 7.16344 0 16 0H1184C1192.84 0 1200 7.16344 1200 16V246H0V16Z" fill="url(#paint0_linear_1900_178797)" fill-opacity="0.2"/>
<path opacity="0.29" d="M212.372 224.466C184.471 263.384 131.538 271.382 94.1662 242.326L-88.4779 100.326L-2.46108 -19.6546L104.386 63.4159C120.004 75.5584 142.195 72.2057 153.855 55.9415L248.848 -76.5597L294.338 -41.1922C332.888 -11.2213 340.741 45.544 312.007 85.6235L212.48 224.45L212.372 224.466Z" fill="#E5EEF3"/>
<path opacity="0.29" d="M164.826 -253.495C192.903 -291.955 245.827 -299.271 283.012 -269.832L582.652 -32.6123L435.166 37.7223L260.957 -100.196C251.46 -107.715 237.931 -105.845 230.761 -96.0224L126.881 46.2737L80.8154 9.80462C42.9518 -20.1713 35.4296 -76.2471 64.0188 -115.409L164.826 -253.495Z" fill="#B3CBDB"/>
<path opacity="0.29" d="M348.015 62.093C358.389 44.1828 380.749 38.4196 397.948 49.2232L482.002 102.023L450.018 157.239L400.847 126.351C393.659 121.836 384.285 124.252 379.95 131.737L344.629 192.715L323.694 179.564C305.953 168.42 300.278 144.438 310.962 125.993L347.969 62.1048L348.015 62.093Z" fill="#CCDCE7"/>
</g>
<defs>
<linearGradient id="paint0_linear_1900_178797" x1="600" y1="0" x2="600" y2="246" gradientUnits="userSpaceOnUse">
<stop stop-color="#005187" stop-opacity="0.4"/>
<stop offset="1" stop-color="#005187" stop-opacity="0"/>
</linearGradient>
<clipPath id="clip0_1900_178797">
<path d="M0 16C0 7.16344 7.16344 0 16 0H1184C1192.84 0 1200 7.16344 1200 16V246H0V16Z" fill="white"/>
</clipPath>
</defs>
</svg>
