<svg width="73" height="70" viewBox="0 0 73 70" fill="none" xmlns="http://www.w3.org/2000/svg">
<path d="M44.248 34.082H29.2656V39.1658H44.248V34.082Z" fill="#00AC65"/>
<path d="M47.2245 28.9991H25.7172C24.1485 28.9991 22.7844 27.8939 22.5116 26.3908L19.8516 12.0236C19.8516 6.58611 24.3758 2.1875 29.9687 2.1875H42.9504C48.5432 2.1875 53.0674 6.58611 53.0674 12.0236L50.4074 26.3908C50.1346 27.8939 48.7705 28.9991 47.2018 28.9991H47.2245Z" stroke="#005187" stroke-width="3" stroke-miterlimit="10"/>
<path d="M29.2656 28.998V39.1657" stroke="#005187" stroke-width="3" stroke-miterlimit="10"/>
<path d="M44.2266 28.998V39.1657" stroke="#005187" stroke-width="3" stroke-miterlimit="10"/>
<path d="M51.6854 39.166H21.266C19.596 39.166 18.2422 40.4822 18.2422 42.1058V42.8352C18.2422 44.4588 19.596 45.775 21.266 45.775H51.6854C53.3554 45.775 54.7092 44.4588 54.7092 42.8352V42.1058C54.7092 40.4822 53.3554 39.166 51.6854 39.166Z" stroke="#005187" stroke-width="3" stroke-miterlimit="10"/>
<path d="M36.4766 45.7539V62.1105" stroke="#005187" stroke-width="3" stroke-miterlimit="10"/>
<path d="M23.3594 62.1099V60.6953C23.3594 56.9598 26.4741 53.9316 30.3163 53.9316H42.6387C46.4809 53.9316 49.5956 56.9598 49.5956 60.6953V62.1099" stroke="#005187" stroke-width="3" stroke-miterlimit="10"/>
<path d="M36.4719 67.8121C38.0916 67.8121 39.4047 66.5355 39.4047 64.9607C39.4047 63.386 38.0916 62.1094 36.4719 62.1094C34.8521 62.1094 33.5391 63.386 33.5391 64.9607C33.5391 66.5355 34.8521 67.8121 36.4719 67.8121Z" stroke="#005187" stroke-width="2" stroke-miterlimit="10"/>
<path d="M49.5969 67.8121C51.2166 67.8121 52.5297 66.5355 52.5297 64.9607C52.5297 63.386 51.2166 62.1094 49.5969 62.1094C47.9771 62.1094 46.6641 63.386 46.6641 64.9607C46.6641 66.5355 47.9771 67.8121 49.5969 67.8121Z" stroke="#005187" stroke-width="2" stroke-miterlimit="10"/>
<path d="M23.3547 67.8121C24.9744 67.8121 26.2875 66.5355 26.2875 64.9607C26.2875 63.386 24.9744 62.1094 23.3547 62.1094C21.7349 62.1094 20.4219 63.386 20.4219 64.9607C20.4219 66.5355 21.7349 67.8121 23.3547 67.8121Z" stroke="#005187" stroke-width="2" stroke-miterlimit="10"/>
<path d="M29.2656 10.6309V16.6872" stroke="#00AC65" stroke-width="2" stroke-miterlimit="10" stroke-linecap="round"/>
<path d="M44.2266 10.6309V16.6872" stroke="#00AC65" stroke-width="2" stroke-miterlimit="10" stroke-linecap="round"/>
<path d="M36.4766 10.6309V16.6872" stroke="#005187" stroke-width="2" stroke-miterlimit="10" stroke-linecap="round"/>
</svg>
