<svg width="105" height="48" viewBox="0 0 105 48" fill="none" xmlns="http://www.w3.org/2000/svg">
<g clip-path="url(#clip0_764_677210)">
<g opacity="0.85">
<path d="M95.6158 39.6878C99.5897 34.7753 102.327 30.0923 102.982 28.9416C103.044 28.8268 103.106 28.7121 103.167 28.5974C104.625 25.4823 104.106 22.7636 103.61 21.3173C102.781 19.3617 101.842 17.4253 100.795 15.5131C99.8426 13.8374 98.7946 12.1929 97.7327 10.6406C96.2204 11.7358 93.563 13.488 90.0083 15.1498C89.6757 15.3045 89.3691 15.4418 89.0815 15.567C93.4331 16.6169 97.2875 18.7064 100.044 21.6893L100.031 21.7137C96.8319 20.808 93.4227 20.2969 89.9252 20.2118C91.7198 22.6124 92.7921 25.4058 92.9532 28.4079L92.9255 28.4253C91.4357 26.7826 89.6896 25.2981 87.7321 23.9995C88.0283 26.2524 87.933 28.4879 87.3389 30.4383L87.3077 30.4487C86.2077 27.796 84.5706 25.3276 82.4451 23.146C82.3931 23.9491 82.362 24.754 82.3516 25.5588C82.4278 31.7594 83.5434 37.0925 84.7058 41.0054C84.7958 41.2836 84.8859 41.5617 84.9812 41.8381C91.2625 38.2276 102.024 25.8091 102.024 25.8091C99.3056 32.7224 88.9378 43.493 86.5489 45.9197C86.8278 46.6063 87.1015 47.2929 87.3631 47.9813C87.3718 47.9987 87.377 48.0091 87.3787 48.0126C90.4276 45.386 93.1732 42.603 95.6193 39.693L95.6158 39.6878Z" fill="white"/>
</g>
<path d="M87.454 29.987C87.4159 30.1347 87.3744 30.2807 87.331 30.425L87.2999 30.4355C86.1999 27.7828 84.5628 25.3144 82.4373 23.1328C82.3853 23.9359 82.3541 24.7407 82.3438 25.5456C82.42 31.7461 83.5356 37.0793 84.6979 40.9922C84.788 41.2704 84.8781 41.5485 84.9734 41.8249C87.7555 40.2256 91.4158 36.8985 94.631 33.6878C91.6964 33.6218 89.0997 32.1842 87.454 29.987Z" fill="white"/>
<path d="M103.614 21.3056C102.784 19.35 101.845 17.4135 100.799 15.5014C99.8458 13.8257 98.7977 12.1812 97.7358 10.6289C96.2235 11.724 93.5662 13.4763 90.0115 15.1381C89.6789 15.2928 89.3723 15.4301 89.0847 15.5553C89.691 15.7013 90.2869 15.8682 90.8707 16.0542C92.0764 15.4753 93.4258 15.152 94.8498 15.152C99.9514 15.152 104.086 19.3013 104.086 24.4207C104.086 28.61 101.318 32.1492 97.5158 33.2965C93.4345 38.8 88.1648 44.2635 86.5469 45.9045C86.8258 46.5911 87.0995 47.2777 87.3611 47.9661C87.3697 47.9835 87.3749 47.9939 87.3766 47.9974C90.4255 45.3708 93.1712 42.5878 95.6172 39.6778C99.5911 34.7654 102.328 30.0824 102.983 28.9316C103.045 28.8169 103.108 28.7021 103.168 28.5874C104.627 25.4724 104.107 22.7536 103.612 21.3074L103.614 21.3056Z" fill="white"/>
<path d="M88.1875 11.2874C89.6288 10.8945 93.6425 9.83588 96.823 9.35958C95.3506 7.20408 93.7309 5.08855 91.9622 3.02344C91.323 5.89165 90.0203 8.70424 88.1892 11.2874H88.1875Z" fill="white"/>
<path d="M89.2397 0C88.8308 0.806577 88.4099 1.60968 87.9751 2.4093C86.9669 4.26408 86.0869 6.15536 85.3281 8.07098C87.497 6.24054 89.4475 4.22931 91.1504 2.09119C90.5285 1.38891 89.8962 0.69011 89.2397 0.00173831V0Z" fill="white"/>
<path d="M6.24177 16.023C5.39987 16.023 4.72774 15.9066 4.42286 15.3694C4.13876 15.4963 3.66584 15.6649 3.02489 15.6649C2.00456 15.6649 0.921875 15.1695 0.921875 13.6502C0.921875 12.2996 1.79496 11.5191 3.2345 11.5191H5.1383V14.5055C5.1383 15.1487 5.46397 15.3173 6.27295 15.3173H6.35784C6.55705 15.3173 6.66272 15.359 6.66272 15.6875C6.66272 15.9726 6.61075 16.0248 6.49469 16.0248H6.24177V16.023ZM3.09765 14.9261C3.59135 14.9261 4.0123 14.8201 4.27561 14.6619V12.2144H3.32977C2.53118 12.2144 1.76377 12.4351 1.76377 13.6485C1.76377 14.7558 2.59528 14.9261 3.09938 14.9261H3.09765ZM2.59355 9.49219C2.87764 9.49219 3.07686 9.70252 3.07686 9.98761C3.07686 10.2727 2.87764 10.483 2.59355 10.483C2.30945 10.483 2.09984 10.2727 2.09984 9.98761C2.09984 9.70252 2.30945 9.49219 2.59355 9.49219ZM3.90836 9.49219C4.19246 9.49219 4.39168 9.70252 4.39168 9.98761C4.39168 10.2727 4.19246 10.483 3.90836 10.483C3.62427 10.483 3.41466 10.2727 3.41466 9.98761C3.41466 9.70252 3.62427 9.49219 3.90836 9.49219Z" fill="white"/>
<path d="M7.66484 14.064V11.5312H8.52753V14.3178C8.52753 15.0027 8.95887 15.3312 9.68471 15.3312C9.88392 15.3312 9.98959 15.3729 9.98959 15.7015C9.98959 15.9657 9.91684 16.0387 9.82156 16.0387C9.15982 16.0387 8.55871 15.8388 8.26595 15.3312C7.95067 15.8058 7.36169 16.0387 6.49901 16.0387C6.15255 16.0387 6.04688 15.9553 6.04688 15.658C6.04688 15.4372 6.15255 15.3312 6.36215 15.3312C7.25602 15.3312 7.66658 14.9627 7.66658 14.0657L7.66484 14.064ZM7.40153 16.8922C7.68563 16.8922 7.88485 17.1025 7.88485 17.3876C7.88485 17.6727 7.68563 17.883 7.40153 17.883C7.11744 17.883 6.90783 17.6727 6.90783 17.3876C6.90783 17.1025 7.11744 16.8922 7.40153 16.8922ZM8.71635 16.8922C9.00045 16.8922 9.19966 17.1025 9.19966 17.3876C9.19966 17.6727 9.00045 17.883 8.71635 17.883C8.43225 17.883 8.22265 17.6727 8.22265 17.3876C8.22265 17.1025 8.43225 16.8922 8.71635 16.8922Z" fill="white"/>
<path d="M11.2381 15.3281C11.4373 15.3281 11.543 15.3698 11.543 15.6984C11.543 15.9626 11.4702 16.0356 11.3749 16.0356H9.81932C9.47286 16.0356 9.36719 15.9522 9.36719 15.6549C9.36719 15.4342 9.47286 15.3281 9.68247 15.3281H11.2381Z" fill="white"/>
<path d="M12.8006 15.3281C12.9998 15.3281 13.1055 15.3698 13.1055 15.6984C13.1055 15.9626 13.0327 16.0356 12.9374 16.0356H11.3818C11.0354 16.0356 10.9297 15.9522 10.9297 15.6549C10.9297 15.4342 11.0354 15.3281 11.245 15.3281H12.8006Z" fill="white"/>
<path d="M14.3553 15.3281C14.5545 15.3281 14.6601 15.3698 14.6601 15.6984C14.6601 15.9626 14.5874 16.0356 14.4921 16.0356H12.9365C12.59 16.0356 12.4844 15.9522 12.4844 15.6549C12.4844 15.4342 12.59 15.3281 12.7997 15.3281H14.3553Z" fill="white"/>
<path d="M15.9099 15.3281C16.1092 15.3281 16.2148 15.3698 16.2148 15.6984C16.2148 15.9626 16.1421 16.0356 16.0468 16.0356H14.4912C14.1447 16.0356 14.0391 15.9522 14.0391 15.6549C14.0391 15.4342 14.1447 15.3281 14.3543 15.3281H15.9099Z" fill="white"/>
<path d="M17.4646 15.3281C17.6639 15.3281 17.7695 15.3698 17.7695 15.6984C17.7695 15.9626 17.6968 16.0356 17.6015 16.0356H16.0459C15.6994 16.0356 15.5938 15.9522 15.5938 15.6549C15.5938 15.4342 15.6994 15.3281 15.909 15.3281H17.4646Z" fill="white"/>
<path d="M17.6006 16.031C17.2541 16.031 17.1484 15.9475 17.1484 15.6503C17.1484 15.4295 17.2541 15.3235 17.4637 15.3235H17.7374C18.1688 15.3235 18.5481 15.0071 18.5793 14.4474C18.6729 12.5161 19.4212 11.4609 20.8608 11.4609C22.4805 11.4609 22.9742 12.643 22.9742 13.7086C22.9742 13.9832 22.943 14.2353 22.8789 14.4786C22.9309 15.101 23.3934 15.3235 24.0361 15.3235C24.2457 15.3235 24.3513 15.3652 24.3513 15.6937C24.3513 15.9579 24.289 16.031 24.1729 16.031C23.5008 16.031 22.8477 15.8623 22.5428 15.2192C22.1756 15.758 21.6074 16.0744 20.8919 16.0744C20.3341 16.0744 19.7556 15.8849 19.1354 15.3461C18.9777 15.7146 18.6937 16.031 17.9886 16.031H17.5988H17.6006ZM19.3675 14.5847C19.9045 15.0801 20.3341 15.3339 20.9231 15.3339C21.8897 15.3339 22.1011 14.3848 22.1011 13.7503C22.1011 12.6847 21.6386 12.1997 20.8504 12.1997C20.0622 12.1997 19.4628 12.9802 19.3675 14.5847Z" fill="white"/>
<path d="M25.3367 14.05V11.5173H26.1994V14.3038C26.1994 14.9887 26.6307 15.3173 27.3566 15.3173C27.5558 15.3173 27.6615 15.359 27.6615 15.6875C27.6615 15.9518 27.5887 16.0248 27.4934 16.0248C26.8317 16.0248 26.2323 15.8249 25.9378 15.3173C25.6225 15.7918 25.0336 16.0248 24.1709 16.0248C23.8244 16.0248 23.7188 15.9413 23.7188 15.6441C23.7188 15.4233 23.8244 15.3173 24.034 15.3173C24.9279 15.3173 25.3385 14.9487 25.3385 14.0518L25.3367 14.05ZM25.7681 9.49219C26.0522 9.49219 26.2514 9.70252 26.2514 9.98761C26.2514 10.2727 26.0522 10.483 25.7681 10.483C25.484 10.483 25.2744 10.2727 25.2744 9.98761C25.2744 9.70252 25.484 9.49219 25.7681 9.49219Z" fill="white"/>
<path d="M28.6717 14.05V11.5173H29.524V14.2082C29.524 15.4216 28.8519 16.023 27.4938 16.023C27.1889 16.023 27.0312 15.9604 27.0312 15.6754C27.0312 15.5067 27.0728 15.3173 27.3569 15.3173C28.2404 15.3173 28.6717 14.9487 28.6717 14.0518V14.05ZM28.3565 9.49219C28.6406 9.49219 28.8398 9.70252 28.8398 9.98761C28.8398 10.2727 28.6406 10.483 28.3565 10.483C28.0724 10.483 27.8628 10.2727 27.8628 9.98761C27.8628 9.70252 28.0724 9.49219 28.3565 9.49219ZM29.6713 9.49219C29.9554 9.49219 30.1546 9.70252 30.1546 9.98761C30.1546 10.2727 29.9554 10.483 29.6713 10.483C29.3872 10.483 29.1776 10.2727 29.1776 9.98761C29.1776 9.70252 29.3872 9.49219 29.6713 9.49219Z" fill="white"/>
<path d="M38.7186 16.0248C37.1734 16.0248 36.3835 15.1069 36.3835 13.8727C36.3835 12.4699 37.3085 11.4565 38.6337 11.4565C39.9589 11.4565 40.6726 12.2474 40.6726 13.5251V15.6145C40.6726 17.0712 39.6211 17.8622 37.0036 17.8622C34.7638 17.8622 33.5234 17.0817 33.5234 15.2564C33.5234 14.7071 33.7123 13.9162 34.0916 13.1983L34.8694 13.4834C34.5646 14.1908 34.4173 14.761 34.4173 15.319C34.4173 16.5862 35.3216 17.1651 37.0885 17.1651C38.8555 17.1651 39.7805 16.6262 39.7805 15.8353C39.5605 15.9205 39.266 16.0248 38.7186 16.0248ZM38.8035 15.3173C39.2972 15.3173 39.6229 15.1799 39.7926 15.0965V13.831C39.7926 12.8715 39.5189 12.1848 38.5627 12.1848C38.1833 12.1848 37.2791 12.3743 37.2791 13.831C37.2791 15.0235 38.1625 15.319 38.8035 15.319V15.3173ZM37.9512 9.49219C38.2353 9.49219 38.4345 9.70252 38.4345 9.98761C38.4345 10.2727 38.2353 10.483 37.9512 10.483C37.6671 10.483 37.4575 10.2727 37.4575 9.98761C37.4575 9.70252 37.6671 9.49219 37.9512 9.49219ZM39.266 9.49219C39.5501 9.49219 39.7493 9.70252 39.7493 9.98761C39.7493 10.2727 39.5501 10.483 39.266 10.483C38.9819 10.483 38.7723 10.2727 38.7723 9.98761C38.7723 9.70252 38.9819 9.49219 39.266 9.49219Z" fill="white"/>
<path d="M45.4387 15.8397C45.2187 15.9249 44.9242 16.0292 44.3768 16.0292C42.842 16.0292 42.0312 15.1114 42.0312 13.8772C42.0312 12.4744 42.9771 11.4609 44.2919 11.4609C45.6067 11.4609 46.3222 12.2519 46.3222 13.5295V15.5981C46.3222 16.8966 45.8181 17.877 44.1654 17.877C43.7445 17.877 43.23 17.8023 42.8194 17.7084L42.9459 17.034C43.2716 17.1087 43.7133 17.2026 44.1239 17.2026C44.9554 17.2026 45.4387 16.8445 45.4387 15.8415V15.8397ZM44.4617 15.3235C44.9554 15.3235 45.281 15.1861 45.4491 15.1027V13.8372C45.4491 12.8777 45.1754 12.191 44.2191 12.191C43.8398 12.191 42.9355 12.3805 42.9355 13.8372C42.9355 15.0297 43.819 15.3252 44.4599 15.3252L44.4617 15.3235Z" fill="white"/>
<path d="M49.578 15.3295C50.503 15.3295 50.7767 14.9488 50.7767 14.064V13.8206C50.7767 12.8506 50.4181 12.2387 48.9474 12.2387H48.1904V11.5312H49.2419C50.924 11.5312 51.6394 12.3552 51.6394 13.6207V14.3178C51.6394 14.8549 52.0292 15.3312 52.6286 15.3312C52.8382 15.3312 52.9334 15.3729 52.9334 15.7015C52.9334 15.9657 52.859 16.0387 52.7654 16.0387C52.3341 16.0387 51.6931 15.8492 51.3882 15.3747C51.1041 15.8075 50.6104 16.0387 49.7789 16.0387H47.5391V15.3312H49.5797L49.578 15.3295Z" fill="white"/>
<path d="M54.1834 15.3281C54.3826 15.3281 54.4883 15.3698 54.4883 15.6984C54.4883 15.9626 54.4155 16.0356 54.3202 16.0356H52.7646C52.4182 16.0356 52.3125 15.9522 52.3125 15.6549C52.3125 15.4342 52.4182 15.3281 52.6278 15.3281H54.1834Z" fill="white"/>
<path d="M55.7381 15.3281C55.9373 15.3281 56.043 15.3698 56.043 15.6984C56.043 15.9626 55.9702 16.0356 55.8749 16.0356H54.3193C53.9729 16.0356 53.8672 15.9522 53.8672 15.6549C53.8672 15.4342 53.9729 15.3281 54.1825 15.3281H55.7381Z" fill="white"/>
<path d="M57.2945 15.3281C57.4937 15.3281 59.2 15.3698 59.2 15.6984C59.2 15.9626 59.1273 16.0356 59.032 16.0356H55.874C55.5275 16.0356 55.4219 15.9522 55.4219 15.6549C55.4219 15.4342 55.5275 15.3281 55.7372 15.3281H57.2928H57.2945Z" fill="white"/>
<path d="M60.4559 15.3281C60.6551 15.3281 60.7608 15.3698 60.7608 15.6984C60.7608 15.9626 60.688 16.0356 60.5928 16.0356H59.0372C58.6907 16.0356 56.9844 15.9522 56.9844 15.6549C56.9844 15.4342 57.09 15.3281 57.2997 15.3281H60.4576H60.4559Z" fill="white"/>
<path d="M62.0037 15.3281C62.2029 15.3281 62.3086 15.3698 62.3086 15.6984C62.3086 15.9626 62.2358 16.0356 62.1405 16.0356H60.5849C60.2385 16.0356 60.1328 15.9522 60.1328 15.6549C60.1328 15.4342 60.2385 15.3281 60.4481 15.3281H62.0037Z" fill="white"/>
<path d="M63.5662 15.3281C63.7654 15.3281 63.8711 15.3698 63.8711 15.6984C63.8711 15.9626 63.7983 16.0356 63.703 16.0356H62.1474C61.801 16.0356 61.6953 15.9522 61.6953 15.6549C61.6953 15.4342 61.801 15.3281 62.0106 15.3281H63.5662Z" fill="white"/>
<path d="M65.1209 15.3281C65.3201 15.3281 65.4258 15.3698 65.4258 15.6984C65.4258 15.9626 65.353 16.0356 65.2577 16.0356H63.7021C63.3557 16.0356 63.25 15.9522 63.25 15.6549C63.25 15.4342 63.3557 15.3281 63.5653 15.3281H65.1209Z" fill="white"/>
<path d="M66.4227 14.05V11.5173H67.2853V14.3038C67.2853 14.9887 67.7167 15.3173 68.4425 15.3173C68.6417 15.3173 68.7474 15.359 68.7474 15.6875C68.7474 15.9518 68.6747 16.0248 68.5794 16.0248C67.9176 16.0248 67.3183 15.8249 67.0238 15.3173C66.7085 15.7918 66.1195 16.0248 65.2568 16.0248C64.9104 16.0248 64.8047 15.9413 64.8047 15.6441C64.8047 15.4233 64.9104 15.3173 65.12 15.3173C66.0138 15.3173 66.4244 14.9487 66.4244 14.0518L66.4227 14.05ZM66.854 9.49219C67.1381 9.49219 67.3373 9.70252 67.3373 9.98761C67.3373 10.2727 67.1381 10.483 66.854 10.483C66.5699 10.483 66.3603 10.2727 66.3603 9.98761C66.3603 9.70252 66.5699 9.49219 66.854 9.49219Z" fill="white"/>
<path d="M68.5356 16.0275C68.293 16.0275 68.125 15.9649 68.125 15.6798C68.125 15.3426 68.2826 15.3217 68.4403 15.3217H69.5871V11.5235H70.4498V12.2414C71.5013 11.7043 72.4055 11.4609 73.2994 11.4609C75.3175 11.4609 75.8649 12.6951 75.8649 13.8459V14.2162C75.8649 15.4399 75.3383 16.031 74.0044 16.031H68.5373L68.5356 16.0275ZM70.4498 13.0098V15.32H73.8035C74.7285 15.32 75.0022 14.9515 75.0022 14.0649C75.0022 12.9993 74.5189 12.1876 73.2041 12.1876C72.2358 12.1876 71.2899 12.5144 70.4498 13.0098Z" fill="white"/>
<path d="M5.3199 27.0504C4.478 27.0504 3.80587 26.9339 3.50098 26.3968C3.21688 26.5237 2.74397 26.6923 2.10301 26.6923C1.08269 26.6923 0 26.1969 0 24.6776C0 23.3269 0.87308 22.5464 2.31262 22.5464H4.21642V25.5328C4.21642 26.176 4.5421 26.3446 5.35281 26.3446H5.43596C5.63518 26.3446 5.74085 26.3863 5.74085 26.7149C5.74085 27 5.68888 27.0521 5.57281 27.0521H5.3199V27.0504ZM2.17577 25.9535C2.66948 25.9535 3.09043 25.8475 3.35374 25.6893V23.2417H2.4079C1.60931 23.2417 0.841899 23.4625 0.841899 24.6758C0.841899 25.7831 1.6734 25.9535 2.1775 25.9535H2.17577ZM1.67167 20.5195C1.95577 20.5195 2.15498 20.7299 2.15498 21.0149C2.15498 21.3 1.95577 21.5104 1.67167 21.5104C1.38757 21.5104 1.17797 21.3 1.17797 21.0149C1.17797 20.7299 1.38757 20.5195 1.67167 20.5195ZM2.98649 20.5195C3.27059 20.5195 3.4698 20.7299 3.4698 21.0149C3.4698 21.3 3.27059 21.5104 2.98649 21.5104C2.70239 21.5104 2.49278 21.3 2.49278 21.0149C2.49278 20.7299 2.70239 20.5195 2.98649 20.5195Z" fill="white"/>
<path d="M6.74813 25.0796V22.5469H7.60042V25.2378C7.60042 26.4511 6.92829 27.0526 5.5719 27.0526C5.26701 27.0526 5.10938 26.99 5.10938 26.7049C5.10938 26.5363 5.15095 26.3468 5.43505 26.3468C6.31852 26.3468 6.74986 25.9783 6.74986 25.0813L6.74813 25.0796ZM6.12797 27.9078C6.41207 27.9078 6.61128 28.1182 6.61128 28.4032C6.61128 28.6883 6.41207 28.8987 6.12797 28.8987C5.84387 28.8987 5.63426 28.6883 5.63426 28.4032C5.63426 28.1182 5.84387 27.9078 6.12797 27.9078ZM7.44279 27.9078C7.72688 27.9078 7.9261 28.1182 7.9261 28.4032C7.9261 28.6883 7.72688 28.8987 7.44279 28.8987C7.15869 28.8987 6.94908 28.6883 6.94908 28.4032C6.94908 28.1182 7.15869 27.9078 7.44279 27.9078Z" fill="white"/>
<path d="M8.24219 28.8378L8.35825 28.1199C8.51589 28.1512 8.67353 28.1616 8.83117 28.1616C9.5033 28.1616 9.7874 27.7705 9.7874 26.8422V22.5469H10.6501V26.3451H11.66C11.8592 26.3451 11.9649 26.3868 11.9649 26.7153C11.9649 26.9796 11.8904 27.0526 11.7969 27.0526H10.6397C10.5565 28.2868 10.0195 28.8987 8.88314 28.8987C8.68392 28.8987 8.4414 28.8778 8.24219 28.8361V28.8378Z" fill="white"/>
<path d="M13.2146 26.3438C13.4139 26.3438 13.5195 26.3855 13.5195 26.714C13.5195 26.9782 13.4468 27.0512 13.3515 27.0512H11.7959C11.4494 27.0512 11.3438 26.9678 11.3438 26.6706C11.3438 26.4498 11.4494 26.3438 11.659 26.3438H13.2146Z" fill="white"/>
<path d="M14.7771 26.3438C14.9763 26.3438 15.082 26.3855 15.082 26.714C15.082 26.9782 15.0093 27.0512 14.914 27.0512H13.3584C13.0119 27.0512 12.9062 26.9678 12.9062 26.6706C12.9062 26.4498 13.0119 26.3438 13.2215 26.3438H14.7771Z" fill="white"/>
<path d="M15.2229 26.3386C15.9488 26.3386 16.148 25.8015 16.148 25.1774V23.5208H17.0107V25.3252C17.0107 25.9892 17.4004 26.3386 17.9773 26.3386C18.7031 26.3386 18.9024 25.8015 18.9024 25.1774V23.5208H19.765V25.3252C19.765 25.9892 20.1548 26.3386 20.7317 26.3386C21.4991 26.3386 21.5944 25.5477 21.5944 25.0731V22.5404H22.457V25.2313C22.457 25.9493 22.7411 26.3386 23.5813 26.3386C23.7805 26.3386 23.8862 26.3804 23.8862 26.7089C23.8862 26.9731 23.8134 27.0461 23.7182 27.0461C23.0772 27.0461 22.4986 26.8567 22.1937 26.3612C21.9737 26.7524 21.5736 27.0461 20.8893 27.0461C20.2587 27.0461 19.7529 26.7819 19.5329 26.3717C19.3545 26.6359 18.9751 27.0461 18.0708 27.0461C17.4403 27.0461 16.9986 26.7819 16.7768 26.3717C16.5984 26.6359 16.219 27.0461 15.3148 27.0461H14.9042C14.5681 27.0461 14.3672 26.9836 14.3672 26.6985C14.3672 26.4568 14.504 26.3404 14.7674 26.3404H15.2195L15.2229 26.3386ZM18.6616 20.5136C18.9457 20.5136 19.1449 20.7239 19.1449 21.009C19.1449 21.2941 18.9457 21.5044 18.6616 21.5044C18.3775 21.5044 18.1679 21.2941 18.1679 21.009C18.1679 20.7239 18.3775 20.5136 18.6616 20.5136ZM19.3129 19.4062C19.597 19.4062 19.7962 19.6166 19.7962 19.9017C19.7962 20.1868 19.597 20.3971 19.3129 20.3971C19.0288 20.3971 18.8192 20.1868 18.8192 19.9017C18.8192 19.6166 19.0288 19.4062 19.3129 19.4062ZM19.9746 20.5136C20.2587 20.5136 20.458 20.7239 20.458 21.009C20.458 21.2941 20.2587 21.5044 19.9746 21.5044C19.6906 21.5044 19.4809 21.2941 19.4809 21.009C19.4809 20.7239 19.6906 20.5136 19.9746 20.5136Z" fill="white"/>
<path d="M24.8992 25.0796V22.5469H25.7619V25.3334C25.7619 26.0183 26.1932 26.3468 26.9191 26.3468C27.1183 26.3468 27.224 26.3885 27.224 26.7171C27.224 26.9813 27.1512 27.0543 27.0559 27.0543C26.3942 27.0543 25.7948 26.8544 25.5003 26.3468C25.185 26.8214 24.5961 27.0543 23.7334 27.0543C23.3869 27.0543 23.2812 26.9709 23.2812 26.6736C23.2812 26.4529 23.3869 26.3468 23.5965 26.3468C24.4904 26.3468 24.901 25.9783 24.901 25.0813L24.8992 25.0796ZM25.2994 27.8765C25.5835 27.8765 25.7827 28.0869 25.7827 28.372C25.7827 28.657 25.5835 28.8674 25.2994 28.8674C25.0153 28.8674 24.8057 28.657 24.8057 28.372C24.8057 28.0869 25.0153 27.8765 25.2994 27.8765Z" fill="white"/>
<path d="M28.2342 25.0707V19.2891H29.0969V25.2289C29.0969 26.4422 28.4144 27.0437 27.0563 27.0437C26.7514 27.0437 26.5938 26.9811 26.5938 26.696C26.5938 26.5274 26.6353 26.3379 26.9194 26.3379C27.8029 26.3379 28.2342 25.9694 28.2342 25.0724V25.0707Z" fill="white"/>
<path d="M31.7455 19.2891V27.0437H30.8828V19.2891H31.7455Z" fill="white"/>
<path d="M37.8375 26.3451C38.773 26.3451 39.0467 25.9766 39.0467 25.0796V24.8362C39.0467 23.8663 38.6898 23.2544 37.2174 23.2544H36.4603V22.5469H37.5015C39.1939 22.5469 39.9094 23.3708 39.9094 24.6363V25.2378C39.9094 26.4616 39.3827 27.0526 38.0367 27.0526H35.7969V26.3451H37.8375Z" fill="white"/>
<path d="M40.3984 28.8378L40.5145 28.1199C40.6721 28.1512 40.8298 28.1616 40.9874 28.1616C41.6596 28.1616 41.9437 27.7705 41.9437 26.8422V22.5469H42.8063V26.7258C42.8063 28.1721 42.2693 28.9004 41.0394 28.9004C40.8402 28.9004 40.5977 28.8795 40.3984 28.8378Z" fill="white"/>
<path d="M45.4018 19.2891V27.0437H44.5391V19.2891H45.4018Z" fill="white"/>
<path d="M50.0611 27.0448H49.3457C47.1474 27.0448 46.6641 25.9584 46.6641 24.8928C46.6641 23.49 47.5891 22.4766 48.9143 22.4766C50.2395 22.4766 50.9446 23.2675 50.9446 24.5452V26.3391H51.764C51.9632 26.3391 52.0688 26.3808 52.0688 26.7094C52.0688 26.9736 51.9944 27.0466 51.9008 27.0466H50.9238C50.8077 28.1122 50.2413 28.8927 48.7896 28.8927C48.3687 28.8927 47.8542 28.8179 47.4436 28.7241L47.5701 28.0496C47.8957 28.1243 48.3375 28.2182 48.748 28.2182C49.5899 28.2182 50.0091 27.8601 50.0628 27.0466L50.0611 27.0448ZM49.4202 26.3374H50.0715V24.8494C50.0715 23.8898 49.7458 23.2032 48.8416 23.2032C48.3894 23.2032 47.5579 23.4344 47.5579 24.8494C47.5579 26.0836 48.3253 26.3374 49.4184 26.3374H49.4202Z" fill="white"/>
<path d="M53.324 26.3438C53.5232 26.3438 53.6289 26.3855 53.6289 26.714C53.6289 26.9782 53.5561 27.0512 53.4609 27.0512H51.9053C51.5588 27.0512 51.4531 26.9678 51.4531 26.6706C51.4531 26.4498 51.5588 26.3438 51.7684 26.3438H53.324Z" fill="white"/>
<path d="M54.8709 26.3438C55.0701 26.3438 55.1758 26.3855 55.1758 26.714C55.1758 26.9782 55.103 27.0512 55.0077 27.0512H53.4521C53.1057 27.0512 53 26.9678 53 26.6706C53 26.4498 53.1057 26.3438 53.3153 26.3438H54.8709Z" fill="white"/>
<path d="M56.4334 26.3438C56.6326 26.3438 56.7383 26.3855 56.7383 26.714C56.7383 26.9782 56.6655 27.0512 56.5702 27.0512H55.0146C54.6682 27.0512 54.5625 26.9678 54.5625 26.6706C54.5625 26.4498 54.6682 26.3438 54.8778 26.3438H56.4334Z" fill="white"/>
<path d="M59.5905 26.3438C59.7897 26.3438 59.8953 26.3855 59.8953 26.714C59.8953 26.9782 59.8226 27.0512 59.7273 27.0512H56.5693C56.2229 27.0512 56.1172 26.9678 56.1172 26.6706C56.1172 26.4498 56.2229 26.3438 56.4325 26.3438H59.5905Z" fill="white"/>
<path d="M61.1443 26.3438C61.3435 26.3438 61.4492 26.3855 61.4492 26.714C61.4492 26.9782 61.3765 27.0512 61.2812 27.0512H59.7256C59.3791 27.0512 59.2734 26.9678 59.2734 26.6706C59.2734 26.4498 59.3791 26.3438 59.5887 26.3438H61.1443Z" fill="white"/>
<path d="M62.699 26.3438C62.8982 26.3438 63.0039 26.3855 63.0039 26.714C63.0039 26.9782 62.9311 27.0512 62.8359 27.0512H61.2803C60.9338 27.0512 60.8281 26.9678 60.8281 26.6706C60.8281 26.4498 60.9338 26.3438 61.1434 26.3438H62.699Z" fill="white"/>
<path d="M64.2615 26.3438C64.4607 26.3438 64.5664 26.3855 64.5664 26.714C64.5664 26.9782 64.4936 27.0512 64.3984 27.0512H62.8428C62.4963 27.0512 62.3906 26.9678 62.3906 26.6706C62.3906 26.4498 62.4963 26.3438 62.7059 26.3438H64.2615Z" fill="white"/>
<path d="M64.3974 27.0466C64.051 27.0466 63.9453 26.9631 63.9453 26.6659C63.9453 26.4451 64.051 26.3391 64.2606 26.3391H64.5343C64.9656 26.3391 65.3433 26.0227 65.3762 25.463C65.4715 23.5317 66.2181 22.4766 67.6576 22.4766C69.2773 22.4766 69.771 23.6586 69.771 24.7242C69.771 24.9989 69.7399 25.2509 69.6758 25.4943C69.7277 26.1166 70.1903 26.3391 70.8329 26.3391C71.0426 26.3391 71.1482 26.3808 71.1482 26.7094C71.1482 26.9736 71.0859 27.0466 70.9698 27.0466C70.2977 27.0466 69.6446 26.878 69.3397 26.2348C68.9725 26.7737 68.4043 27.09 67.6888 27.09C67.131 27.09 66.5542 26.9006 65.9323 26.3617C65.7746 26.7302 65.4905 27.0466 64.7855 27.0466H64.3957H64.3974ZM66.1644 25.6003C66.7014 26.0957 67.1327 26.3495 67.72 26.3495C68.6866 26.3495 68.898 25.4004 68.898 24.7659C68.898 23.7003 68.4354 23.2153 67.6472 23.2153C66.859 23.2153 66.2597 23.9958 66.1644 25.6003Z" fill="white"/>
<path d="M72.1405 25.0707V19.2891H73.0032V25.2289C73.0032 26.4422 72.3207 27.0437 70.9625 27.0437C70.6576 27.0437 70.5 26.9811 70.5 26.696C70.5 26.5274 70.5416 26.3379 70.8257 26.3379C71.7091 26.3379 72.1405 25.9694 72.1405 25.0724V25.0707Z" fill="white"/>
<path d="M75.6596 19.2891V27.0437H74.7969V19.2891H75.6596Z" fill="white"/>
<path d="M0.773438 31.9688H1.46809V34.4511H4.21379V31.9688H4.90844V37.6861H4.21379V35.0351H1.46809V37.6861H0.773438V31.9688Z" fill="white"/>
<path d="M10.5186 35.9964C10.5186 37.0377 9.72863 37.7817 8.41901 37.7817C7.10939 37.7817 6.32812 37.0377 6.32812 35.9964V31.9688H7.02278V35.9251C7.02278 36.7578 7.50089 37.1993 8.41208 37.1993C9.32327 37.1993 9.82391 36.6778 9.82391 35.9251V31.9688H10.5186V35.9964Z" fill="white"/>
<path d="M14.6849 37.0533H14.7005L16.3046 31.9688H17.493V37.6861H16.8226V32.4972H16.807L15.1145 37.6861H14.2449L12.6079 32.4972H12.5923V37.6861H11.9375V31.9688H13.1103L14.6815 37.0533H14.6849Z" fill="white"/>
<path d="M19.0852 37.6861H18.3438L20.5143 31.9688H21.448L23.6273 37.6861H22.8685L22.1981 35.9721H19.7331L19.0869 37.6861H19.0852ZM19.908 35.388H22.0301L20.9682 32.4972L19.9063 35.388H19.908Z" fill="white"/>
<path d="M27.9888 36.949H28.0044V31.9688H28.6592V37.6861H27.6371L25.1391 32.6658H25.1236V37.6861H24.4688V31.9688H25.5133L27.9871 36.949H27.9888Z" fill="white"/>
<path d="M32.375 31.9688H34.3377C35.3424 31.9688 36.1098 32.4172 36.1098 33.4828C36.1098 34.1312 35.7426 34.6353 35.0566 34.8126V34.8283C35.4879 34.9326 35.6872 35.2124 35.8864 35.9008C36.07 36.5336 36.2294 37.062 36.4217 37.6861H35.6802C35.552 37.2306 35.3459 36.4136 35.2333 36.0208C35.0254 35.3324 34.8747 35.1168 33.9878 35.1168H33.0697V37.6878H32.375V31.9705V31.9688ZM33.0697 34.531H34.1714C34.9371 34.531 35.4169 34.2268 35.4169 33.5228C35.4169 32.7145 34.8175 32.5546 34.2199 32.5546H33.0714V34.5328L33.0697 34.531Z" fill="white"/>
<path d="M37.4766 31.9688H40.6051V32.5528H38.1712V34.4511H40.4145V35.0351H38.1712V37.102H40.6692V37.6861H37.4766V31.9688Z" fill="white"/>
<path d="M44.7378 32.7007C44.3394 32.5408 43.908 32.4608 43.4854 32.4608C42.9431 32.4608 42.3368 32.6694 42.3368 33.3334C42.3368 33.8462 42.64 34.1261 43.5252 34.4703C44.6027 34.8875 45.1622 35.3186 45.1622 36.2086C45.1622 37.3368 44.1887 37.7853 43.2463 37.7853C42.7439 37.7853 42.0978 37.674 41.5625 37.4324L41.7375 36.8327C42.2572 37.0882 42.815 37.2012 43.2619 37.2012C43.9479 37.2012 44.4676 36.897 44.4676 36.2555C44.4676 35.6715 43.9652 35.3742 43.1025 35.0231C42.129 34.6302 41.6422 34.1418 41.6422 33.3804C41.6422 32.3235 42.6313 31.875 43.494 31.875C43.9964 31.875 44.5005 31.955 44.9076 32.1149L44.7395 32.699L44.7378 32.7007Z" fill="white"/>
<path d="M48.6542 37.7853C47.0414 37.7853 46.125 36.5528 46.125 34.8388C46.125 33.1248 47.0275 31.875 48.6542 31.875C50.2808 31.875 51.1833 33.1162 51.1833 34.8388C51.1833 36.5615 50.2652 37.7853 48.6542 37.7853ZM48.6542 32.4608C47.4086 32.4608 46.8179 33.5333 46.8179 34.8388C46.8179 36.1443 47.4086 37.2012 48.6542 37.2012C49.8997 37.2012 50.4887 36.1356 50.4887 34.8388C50.4887 33.542 49.898 32.4608 48.6542 32.4608Z" fill="white"/>
<path d="M56.5732 35.9964C56.5732 37.0377 55.7833 37.7817 54.4737 37.7817C53.1641 37.7817 52.3828 37.0377 52.3828 35.9964V31.9688H53.0775V35.9251C53.0775 36.7578 53.5556 37.1993 54.4668 37.1993C55.378 37.1993 55.8786 36.6778 55.8786 35.9251V31.9688H56.5732V35.9964Z" fill="white"/>
<path d="M57.875 31.9688H59.8377C60.8424 31.9688 61.6098 32.4172 61.6098 33.4828C61.6098 34.1312 61.2426 34.6353 60.5566 34.8126V34.8283C60.9879 34.9326 61.1872 35.2124 61.3864 35.9008C61.57 36.5336 61.7294 37.062 61.9217 37.6861H61.1802C61.052 37.2306 60.8459 36.4136 60.7333 36.0208C60.5254 35.3324 60.3747 35.1168 59.4878 35.1168H58.5696V37.6878H57.875V31.9705V31.9688ZM58.5696 34.531H59.6714C60.4371 34.531 60.9169 34.2268 60.9169 33.5228C60.9169 32.7145 60.3175 32.5546 59.7199 32.5546H58.5714V34.5328L58.5696 34.531Z" fill="white"/>
<path d="M66.3647 32.7094C66.0771 32.5408 65.6943 32.4608 65.2872 32.4608C63.8425 32.4608 63.1634 33.5177 63.1634 34.8545C63.1634 36.12 63.8736 37.2012 65.2699 37.2012C65.7567 37.2012 66.1083 37.1056 66.4426 36.9283L66.6419 37.4724C66.2348 37.6966 65.7411 37.7853 65.23 37.7853C63.4977 37.7853 62.4688 36.5684 62.4688 34.8458C62.4688 33.1231 63.4579 31.875 65.2785 31.875C65.7567 31.875 66.2521 31.9637 66.5795 32.1549L66.3647 32.7077V32.7094Z" fill="white"/>
<path d="M67.6953 31.9688H70.8238V32.5528H68.39V34.4511H70.6316V35.0351H68.39V37.102H70.8879V37.6861H67.6953V31.9688Z" fill="white"/>
<path d="M74.8159 32.7007C74.4158 32.5408 73.9862 32.4608 73.5635 32.4608C73.0213 32.4608 72.415 32.6694 72.415 33.3334C72.415 33.8462 72.7181 34.1261 73.6051 34.4703C74.6825 34.8875 75.2403 35.3186 75.2403 36.2086C75.2403 37.3368 74.2668 37.7853 73.3244 37.7853C72.8221 37.7853 72.1759 37.674 71.6406 37.4324L71.8173 36.8327C72.3353 37.0882 72.8948 37.2012 73.3417 37.2012C74.0277 37.2012 74.5474 36.897 74.5474 36.2555C74.5474 35.6715 74.0451 35.3742 73.1824 35.0231C72.2088 34.6302 71.722 34.1418 71.722 33.3804C71.722 32.3235 72.7112 31.875 73.5739 31.875C74.0762 31.875 74.5786 31.955 74.9857 32.1149L74.8177 32.699L74.8159 32.7007Z" fill="white"/>
<path d="M0.421875 41.2031H2.04158C3.80506 41.2031 4.83405 42.3 4.83405 44.0626C4.83405 45.8253 3.7964 46.9222 2.04158 46.9222H0.421875V41.2049V41.2031ZM1.11653 46.3364H1.93764C3.38931 46.3364 4.14113 45.4863 4.14113 44.0626C4.14113 42.639 3.39104 41.7889 1.93764 41.7889H1.11653V46.3381V46.3364Z" fill="white"/>
<path d="M6 41.2031H9.12854V41.7872H6.69465V43.6854H8.93798V44.2695H6.69465V46.3364H9.19263V46.9204H6V41.2031Z" fill="white"/>
<path d="M9.63281 41.2031H10.376L12.1083 46.2877H12.1239L13.8475 41.2031H14.5907L12.5483 46.9204H11.6631L9.63628 41.2031H9.63281Z" fill="white"/>
<path d="M15.3125 41.2031H18.441V41.7872H16.0072V43.6854H18.2488V44.2695H16.0072V46.3364H18.5051V46.9204H15.3125V41.2031Z" fill="white"/>
<path d="M19.625 41.2031H20.3197V46.3364H22.8419V46.9204H19.6267V41.2031H19.625Z" fill="white"/>
<path d="M25.5604 47.0196C23.9476 47.0196 23.0312 45.7872 23.0312 44.0732C23.0312 42.3592 23.9338 41.1094 25.5604 41.1094C27.187 41.1094 28.0896 42.3505 28.0896 44.0732C28.0896 45.7959 27.1715 47.0196 25.5604 47.0196ZM25.5604 41.6952C24.3149 41.6952 23.7242 42.7677 23.7242 44.0732C23.7242 45.3787 24.3149 46.4356 25.5604 46.4356C26.8059 46.4356 27.3949 45.37 27.3949 44.0732C27.3949 42.7764 26.8042 41.6952 25.5604 41.6952Z" fill="white"/>
<path d="M29.0234 41.2031H30.8839C31.8973 41.2031 32.7669 41.5786 32.7669 42.8215C32.7669 44.0644 31.8973 44.5268 30.8909 44.5268H29.7181V46.9222H29.0234V41.2049V41.2031ZM29.7181 43.9427H30.8268C31.4885 43.9427 32.0723 43.7272 32.0723 42.8458C32.0723 41.9645 31.4902 41.7889 30.7557 41.7889H29.7181V43.9427Z" fill="white"/>
<path d="M36.3941 46.2877H36.4097L38.0138 41.2031H39.2039V46.9204H38.5335V41.7316H38.5179L36.8255 46.9204H35.9559L34.3188 41.7316H34.3032V46.9204H33.6484V41.2031H34.8212L36.3941 46.2877Z" fill="white"/>
<path d="M40.3047 41.2031H43.4332V41.7872H40.9993V43.6854H43.2427V44.2695H40.9993V46.3364H43.4973V46.9204H40.3047V41.2031Z" fill="white"/>
<path d="M47.9888 46.1834H48.0044V41.2031H48.6592V46.9204H47.6371L45.1391 41.8984H45.1236V46.9204H44.4688V41.2031H45.5133L47.9871 46.1834H47.9888Z" fill="white"/>
<path d="M50.8573 41.7872H49.1406V41.2031H53.2271V41.7872H51.552V46.9204H50.8573V41.7872Z" fill="white"/>
<path d="M56.3142 41.2031H59.3146V41.7872H57.0071V43.6854H59.1777V44.2695H57.0071V46.9204H56.3125V41.2031H56.3142Z" fill="white"/>
<path d="M64.4092 45.2308C64.4092 46.272 63.6193 47.016 62.3096 47.016C61 47.016 60.2188 46.272 60.2188 45.2308V41.2031H60.9134V45.1595C60.9134 45.9922 61.3915 46.4337 62.3027 46.4337C63.2139 46.4337 63.7163 45.9122 63.7163 45.1595V41.2031H64.4109V45.2308H64.4092Z" fill="white"/>
<path d="M69.1138 46.1834H69.1294V41.2031H69.7842V46.9204H68.7621L66.2641 41.8984H66.2486V46.9204H65.5938V41.2031H66.6383L69.1121 46.1834H69.1138Z" fill="white"/>
<path d="M71.2266 41.2031H72.8463C74.6097 41.2031 75.6405 42.3 75.6405 44.0626C75.6405 45.8253 74.6028 46.9222 72.8463 46.9222H71.2266V41.2049V41.2031ZM71.9212 46.3364H72.7441C74.1957 46.3364 74.9475 45.4863 74.9475 44.0626C74.9475 42.639 74.1975 41.7889 72.7441 41.7889H71.9212V46.3381V46.3364Z" fill="white"/>
</g>
<defs>
<clipPath id="clip0_764_677210">
<rect width="105" height="48" fill="white"/>
</clipPath>
</defs>
</svg>
