<svg width="74" height="74" viewBox="0 0 74 74" fill="none" xmlns="http://www.w3.org/2000/svg">
<path d="M43.109 42.5116L42.2279 38.0673C42.0363 37.0903 41.4999 36.1899 40.7337 35.5577C40.2356 35.1555 39.7375 34.8875 39.2586 34.7917L35.4658 33.6996C35.4658 33.6996 35.3128 33.6421 35.2361 33.5846C35.0446 33.4505 34.9106 33.2401 34.8723 32.9911L34.6997 31.4969C35.7533 30.6732 36.5577 29.447 36.9216 27.9912C37.5921 27.9337 38.1095 27.1868 38.1095 26.229C38.1095 25.3478 37.6689 24.6387 37.0559 24.4855" stroke="#005187" stroke-width="1.75" stroke-miterlimit="10" stroke-linecap="round"/>
<path d="M26.3428 24.4855C25.749 24.6579 25.3275 25.3478 25.3275 26.2098C25.3275 27.1676 25.8449 27.9145 26.5154 27.972C26.8985 29.4087 27.6837 30.6348 28.7373 31.4777L28.5652 32.9719C28.546 33.2018 28.4116 33.4313 28.2009 33.5654C28.1242 33.6229 28.0479 33.6422 27.9712 33.6805L24.1976 34.7725C23.6995 34.8874 23.2014 35.1363 22.7225 35.5386C21.9563 36.1707 21.4198 37.0712 21.2283 38.0481L20.3472 42.4924" stroke="#005187" stroke-width="1.75" stroke-miterlimit="10" stroke-linecap="round"/>
<path d="M37.0443 24.4676C37.0443 24.4676 37.3508 18.1848 31.6997 18.1848C26.0487 18.1848 26.3359 24.4868 26.3359 24.4868" stroke="#005187" stroke-width="1.75" stroke-miterlimit="10" stroke-linecap="round"/>
<path d="M26.7529 21.7837C26.9636 21.324 27.4039 20.9791 27.8828 20.8067C28.6491 20.5194 29.5111 20.7495 30.2582 21.0943C31.3309 21.5924 32.2699 22.1668 33.4575 22.2818C34.6069 22.4159 35.6412 22.2817 36.6756 21.7645" stroke="#005187" stroke-width="1.75" stroke-miterlimit="10" stroke-linecap="round"/>
<path d="M28.2192 33.5621L31.7249 37.1829" stroke="#005187" stroke-width="1.75" stroke-miterlimit="10" stroke-linecap="round"/>
<path d="M35.2077 33.5621L31.7212 37.1829" stroke="#005187" stroke-width="1.75" stroke-miterlimit="10" stroke-linecap="round"/>
<path d="M31.7212 37.1838V39.5783" stroke="#005187" stroke-width="1.75" stroke-miterlimit="10" stroke-linecap="round"/>
<path d="M31.7251 52.9497C43.4473 52.9497 52.9501 43.4468 52.9501 31.7246C52.9501 20.0024 43.4473 10.5 31.7251 10.5C20.0029 10.5 10.5 20.0024 10.5 31.7246C10.5 43.4468 20.0029 52.9497 31.7251 52.9497Z" stroke="#00AC65" stroke-width="3" stroke-miterlimit="10" stroke-linecap="round"/>
<path d="M32.2749 56.5914C45.7033 56.5914 56.5838 45.7109 56.5838 32.2825" stroke="#005187" stroke-width="3" stroke-miterlimit="10" stroke-linecap="round"/>
<path d="M51.3409 47.3754L62.6812 58.7156C63.7731 59.8075 63.7731 61.5891 62.6812 62.681C61.5893 63.7729 59.8081 63.7729 58.7162 62.681L47.3755 51.3403" stroke="#005187" stroke-width="3" stroke-miterlimit="10" stroke-linecap="round"/>
</svg>
