<svg width="75" height="74" viewBox="0 0 75 74" fill="none" xmlns="http://www.w3.org/2000/svg">
<path d="M51.547 65.7632H22.1006C19.1539 65.7632 16.7334 63.3243 16.7334 60.3079V22.7629C16.7334 18.3987 20.2274 14.8474 24.5212 14.8474H33.6561C33.8455 14.8474 33.9929 14.9972 33.9929 15.1897C33.9929 15.3822 33.8455 15.532 33.6561 15.532H24.5212C20.6063 15.532 17.407 18.7624 17.407 22.7629V60.3079C17.407 62.9393 19.5118 65.0572 22.0796 65.0572H51.5259C54.1148 65.0572 56.1986 62.9179 56.1986 60.3079V22.6559C56.1986 18.741 53.0624 15.5534 49.2106 15.5534H39.9705C39.7811 15.5534 39.6338 15.4036 39.6338 15.2111C39.6338 15.0186 39.7811 14.8688 39.9705 14.8688H49.2106C53.4413 14.8688 56.8722 18.3559 56.8722 22.6559V60.3079C56.8722 63.3029 54.4726 65.7632 51.5049 65.7632" fill="#005187"/>
<path d="M51.5486 66.0411H22.1022C19.0082 66.0411 16.4824 63.4739 16.4824 60.3291V22.8055C16.4824 18.2915 20.1027 14.6333 24.5228 14.6333H33.6366C33.9734 14.6333 34.247 14.9114 34.247 15.2537C34.247 15.596 33.9734 15.8741 33.6366 15.8741H24.5228C20.7552 15.8741 17.6822 18.9975 17.6822 22.8269V60.3505C17.6822 62.8321 19.6607 64.8431 22.1022 64.8431H51.5486C53.9902 64.8431 55.9686 62.8321 55.9686 60.3505V22.6985C55.9686 18.9333 52.9588 15.8741 49.2544 15.8741H40.0142C39.6774 15.8741 39.4038 15.596 39.4038 15.2537C39.4038 14.9114 39.6774 14.6333 40.0142 14.6333H49.2544C53.6324 14.6333 57.1895 18.2488 57.1895 22.6985V60.3505C57.1895 63.4953 54.6637 66.0625 51.5696 66.0625M24.5438 15.1681C20.3973 15.1681 17.0296 18.5911 17.0296 22.8055V60.3291C17.0296 63.1958 19.3239 65.5063 22.1233 65.5063H51.5696C54.39 65.5063 56.6633 63.1744 56.6633 60.3291V22.6772C56.6633 18.5269 53.3377 15.1467 49.2544 15.1467H40.0142C40.0142 15.1467 39.93 15.1895 39.93 15.2323C39.93 15.2751 39.9721 15.3179 40.0142 15.3179H49.2544C53.2535 15.3179 56.4948 18.6125 56.4948 22.6772V60.3291C56.4948 63.1102 54.2848 65.3565 51.5486 65.3565H22.1022C19.387 65.3565 17.156 63.1102 17.156 60.3291V22.8055C17.156 18.6766 20.4605 15.3179 24.5228 15.3179H33.6366C33.6366 15.3179 33.7208 15.2751 33.7208 15.2323C33.7208 15.1895 33.6787 15.1467 33.6366 15.1467H24.5228L24.5438 15.1681Z" fill="#005187"/>
<path d="M51.5486 66.0411H22.1022C19.0082 66.0411 16.4824 63.4739 16.4824 60.3291V22.8055C16.4824 18.2915 20.1027 14.6333 24.5228 14.6333H33.6366C33.9734 14.6333 34.247 14.9114 34.247 15.2537C34.247 15.596 33.9734 15.8741 33.6366 15.8741H24.5228C20.7552 15.8741 17.6822 18.9975 17.6822 22.8269V60.3505C17.6822 62.8321 19.6607 64.8431 22.1022 64.8431H51.5486C53.9902 64.8431 55.9686 62.8321 55.9686 60.3505V22.6985C55.9686 18.9333 52.9588 15.8741 49.2544 15.8741H40.0142C39.6774 15.8741 39.4038 15.596 39.4038 15.2537C39.4038 14.9114 39.6774 14.6333 40.0142 14.6333H49.2544C53.6324 14.6333 57.1895 18.2488 57.1895 22.6985V60.3505C57.1895 63.4953 54.6637 66.0625 51.5696 66.0625M24.5438 15.1681C20.3973 15.1681 17.0296 18.5911 17.0296 22.8055V60.3291C17.0296 63.1958 19.3239 65.5063 22.1233 65.5063H51.5696C54.39 65.5063 56.6633 63.1744 56.6633 60.3291V22.6772C56.6633 18.5269 53.3377 15.1467 49.2544 15.1467H40.0142C40.0142 15.1467 39.93 15.1895 39.93 15.2323C39.93 15.2751 39.9721 15.3179 40.0142 15.3179H49.2544C53.2535 15.3179 56.4948 18.6125 56.4948 22.6772V60.3291C56.4948 63.1102 54.2848 65.3565 51.5486 65.3565H22.1022C19.387 65.3565 17.156 63.1102 17.156 60.3291V22.8055C17.156 18.6766 20.4605 15.3179 24.5228 15.3179H33.6366C33.6366 15.3179 33.7208 15.2751 33.7208 15.2323C33.7208 15.1895 33.6787 15.1467 33.6366 15.1467H24.5228L24.5438 15.1681Z" stroke="#005187"/>
<path d="M41.7189 61.0996H31.9105C31.7211 61.0996 31.5737 60.9498 31.5737 60.7573C31.5737 60.5648 31.7211 60.415 31.9105 60.415H41.7189C41.9084 60.415 42.0557 60.5648 42.0557 60.7573C42.0557 60.9498 41.9084 61.0996 41.7189 61.0996Z" fill="#00AC65"/>
<path d="M41.7172 61.356H31.9088C31.572 61.356 31.2983 61.0779 31.2983 60.7356C31.2983 60.3933 31.572 60.1152 31.9088 60.1152H41.7172C42.054 60.1152 42.3276 60.3933 42.3276 60.7356C42.3276 61.0779 42.054 61.356 41.7172 61.356ZM31.9088 60.6714C31.9088 60.6714 31.8245 60.7142 31.8245 60.757C31.8245 60.7998 31.8667 60.8426 31.9088 60.8426H41.7172C41.7172 60.8426 41.8014 60.7998 41.8014 60.757C41.8014 60.7142 41.7593 60.6714 41.7172 60.6714H31.9088Z" fill="#00AC65"/>
<path d="M38.2887 20.5165H35.342C34.2054 20.5165 33.3003 19.5752 33.3003 18.4413V10.3119C33.3003 9.15669 34.2264 8.23682 35.342 8.23682H38.2887C39.4253 8.23682 40.3304 9.17809 40.3304 10.3119V18.4413C40.3304 19.5966 39.4042 20.5165 38.2887 20.5165ZM35.342 8.92138C34.5842 8.92138 33.9738 9.54177 33.9738 10.3119V18.4413C33.9738 19.2115 34.5842 19.8319 35.342 19.8319H38.2887C39.0464 19.8319 39.6568 19.2115 39.6568 18.4413V10.3119C39.6568 9.54177 39.0464 8.92138 38.2887 8.92138H35.342Z" fill="#005187"/>
<path d="M35.3402 21.0234H38.2869C39.7128 21.0234 40.8522 19.8593 40.8522 18.4201V10.2907C40.8522 8.85152 39.7128 7.6875 38.2869 7.6875H35.3402C33.9144 7.6875 32.7749 8.85152 32.7749 10.2907V18.4201C32.7749 19.8593 33.9144 21.0234 35.3402 21.0234ZM34.4957 10.2907C34.4957 9.80454 34.8717 9.42827 35.3402 9.42827H38.2869C38.7554 9.42827 39.1315 9.80456 39.1315 10.2907V18.4201C39.1315 18.8881 38.7524 19.2826 38.2869 19.2826H35.3402C34.8717 19.2826 34.4957 18.9063 34.4957 18.4201V10.2907Z" fill="#005187" stroke="#005187" stroke-width="0.5"/>
<path d="M44.204 44.4769C44.204 44.4769 44.1619 44.4769 44.1409 44.4769C43.9514 44.4341 43.8251 44.263 43.8672 44.0705C43.8672 44.0063 45.1302 37.0107 42.2466 34.2938C41.0679 33.1813 39.2998 32.946 37.0056 33.5878C36.9425 33.5878 36.8793 33.5878 36.8162 33.5878C34.5219 32.946 32.7538 33.1813 31.5751 34.2938C28.7126 36.9893 29.9966 43.9421 30.0176 44.0063C30.0597 44.1988 29.9334 44.3699 29.744 44.4127C29.5545 44.4555 29.3862 44.3272 29.3441 44.1346C29.3441 44.0705 28.9862 42.2734 29.0283 40.1127C29.0704 37.1605 29.7861 35.0211 31.1121 33.7803C32.4592 32.5181 34.4166 32.2186 36.9003 32.8818C39.384 32.1972 41.3415 32.5181 42.6886 33.7803C44.0356 35.0425 44.7513 37.1819 44.8144 40.1555C44.8565 42.3376 44.5408 44.1132 44.5198 44.1988C44.4987 44.37 44.3514 44.4769 44.183 44.4769" fill="#00AC65"/>
<path d="M44.2011 44.7334H44.0959C43.9486 44.6906 43.8013 44.605 43.7171 44.4766C43.6329 44.3483 43.5907 44.1771 43.6118 44.0274C43.6118 43.9632 44.8537 37.1174 42.0753 34.5074C40.9598 33.4592 39.2759 33.2452 37.0869 33.8442C36.9816 33.8656 36.8764 33.8656 36.7712 33.8442C34.5822 33.2238 32.8983 33.4591 31.7828 34.486C29.0886 37.0318 30.2463 43.6637 30.2884 43.9418C30.3094 44.0915 30.2884 44.2627 30.2042 44.4124C30.12 44.5408 29.9726 44.6478 29.8253 44.6692C29.4885 44.7334 29.1728 44.5194 29.1097 44.1771C29.1097 44.0915 28.7519 42.2945 28.794 40.1124C28.8571 37.0746 29.5727 34.8925 30.9619 33.5875C32.3721 32.2611 34.3717 31.9402 36.9396 32.6034C39.4864 31.9402 41.507 32.2611 42.9172 33.5875C44.3064 34.8925 45.0641 37.096 45.1273 40.1338C45.1694 42.4015 44.8326 44.2199 44.8326 44.2199C44.7695 44.5194 44.538 44.7119 44.2433 44.7119M39.318 32.9457C40.602 32.9457 41.6543 33.3308 42.4542 34.0795C45.4641 36.9034 44.1801 44.0274 44.1591 44.0916V44.4339L44.2222 44.1771C44.2222 44.1771 44.2854 44.1557 44.3064 44.1129C44.3064 44.1129 44.6432 42.2945 44.6011 40.1338C44.5379 37.2457 43.8433 35.1706 42.5594 33.9512C41.2755 32.7532 39.4022 32.4751 37.0237 33.1168H36.9606H36.8974C34.4769 32.4751 32.6247 32.7532 31.3618 33.9512C30.0779 35.1492 29.4043 37.2244 29.3622 40.091C29.3202 42.2304 29.6569 43.9846 29.6569 44.0488C29.6569 44.0915 29.72 44.1129 29.7411 44.1129L29.8042 44.006C29.678 43.2572 28.5834 36.7537 31.446 34.0582C32.6878 32.8815 34.5401 32.6248 36.9396 33.288C37.8026 33.0527 38.6023 32.9243 39.339 32.9243" fill="#00AC65"/>
<path d="M44.2003 44.4767C44.2003 44.4767 44.1582 44.4767 44.1372 44.4767C43.9478 44.4553 43.8215 44.2628 43.8636 44.0703C43.8636 44.0489 44.2635 41.6956 44.2003 38.8075C44.1372 36.1548 43.6952 32.5179 41.864 30.1005C40.6853 28.5602 39.0646 27.6831 37.0229 27.5333C36.9598 27.5333 36.8967 27.5333 36.8125 27.5333C34.9813 27.6189 33.4658 28.3463 32.3292 29.7154C28.8352 33.9085 29.8456 42.7439 29.8456 42.8295C29.8666 43.022 29.7403 43.1931 29.5509 43.2145C29.3614 43.2359 29.1931 43.1075 29.172 42.915C29.172 42.8294 28.8984 40.6045 29.0878 37.802C29.3404 34.0155 30.2455 31.1488 31.803 29.2662C33.0659 27.7472 34.7497 26.9343 36.7703 26.8488C36.8545 26.8488 36.9598 26.8488 37.0651 26.8488C39.2962 27.0413 41.0852 27.9826 42.3902 29.694C43.9478 31.7478 44.7897 34.807 44.8739 38.8075C44.937 41.7598 44.5371 44.0916 44.5371 44.1986C44.5161 44.3698 44.3687 44.4767 44.2003 44.4767Z" fill="#00AC65"/>
<path d="M44.2014 44.7337H44.0962C43.9488 44.6909 43.8015 44.6053 43.7173 44.477C43.6331 44.3486 43.591 44.1775 43.612 44.0277C43.612 44.0063 43.9909 41.6745 43.9488 38.8292C43.9067 36.2192 43.4647 32.6252 41.6756 30.2933C40.539 28.8172 38.9814 27.9829 37.024 27.8117C36.9819 27.8117 36.9187 27.8117 36.8556 27.8117C35.0876 27.8973 33.6563 28.6032 32.5618 29.9082C29.173 33.9729 30.1412 42.7441 30.1412 42.8297C30.1833 43.172 29.9518 43.4715 29.615 43.5143C29.4677 43.5143 29.2993 43.4929 29.173 43.3859C29.0468 43.279 28.9625 43.1506 28.9415 42.9795C28.9415 42.9795 28.6679 40.6904 28.8573 37.8023C29.1099 33.9515 30.057 31.0207 31.6356 29.1167C32.9406 27.5336 34.6876 26.6993 36.7925 26.5923C36.8977 26.5923 37.0029 26.5923 37.1082 26.5923C39.4235 26.7848 41.2757 27.7689 42.6228 29.5446C44.2224 31.6411 45.0854 34.7645 45.1696 38.8292C45.2328 41.8242 44.8328 44.1561 44.8118 44.2631C44.7697 44.5626 44.5171 44.7765 44.2224 44.7765M36.9819 27.2983C36.9819 27.2983 37.045 27.2983 37.0871 27.2983C39.1919 27.4694 40.8758 28.3679 42.1176 29.9724C43.9909 32.4326 44.454 36.155 44.5171 38.8292C44.5803 41.7814 44.1804 44.1133 44.1804 44.1561L44.2435 44.2416C44.2435 44.2416 44.3066 44.2203 44.3277 44.1775C44.3277 44.0919 44.7276 41.7815 44.6644 38.8506C44.5802 34.9143 43.7594 31.8978 42.2439 29.8869C41.0021 28.2396 39.2761 27.3197 37.1082 27.1485C37.024 27.1485 36.9398 27.1485 36.8556 27.1485C34.8981 27.2341 33.2774 28.0256 32.0777 29.4804C30.5622 31.2988 29.6571 34.1227 29.4256 37.8665C29.2362 40.6904 29.5098 42.9153 29.5098 42.9367C29.5098 42.9794 29.5729 43.0009 29.594 43.0009C29.6361 43.0009 29.6571 42.9581 29.6571 42.9153C29.615 42.5516 28.6468 33.8446 32.1829 29.5873C33.3616 28.154 34.9402 27.4053 36.8556 27.3197C36.8977 27.3197 36.9609 27.3197 37.0029 27.3197" fill="#00AC65"/>
<path d="M37.4651 30.1861C34.9814 30.1861 32.5398 29.8438 31.2348 29.6085C31.0454 29.5871 30.9191 29.3946 30.9612 29.202C30.9823 29.0095 31.1717 28.8812 31.3612 28.9239C33.0661 29.2021 38.8964 30.0578 42.2009 28.817C42.3693 28.7528 42.5798 28.8383 42.6429 29.0309C42.7061 29.202 42.6219 29.416 42.4324 29.4802C41.0432 29.9936 39.2541 30.1861 37.4861 30.1861" fill="#00AC65"/>
<path d="M37.4684 30.4646C34.9426 30.4646 32.4589 30.1009 31.196 29.887C31.0487 29.8656 30.9014 29.78 30.7961 29.6303C30.7119 29.5019 30.6699 29.3308 30.6909 29.181C30.712 29.0099 30.7961 28.8815 30.9435 28.7745C31.0698 28.6676 31.2381 28.6462 31.3855 28.6676C33.0693 28.9457 38.8576 29.8014 42.078 28.582C42.2253 28.5178 42.3937 28.5392 42.541 28.582C42.6883 28.6462 42.7936 28.7746 42.8567 28.9243C42.9199 29.0741 42.8988 29.2452 42.8567 29.395C42.7936 29.5447 42.6673 29.6517 42.5199 29.7158C41.2571 30.1865 39.5521 30.4218 37.4894 30.4218M31.3223 29.1596L31.2381 29.2238C31.2381 29.2238 31.2592 29.3094 31.3013 29.3094C32.5431 29.5233 35.0057 29.8656 37.4894 29.8656C39.51 29.8656 41.1307 29.6303 42.3515 29.181L42.3937 29.074L42.2042 28.7745L42.2884 29.0312C38.9207 30.2934 33.0483 29.4377 31.3223 29.1382" fill="#00AC65"/>
<path d="M36.9613 42.5727C33.8252 42.5727 31.2573 39.214 31.2573 35.0851V34.8926C31.2573 34.5503 31.2573 34.1438 31.2784 33.8443C31.2784 33.6518 31.4678 33.5234 31.6572 33.5448C31.8467 33.5448 31.973 33.7374 31.9519 33.9299C31.9309 34.1866 31.9309 34.5717 31.9309 34.8926V35.0851C31.9309 38.8289 34.183 41.8882 36.9613 41.8882C39.7397 41.8882 41.9919 38.8289 41.9919 35.0851C41.9919 34.6359 41.9919 34.4006 41.9287 33.9727C41.9077 33.7802 42.0339 33.609 42.2234 33.5876C42.4128 33.5662 42.5812 33.6946 42.6023 33.8871C42.6654 34.3578 42.6864 34.6145 42.6864 35.0851C42.6864 39.214 40.1186 42.5727 36.9824 42.5727" fill="#00AC65"/>
<path d="M36.9629 42.8296C33.6794 42.8296 31.0063 39.3425 31.0063 35.0638V34.8713C31.0063 34.5504 31.0064 34.1012 31.0274 33.8017C31.0274 33.6305 31.1326 33.4807 31.2589 33.3952C31.3852 33.2882 31.5325 33.2454 31.7009 33.2668C31.8693 33.2668 31.9956 33.3524 32.1008 33.4807C32.2061 33.6091 32.2482 33.7803 32.2271 33.93C32.2061 34.1439 32.2061 34.5076 32.2061 34.8071V35.0638C32.2061 38.6579 34.353 41.5888 36.9629 41.5888C39.5729 41.5888 41.7198 38.6579 41.7198 35.0638C41.7198 34.6146 41.7198 34.4007 41.6567 33.9942C41.6146 33.6519 41.8461 33.3524 42.1618 33.2882C42.5196 33.224 42.7933 33.4594 42.8564 33.8017C42.9196 34.3151 42.9407 34.5718 42.9407 35.0425C42.9407 39.3211 40.2675 42.8082 36.984 42.8082M31.6588 33.7802L31.3221 33.823H31.5746C31.5536 34.1225 31.5536 34.5504 31.5536 34.8713V35.0638C31.5536 39.043 33.9952 42.2947 36.984 42.2947C39.9728 42.2947 42.4145 39.0644 42.4145 35.0638C42.4145 34.6146 42.4144 34.3579 42.3512 33.8872C42.3512 33.8444 42.3092 33.823 42.2671 33.823C42.225 33.823 42.204 33.8658 42.204 33.9086C42.2671 34.3579 42.2671 34.5932 42.2671 35.0425C42.2671 38.936 39.8886 42.1022 36.984 42.1022C34.0794 42.1022 31.7009 38.936 31.7009 35.0425V34.7857C31.7009 34.4648 31.7009 34.1012 31.722 33.8658L31.6588 33.7802Z" fill="#00AC65"/>
<path d="M48.0529 55.6867C47.8634 55.6867 47.7161 55.5369 47.7161 55.3444V48.5414C47.7161 46.9583 46.7479 45.525 45.2956 44.9687L40.7281 43.1931C40.6229 43.1503 40.5387 43.0647 40.5176 42.9364L40.0545 40.6473C40.0124 40.4548 40.1388 40.2836 40.3072 40.2408C40.4966 40.1981 40.6649 40.3264 40.707 40.4975L41.1491 42.5941L45.5481 44.3056C47.2741 44.9687 48.4106 46.6588 48.4106 48.5414V55.3444C48.4106 55.5369 48.2633 55.6867 48.0739 55.6867" fill="#00AC65"/>
<path d="M48.0555 55.9436C47.7187 55.9436 47.4451 55.6655 47.4451 55.3232V48.5202C47.4451 47.044 46.54 45.7177 45.1929 45.1828L40.6255 43.4072C40.4361 43.3216 40.2887 43.1719 40.2466 42.958L39.7836 40.6689C39.7415 40.5191 39.7836 40.348 39.8678 40.2196C39.952 40.0913 40.0993 39.9843 40.2466 39.9629C40.5834 39.8773 40.8992 40.1127 40.9623 40.4336L41.3622 42.4017L45.635 44.049C47.4451 44.755 48.6659 46.552 48.6659 48.5202V55.3232C48.6659 55.6655 48.3923 55.9436 48.0555 55.9436ZM40.373 40.4977L40.3098 40.5833L40.7728 42.8724C40.7728 42.8724 40.7939 42.9152 40.8149 42.9366L45.3824 44.7122C46.9399 45.3112 47.9713 46.8515 47.9713 48.5416V55.3446C47.9713 55.3446 48.1186 55.4302 48.1186 55.3446V48.5416C48.1186 46.7873 47.0452 45.1829 45.4245 44.5625L40.8992 42.8082L40.4361 40.5619C40.4361 40.5619 40.394 40.4977 40.3519 40.4977" fill="#00AC65"/>
<path d="M25.5755 55.6867C25.3861 55.6867 25.2388 55.537 25.2388 55.3444V48.5414C25.2388 46.6802 26.3964 44.9688 28.1013 44.3056L32.5214 42.5941L33.216 40.4548C33.2791 40.2837 33.4686 40.1767 33.658 40.2409C33.8264 40.3051 33.9316 40.4976 33.8684 40.6687L33.1107 42.9578C33.1107 42.9578 33.0055 43.1289 32.9002 43.1717L28.3328 44.9474C26.8805 45.5036 25.9123 46.9369 25.9123 48.52V55.3231C25.9123 55.5156 25.765 55.6654 25.5755 55.6654" fill="#00AC65"/>
<path d="M25.5738 55.9436C25.237 55.9436 24.9634 55.6655 24.9634 55.3232V48.5202C24.9634 46.552 26.1842 44.755 27.9943 44.049L32.3092 42.3804L32.9616 40.3694C33.0669 40.0485 33.4037 39.8774 33.7194 39.9844C33.8667 40.0271 33.993 40.1341 34.0772 40.2839C34.1614 40.4336 34.1614 40.6048 34.0983 40.7545L33.3405 43.0436C33.2773 43.2147 33.1511 43.3645 32.9827 43.4287L28.4152 45.2043C27.0682 45.7177 26.1631 47.0655 26.1631 48.5416V55.3446C26.1631 55.6869 25.8895 55.9651 25.5527 55.9651M33.53 40.5192C33.53 40.5192 33.4668 40.5406 33.4458 40.562L32.7091 42.8082L28.1837 44.5625C26.563 45.1829 25.4896 46.7874 25.4896 48.5416V55.3446C25.4896 55.3446 25.6369 55.4302 25.6369 55.3446V48.5416C25.6369 46.8516 26.6893 45.3112 28.2258 44.7122L32.7933 42.9366C32.7933 42.9366 32.8354 42.9152 32.8354 42.8938L33.5931 40.6047L33.6352 40.2411L33.551 40.4978C33.551 40.4978 33.551 40.4978 33.53 40.4978" fill="#00AC65"/>
<path d="M36.7501 45.3754C35.1083 45.3754 33.6139 44.5625 32.5194 43.0864C32.4141 42.9366 32.4352 42.7227 32.5825 42.5943C32.7299 42.4874 32.9404 42.5087 33.0667 42.6585C34.0349 43.9635 35.3398 44.6908 36.7711 44.6908C38.2655 44.6908 39.6547 43.9635 40.5808 42.6799C40.686 42.5301 40.8965 42.4874 41.0649 42.5943C41.2123 42.7013 41.2544 42.9152 41.1491 43.0864C40.0967 44.5411 38.4971 45.3754 36.7922 45.3754" fill="#00AC65"/>
<path d="M36.753 45.6533C35.0271 45.6533 33.4484 44.7976 32.3118 43.2572C32.1013 42.9791 32.1645 42.594 32.4381 42.4015C32.7117 42.1876 33.0906 42.2518 33.28 42.5299C34.1851 43.7707 35.4269 44.4339 36.774 44.4339C38.1842 44.4339 39.5103 43.7493 40.3733 42.5299C40.5627 42.2518 40.9416 42.1876 41.2152 42.4015C41.3415 42.4871 41.4256 42.6368 41.4467 42.808C41.4677 42.9791 41.4467 43.1289 41.3415 43.2572C40.247 44.7762 38.5631 45.6533 36.774 45.6533M32.7959 42.808H32.7538C32.7117 42.8294 32.7117 42.8936 32.7538 42.9149C33.8062 44.3269 35.2375 45.0971 36.774 45.0971C38.4158 45.0971 39.9102 44.3055 40.9205 42.9149V42.808C40.9205 42.808 40.8152 42.808 40.7942 42.808C39.826 44.1557 38.3526 44.9259 36.774 44.9259C35.1954 44.9259 33.8904 44.1771 32.8591 42.808C32.8591 42.7866 32.817 42.7652 32.7959 42.7652" fill="#00AC65"/>
<path d="M42.9198 56.0294C42.7304 56.0294 42.583 55.8796 42.583 55.6871V49.4617C42.583 49.2691 42.7304 49.1194 42.9198 49.1194C43.1092 49.1194 43.2566 49.2691 43.2566 49.4617V55.6871C43.2566 55.8796 43.1092 56.0294 42.9198 56.0294Z" fill="#00AC65"/>
<path d="M42.918 56.3071C42.5813 56.3071 42.3076 56.029 42.3076 55.6867V49.4613C42.3076 49.119 42.5813 48.8409 42.918 48.8409C43.2548 48.8409 43.5284 49.119 43.5284 49.4613V55.6867C43.5284 56.029 43.2548 56.3071 42.918 56.3071ZM42.918 49.3972C42.918 49.3972 42.8338 49.44 42.8338 49.4827V55.7081C42.8338 55.7081 42.9812 55.7937 42.9812 55.7081V49.4827C42.9812 49.4827 42.9391 49.3972 42.897 49.3972" fill="#00AC65"/>
<path d="M30.2045 56.0294C30.015 56.0294 29.8677 55.8796 29.8677 55.6871V49.4617C29.8677 49.2691 30.015 49.1194 30.2045 49.1194C30.3939 49.1194 30.5412 49.2691 30.5412 49.4617V55.6871C30.5412 55.8796 30.3939 56.0294 30.2045 56.0294Z" fill="#00AC65"/>
<path d="M30.2066 56.3071C29.8698 56.3071 29.5962 56.029 29.5962 55.6867V49.4613C29.5962 49.119 29.8698 48.8409 30.2066 48.8409C30.5434 48.8409 30.817 49.119 30.817 49.4613V55.6867C30.817 56.029 30.5434 56.3071 30.2066 56.3071ZM30.2066 49.3972C30.2066 49.3972 30.1224 49.44 30.1224 49.4827V55.7081C30.1224 55.7081 30.2697 55.7937 30.2697 55.7081V49.4827C30.2697 49.4827 30.2276 49.3972 30.1855 49.3972" fill="#00AC65"/>
</svg>
