<svg width="28" height="28" viewBox="0 0 28 28" fill="none" xmlns="http://www.w3.org/2000/svg">
<path d="M22.3571 5.53571C24.6071 7.78571 26 10.7321 26 13.9464C26 20.4821 20.5357 25.8393 13.9464 25.8393C11.9643 25.8393 10.0357 25.3036 8.26786 24.3929L2 26L3.66071 19.8393C2.64286 18.0714 2.05357 16.0357 2.05357 13.8929C2.05357 7.35714 7.41071 2 13.9464 2C17.1607 2 20.1607 3.28571 22.3571 5.53571ZM13.9464 23.8036C19.4107 23.8036 23.9643 19.3571 23.9643 13.9464C23.9643 11.2679 22.8393 8.80357 20.9643 6.92857C19.0893 5.05357 16.625 4.03571 14 4.03571C8.53571 4.03571 4.08929 8.48214 4.08929 13.8929C4.08929 15.7679 4.625 17.5893 5.58929 19.1964L5.85714 19.5714L4.83929 23.2143L8.58929 22.1964L8.91071 22.4107C10.4643 23.3214 12.1786 23.8036 13.9464 23.8036ZM19.4107 16.4107C19.6786 16.5714 19.8929 16.625 19.9464 16.7857C20.0536 16.8929 20.0536 17.4821 19.7857 18.1786C19.5179 18.875 18.3393 19.5179 17.8036 19.5714C16.8393 19.7321 16.0893 19.6786 14.2143 18.8214C11.2143 17.5357 9.28571 14.5357 9.125 14.375C8.96429 14.1607 7.94643 12.7679 7.94643 11.2679C7.94643 9.82143 8.69643 9.125 8.96429 8.80357C9.23214 8.48214 9.55357 8.42857 9.76786 8.42857C9.92857 8.42857 10.1429 8.42857 10.3036 8.42857C10.5179 8.42857 10.7321 8.375 11 8.96429C11.2143 9.55357 11.8571 11 11.9107 11.1607C11.9643 11.3214 12.0179 11.4821 11.9107 11.6964C11.375 12.8214 10.7321 12.7679 11.0536 13.3036C12.2321 15.2857 13.3571 15.9821 15.125 16.8393C15.3929 17 15.5536 16.9464 15.7679 16.7857C15.9286 16.5714 16.5179 15.875 16.6786 15.6071C16.8929 15.2857 17.1071 15.3393 17.375 15.4464C17.6429 15.5536 19.0893 16.25 19.4107 16.4107Z" fill="white"/>
</svg>
