<svg width="29" height="28" viewBox="0 0 29 28" fill="none" xmlns="http://www.w3.org/2000/svg">
<path d="M25.911 8.25064C26.4375 10.0934 26.4375 14.0422 26.4375 14.0422C26.4375 14.0422 26.4375 17.9472 25.911 19.8338C25.6477 20.8868 24.8141 21.6766 23.805 21.9398C21.9183 22.4225 14.4594 22.4225 14.4594 22.4225C14.4594 22.4225 6.9567 22.4225 5.07004 21.9398C4.0609 21.6766 3.22726 20.8868 2.96401 19.8338C2.4375 17.9472 2.4375 14.0422 2.4375 14.0422C2.4375 14.0422 2.4375 10.0934 2.96401 8.25064C3.22726 7.19762 4.0609 6.36398 5.07004 6.10073C6.9567 5.57422 14.4594 5.57422 14.4594 5.57422C14.4594 5.57422 21.9183 5.57422 23.805 6.10073C24.8141 6.36398 25.6477 7.19762 25.911 8.25064ZM12.0024 17.5962L18.2327 14.0422L12.0024 10.4883V17.5962Z" fill="white"/>
</svg>
