<svg width="29" height="28" viewBox="0 0 29 28" fill="none" xmlns="http://www.w3.org/2000/svg">
<path d="M23.9249 9.09148C23.9249 9.32631 23.9249 9.51418 23.9249 9.74901C23.9249 16.2774 18.9934 23.7451 9.92883 23.7451C7.11083 23.7451 4.52766 22.9467 2.36719 21.5377C2.74292 21.5846 3.11866 21.6316 3.54136 21.6316C5.84273 21.6316 7.95623 20.8332 9.64703 19.5181C7.48656 19.4711 5.65486 18.0621 5.04429 16.0895C5.37306 16.1365 5.65486 16.1835 5.98363 16.1835C6.40633 16.1835 6.87599 16.0895 7.25173 15.9956C4.99732 15.5259 3.30652 13.5533 3.30652 11.158V11.111C3.96406 11.4868 4.76249 11.6746 5.56093 11.7216C4.19889 10.8292 3.35349 9.32631 3.35349 7.63551C3.35349 6.69618 3.58832 5.85078 4.01102 5.14627C6.45329 8.10518 10.1167 10.0778 14.2028 10.3126C14.1089 9.93688 14.0619 9.56115 14.0619 9.18541C14.0619 6.46134 16.2693 4.25391 18.9934 4.25391C20.4024 4.25391 21.6705 4.81751 22.6098 5.80381C23.6901 5.56897 24.7703 5.14627 25.7097 4.58267C25.3339 5.75684 24.5825 6.69618 23.5492 7.30674C24.5355 7.21281 25.5218 6.93101 26.3672 6.55528C25.7097 7.54158 24.8643 8.38698 23.9249 9.09148Z" fill="white"/>
</svg>
