<svg width="29" height="28" viewBox="0 0 29 28" fill="none" xmlns="http://www.w3.org/2000/svg">
<path d="M24.6451 2C25.5558 2 26.3594 2.80357 26.3594 3.76786V24.2857C26.3594 25.25 25.5558 26 24.6451 26H4.02009C3.10938 26 2.35938 25.25 2.35938 24.2857V3.76786C2.35938 2.80357 3.10938 2 4.02009 2H24.6451ZM9.59152 22.5714V11.1607H6.0558V22.5714H9.59152ZM7.82366 9.55357C8.94866 9.55357 9.85938 8.64286 9.85938 7.51786C9.85938 6.39286 8.94866 5.42857 7.82366 5.42857C6.64509 5.42857 5.73438 6.39286 5.73438 7.51786C5.73438 8.64286 6.64509 9.55357 7.82366 9.55357ZM22.9308 22.5714V16.3036C22.9308 13.25 22.2344 10.8393 18.6451 10.8393C16.9308 10.8393 15.7522 11.8036 15.2701 12.7143H15.2165V11.1607H11.8415V22.5714H15.3772V16.9464C15.3772 15.4464 15.6451 14 17.5201 14C19.3415 14 19.3415 15.7143 19.3415 17V22.5714H22.9308Z" fill="white"/>
</svg>
